<svg width="100%" min-height="0" viewBox="0 0 1920 570" fill="none"
  xmlns="http://www.w3.org/2000/svg"
  xmlns:xlink="http://www.w3.org/1999/xlink">
  <g id="Banner-1">
    <path id="hs1-shadow" d="M1390.72 316.733H1320.98L1287.44 328.567L1320.98 340.733H1390.72L1427.8 328.567L1390.72 316.733Z" fill="url(#paint0_radial_1_2)" />
    <path id="hs1" d="M1308.24 146.523H1306.46L1305.61 148.081L1260.4 230.525L1259.62 231.947L1260.38 233.379L1305.59 318.145L1306.44 319.733H1308.24H1402.23H1403.95L1404.82 318.257L1454.79 233.491L1455.7 231.946L1454.77 230.412L1404.8 147.968L1403.92 146.523H1402.23H1308.24Z" fill="url(#pattern0)" stroke="#EE1D52" stroke-width="6" />
    <path id="hs2-shadow" d="M1719.04 316.733H1649.3L1615.75 328.567L1649.3 340.733H1719.04L1756.11 328.567L1719.04 316.733Z" fill="url(#paint1_radial_1_2)" />
    <path id="hs2" d="M1637.78 146.523H1636L1635.15 148.081L1589.93 230.525L1589.15 231.947L1589.92 233.379L1635.13 318.145L1635.98 319.733H1637.78H1731.77H1733.49L1734.36 318.257L1784.33 233.491L1785.24 231.946L1784.31 230.412L1734.34 147.968L1733.46 146.523H1731.77H1637.78Z" fill="url(#pattern1)" stroke="#EE1D52" stroke-width="6" />
    <path id="hs3-shadow" d="M1390.72 523H1320.98L1287.44 534.833L1320.98 547H1390.72L1427.8 534.833L1390.72 523Z" fill="url(#paint2_radial_1_2)" />
    <path id="hs3" d="M1308.24 352.79H1306.46L1305.61 354.347L1260.4 436.791L1259.62 438.214L1260.38 439.646L1305.59 524.412L1306.44 526H1308.24H1402.23H1403.95L1404.82 524.524L1454.79 439.757L1455.7 438.212L1454.77 436.679L1404.8 354.235L1403.92 352.79H1402.23H1308.24Z" fill="url(#pattern2)" stroke="#EE1D52" stroke-width="6" />
    <path id="hs4-shadow" d="M1225.95 214.21H1156.21L1122.67 226.044L1156.21 238.21H1225.95L1263.03 226.044L1225.95 214.21Z" fill="url(#paint3_radial_1_2)" />
    <path id="hs4" d="M1143.47 44H1141.69L1140.84 45.5575L1095.63 128.001L1094.85 129.424L1095.61 130.856L1140.82 215.622L1141.67 217.21H1143.47H1237.46H1239.18L1240.05 215.734L1290.02 130.967L1290.93 129.423L1290 127.889L1240.03 45.445L1239.15 44H1237.46H1143.47Z" fill="url(#pattern3)" stroke="#EE1D52" stroke-width="6" />
    <path id="hs5-shadow" d="M1554.27 416.815H1484.53L1450.98 428.649L1484.53 440.815H1554.27L1591.34 428.649L1554.27 416.815Z" fill="url(#paint4_radial_1_2)" />
    <path id="hs5" d="M1471.79 246.605H1470.01L1469.16 248.163L1423.94 330.607L1423.16 332.029L1423.93 333.461L1469.14 418.227L1469.99 419.815H1471.79H1565.78H1567.5L1568.37 418.339L1618.34 333.573L1619.25 332.028L1618.32 330.494L1568.35 248.05L1567.47 246.605H1565.78H1471.79Z" fill="url(#pattern4)" stroke="#EE1D52" stroke-width="6" />
    <g id="text-sec">
      <path d="M245 66.5949C246.533 66.1949 247.783 65.9949 248.75 65.9949C249.717 65.9949 250.483 66.0282 251.05 66.0949V66.5949C246.683 66.8282 243.183 68.8282 240.55 72.5949C239.183 74.5282 238.083 76.7782 237.25 79.3449L227.85 108.645C227.283 110.478 227 112.178 227 113.745C227 113.912 227 114.062 227 114.195H226.5L215.65 90.0949L206.75 111.245C205.85 113.445 204.533 115.578 202.8 117.645C200.933 119.845 198.667 121.295 196 121.995C195.367 122.195 194.7 122.295 194 122.295C193.3 122.295 192.55 122.178 191.75 121.945L191.8 121.445C193.033 121.378 194.217 121.045 195.35 120.445C196.517 119.845 197.533 119.112 198.4 118.245C199.267 117.412 200.1 116.428 200.9 115.295C202.2 113.462 203.3 111.462 204.2 109.295L194.05 81.6949C193.617 80.7282 193 80.0115 192.2 79.5449C191.4 79.0449 190.583 78.7949 189.75 78.7949H189.35V78.2949H204.6V78.7949H204.15C203.45 78.7949 202.917 79.0282 202.55 79.4949C202.217 79.9282 202.05 80.3449 202.05 80.7449C202.05 81.1449 202.117 81.5282 202.25 81.8949L208.4 99.2449L217.45 77.4949L217.9 77.5449L227.85 99.4949L233.6 79.3449C234.433 76.4449 235.75 73.8782 237.55 71.6449C239.65 69.0115 242.133 67.3282 245 66.5949Z" fill="#EE1D52" />
      <path d="M241.748 112.795C242.615 112.795 243.348 112.495 243.948 111.895C244.581 111.262 244.915 110.512 244.948 109.645V81.7949C244.848 80.6282 244.298 79.7615 243.298 79.1949C242.798 78.9282 242.281 78.7949 241.748 78.7949H241.098V78.2949H260.248C261.281 78.2949 262.415 78.1949 263.648 77.9949C264.881 77.7949 265.748 77.5949 266.248 77.3949V86.1449H265.748V85.5449C265.748 84.0449 265.298 82.8449 264.398 81.9449C263.531 81.0115 262.348 80.5115 260.848 80.4449H252.448V94.9949H259.048C260.281 94.9615 261.298 94.5449 262.098 93.7449C262.898 92.9115 263.298 91.8949 263.298 90.6949V90.2449H263.798V101.795H263.298V101.395C263.298 99.7282 262.631 98.4949 261.298 97.6949C260.631 97.3282 259.898 97.1282 259.098 97.0949H252.448V111.145H258.998C261.431 111.145 263.465 110.445 265.098 109.045C266.765 107.645 267.998 105.662 268.798 103.095H269.298L266.998 113.295H241.098V112.795H241.748Z" fill="#EE1D52" />
      <path d="M273.096 112.795C273.962 112.795 274.696 112.495 275.296 111.895C275.929 111.262 276.262 110.512 276.296 109.645V81.9449C276.262 81.0782 275.929 80.3449 275.296 79.7449C274.696 79.1115 273.962 78.7949 273.096 78.7949H272.446V78.2949H287.646L287.596 78.7949H286.996C286.129 78.7949 285.379 79.1115 284.746 79.7449C284.112 80.3449 283.796 81.0782 283.796 81.9449V111.145H290.346C292.779 111.145 294.812 110.445 296.446 109.045C298.112 107.645 299.346 105.662 300.146 103.095H300.646L298.346 113.295H272.446V112.795H273.096Z" fill="#EE1D52" />
      <path d="M323.666 113.945C317.232 113.945 312.182 112.328 308.516 109.095C304.849 105.862 303.016 101.428 303.016 95.7949C303.016 90.1615 304.832 85.7282 308.466 82.4949C312.099 79.2282 317.082 77.5949 323.416 77.5949C328.249 77.5949 332.399 78.4949 335.866 80.2949L335.966 88.8949H335.566C333.866 82.7615 329.982 79.6949 323.916 79.6949C319.982 79.6949 316.866 81.1282 314.566 83.9949C312.299 86.8282 311.166 90.7115 311.166 95.6449C311.166 100.578 312.249 104.495 314.416 107.395C316.616 110.295 319.582 111.795 323.316 111.895C327.182 111.895 330.132 110.928 332.166 108.995C334.232 106.995 335.666 103.562 336.466 98.6949H336.866L337.366 107.295C334.666 111.762 330.099 113.978 323.666 113.945Z" fill="#EE1D52" />
      <path d="M361.779 77.5949C367.946 77.5949 372.846 79.2282 376.479 82.4949C380.113 85.7615 381.929 90.1949 381.929 95.7949C381.929 101.395 380.113 105.828 376.479 109.095C372.846 112.362 367.946 113.995 361.779 113.995C355.613 113.995 350.713 112.362 347.079 109.095C343.446 105.828 341.629 101.395 341.629 95.7949C341.629 92.0949 342.446 88.8782 344.079 86.1449C345.746 83.3782 348.096 81.2615 351.129 79.7949C354.163 78.3282 357.713 77.5949 361.779 77.5949ZM353.029 107.595C355.196 110.462 358.113 111.895 361.779 111.895C365.446 111.895 368.346 110.462 370.479 107.595C372.646 104.695 373.729 100.762 373.729 95.7949C373.729 92.5282 373.246 89.6782 372.279 87.2449C371.313 84.8115 369.929 82.9449 368.129 81.6449C366.329 80.3449 364.213 79.6949 361.779 79.6949C358.113 79.6949 355.196 81.1449 353.029 84.0449C350.896 86.9115 349.829 90.8282 349.829 95.7949C349.829 100.762 350.896 104.695 353.029 107.595Z" fill="#EE1D52" />
      <path d="M430.635 112.795H431.435V113.295H416.435V112.845H417.185C417.752 112.845 418.235 112.628 418.635 112.195C419.035 111.728 419.202 111.228 419.135 110.695L417.185 92.5449L407.785 108.745C406.552 110.812 405.918 112.662 405.885 114.295H405.385L392.535 92.6949L390.585 110.695C390.518 111.228 390.685 111.728 391.085 112.195C391.485 112.628 391.968 112.845 392.535 112.845H393.285V113.295H382.835V112.795H383.635C384.568 112.795 385.368 112.512 386.035 111.945C386.735 111.378 387.152 110.612 387.285 109.645L391.435 77.5949H391.885L407.385 103.095L422.285 77.5949H422.735L426.985 109.645C427.152 110.612 427.569 111.378 428.235 111.945C428.935 112.512 429.735 112.795 430.635 112.795Z" fill="#EE1D52" />
      <path d="M433.691 112.795C434.558 112.795 435.291 112.495 435.891 111.895C436.525 111.262 436.858 110.512 436.891 109.645V81.7949C436.791 80.6282 436.241 79.7615 435.241 79.1949C434.741 78.9282 434.225 78.7949 433.691 78.7949H433.041V78.2949H452.191C453.225 78.2949 454.358 78.1949 455.591 77.9949C456.825 77.7949 457.691 77.5949 458.191 77.3949V86.1449H457.691V85.5449C457.691 84.0449 457.241 82.8449 456.341 81.9449C455.475 81.0115 454.291 80.5115 452.791 80.4449H444.391V94.9949H450.991C452.225 94.9615 453.241 94.5449 454.041 93.7449C454.841 92.9115 455.241 91.8949 455.241 90.6949V90.2449H455.741V101.795H455.241V101.395C455.241 99.7282 454.575 98.4949 453.241 97.6949C452.575 97.3282 451.841 97.1282 451.041 97.0949H444.391V111.145H450.941C453.375 111.145 455.408 110.445 457.041 109.045C458.708 107.645 459.941 105.662 460.741 103.095H461.241L458.941 113.295H433.041V112.795H433.691Z" fill="#EE1D52" />
      <path d="M495.434 80.3449V109.695C495.468 110.562 495.784 111.295 496.384 111.895C497.018 112.495 497.768 112.795 498.634 112.795H499.234L499.284 113.295H484.084V112.795H484.734C485.568 112.795 486.284 112.495 486.884 111.895C487.518 111.295 487.868 110.578 487.934 109.745V80.3449H481.184C479.651 80.3782 478.434 80.8615 477.534 81.7949C476.634 82.7282 476.184 83.9449 476.184 85.4449V86.0449H475.684V77.3449C476.151 77.5449 476.984 77.7449 478.184 77.9449C479.418 78.1449 480.551 78.2449 481.584 78.2449H501.734C503.368 78.2115 504.701 78.0782 505.734 77.8449C506.768 77.6115 507.401 77.4449 507.634 77.3449V86.0449H507.134V85.4449C507.134 83.9449 506.684 82.7282 505.784 81.7949C504.884 80.8615 503.668 80.3782 502.134 80.3449H495.434Z" fill="#EE1D52" />
      <path d="M529.797 77.5949C535.964 77.5949 540.864 79.2282 544.497 82.4949C548.13 85.7615 549.947 90.1949 549.947 95.7949C549.947 101.395 548.13 105.828 544.497 109.095C540.864 112.362 535.964 113.995 529.797 113.995C523.63 113.995 518.73 112.362 515.097 109.095C511.464 105.828 509.647 101.395 509.647 95.7949C509.647 92.0949 510.464 88.8782 512.097 86.1449C513.764 83.3782 516.114 81.2615 519.147 79.7949C522.18 78.3282 525.73 77.5949 529.797 77.5949ZM521.047 107.595C523.214 110.462 526.13 111.895 529.797 111.895C533.464 111.895 536.364 110.462 538.497 107.595C540.664 104.695 541.747 100.762 541.747 95.7949C541.747 92.5282 541.264 89.6782 540.297 87.2449C539.33 84.8115 537.947 82.9449 536.147 81.6449C534.347 80.3449 532.23 79.6949 529.797 79.6949C526.13 79.6949 523.214 81.1449 521.047 84.0449C518.914 86.9115 517.847 90.8282 517.847 95.7949C517.847 100.762 518.914 104.695 521.047 107.595Z" fill="#EE1D52" />
      <path d="M584.638 112.795H585.288V113.295H570.087V112.795H570.738C571.604 112.795 572.338 112.495 572.938 111.895C573.571 111.262 573.904 110.512 573.938 109.645V80.3449L569.188 80.5449C566.054 80.6782 564.488 81.8449 564.488 84.0449C564.488 84.9449 564.788 85.7115 565.388 86.3449C566.021 86.9449 566.888 87.2449 567.988 87.2449C568.088 87.2449 568.188 87.2449 568.288 87.2449V87.5449C567.621 87.7782 567.054 87.8949 566.587 87.8949C565.087 87.8949 563.938 87.3615 563.138 86.2949C562.571 85.5615 562.288 84.7282 562.288 83.7949C562.288 82.3282 562.871 81.1282 564.038 80.1949C565.171 79.2282 566.937 78.6615 569.337 78.4949C569.771 78.4615 571.171 78.3949 573.538 78.2949C578.938 78.0949 582.854 77.7615 585.288 77.2949L585.388 77.7949C583.954 78.0282 582.937 78.5115 582.337 79.2449C581.771 79.9782 581.471 81.0615 581.438 82.4949V109.645C581.471 110.512 581.788 111.262 582.388 111.895C583.021 112.495 583.771 112.795 584.638 112.795Z" fill="#EE1D52" />
      <path d="M628.09 78.7949C627.257 78.7949 626.54 79.0949 625.94 79.6949C625.34 80.2615 625.024 80.9615 624.99 81.7949V107.595C624.99 109.828 625.14 111.712 625.44 113.245L625.59 113.995H625.14L599.89 89.9449V109.795C599.89 110.628 600.19 111.345 600.79 111.945C601.39 112.512 602.107 112.795 602.94 112.795H603.89V113.295H588.74V112.795H589.64C590.507 112.795 591.24 112.512 591.84 111.945C592.44 111.345 592.74 110.612 592.74 109.745V83.7949C592.74 81.5949 592.59 79.7615 592.29 78.2949L592.19 77.5449H592.64L617.89 101.595V81.8449C617.857 80.9782 617.54 80.2615 616.94 79.6949C616.34 79.0949 615.624 78.7949 614.79 78.7949H613.89V78.2949H629.04V78.7949H628.09Z" fill="#EE1D52" />
      <path d="M671.157 78.7949C670.323 78.7949 669.607 79.0949 669.007 79.6949C668.407 80.2615 668.09 80.9615 668.057 81.7949V107.595C668.057 109.828 668.207 111.712 668.507 113.245L668.657 113.995H668.207L642.957 89.9449V109.795C642.957 110.628 643.257 111.345 643.857 111.945C644.457 112.512 645.173 112.795 646.007 112.795H646.957V113.295H631.807V112.795H632.707C633.573 112.795 634.307 112.512 634.907 111.945C635.507 111.345 635.807 110.612 635.807 109.745V83.7949C635.807 81.5949 635.657 79.7615 635.357 78.2949L635.257 77.5449H635.707L660.957 101.595V81.8449C660.923 80.9782 660.607 80.2615 660.007 79.6949C659.407 79.0949 658.69 78.7949 657.857 78.7949H656.957V78.2949H672.107V78.7949H671.157Z" fill="#EE1D52" />
      <path d="M694.738 77.5949C700.905 77.5949 705.805 79.2282 709.438 82.4949C713.072 85.7615 714.888 90.1949 714.888 95.7949C714.888 101.395 713.072 105.828 709.438 109.095C705.805 112.362 700.905 113.995 694.738 113.995C688.572 113.995 683.672 112.362 680.038 109.095C676.405 105.828 674.588 101.395 674.588 95.7949C674.588 92.0949 675.405 88.8782 677.038 86.1449C678.705 83.3782 681.055 81.2615 684.088 79.7949C687.122 78.3282 690.672 77.5949 694.738 77.5949ZM685.988 107.595C688.155 110.462 691.072 111.895 694.738 111.895C698.405 111.895 701.305 110.462 703.438 107.595C705.605 104.695 706.688 100.762 706.688 95.7949C706.688 92.5282 706.205 89.6782 705.238 87.2449C704.272 84.8115 702.888 82.9449 701.088 81.6449C699.288 80.3449 697.172 79.6949 694.738 79.6949C691.072 79.6949 688.155 81.1449 685.988 84.0449C683.855 86.9115 682.788 90.8282 682.788 95.7949C682.788 100.762 683.855 104.695 685.988 107.595Z" fill="#EE1D52" />
      <path d="M752.922 78.7949H752.472C751.706 78.7949 750.939 79.0282 750.172 79.4949C749.406 79.9615 748.772 80.6615 748.272 81.5949L736.422 107.745C734.889 111.045 734.072 113.228 733.972 114.295H733.522L718.372 81.6449C717.872 80.7115 717.239 80.0115 716.472 79.5449C715.706 79.0449 714.922 78.7949 714.122 78.7949H713.722V78.2949H729.622V78.7949H729.222C728.489 78.7949 727.939 79.0282 727.572 79.4949C727.239 79.9282 727.072 80.3449 727.072 80.7449C727.072 81.1449 727.139 81.5449 727.272 81.9449L735.772 102.595L744.572 81.9449C744.739 81.5115 744.822 81.1115 744.822 80.7449C744.822 80.3449 744.639 79.9282 744.272 79.4949C743.939 79.0282 743.406 78.7949 742.672 78.7949H742.222V78.2949H752.922V78.7949Z" fill="#EE1D52" />
      <path d="M782.587 112.795H783.038V113.295H767.087V112.795H767.538C768.271 112.795 768.804 112.578 769.137 112.145C769.504 111.678 769.688 111.245 769.688 110.845C769.688 110.445 769.604 110.045 769.438 109.645L766.988 103.495H755.288L752.688 109.645C752.521 110.078 752.438 110.495 752.438 110.895C752.438 111.262 752.604 111.678 752.938 112.145C753.304 112.578 753.871 112.795 754.637 112.795H755.038V113.295H744.337V112.795H744.788C745.554 112.795 746.321 112.562 747.087 112.095C747.854 111.628 748.488 110.928 748.988 109.995L760.538 83.8449C762.104 80.5449 762.938 78.3615 763.038 77.2949H763.488L778.337 109.895C778.837 110.862 779.471 111.595 780.238 112.095C781.004 112.562 781.787 112.795 782.587 112.795ZM756.137 101.395H766.137L761.288 89.0949L756.137 101.395Z" fill="#EE1D52" />
      <path d="M797.534 80.3449V109.695C797.567 110.562 797.884 111.295 798.484 111.895C799.117 112.495 799.867 112.795 800.734 112.795H801.334L801.384 113.295H786.184V112.795H786.834C787.667 112.795 788.384 112.495 788.984 111.895C789.617 111.295 789.967 110.578 790.034 109.745V80.3449H783.284C781.751 80.3782 780.534 80.8615 779.634 81.7949C778.734 82.7282 778.284 83.9449 778.284 85.4449V86.0449H777.784V77.3449C778.251 77.5449 779.084 77.7449 780.284 77.9449C781.517 78.1449 782.651 78.2449 783.684 78.2449H803.834C805.467 78.2115 806.801 78.0782 807.834 77.8449C808.867 77.6115 809.501 77.4449 809.734 77.3449V86.0449H809.234V85.4449C809.234 83.9449 808.784 82.7282 807.884 81.7949C806.984 80.8615 805.767 80.3782 804.234 80.3449H797.534Z" fill="#EE1D52" />
      <path d="M813.135 112.795C814.001 112.795 814.735 112.495 815.335 111.895C815.968 111.262 816.301 110.512 816.335 109.645V81.8949C816.301 81.0282 815.968 80.2949 815.335 79.6949C814.735 79.0949 814.001 78.7949 813.135 78.7949H812.485V78.2949H827.685L827.635 78.7949H827.035C826.168 78.7949 825.418 79.0949 824.785 79.6949C824.151 80.2949 823.835 81.0282 823.835 81.8949V109.645C823.835 110.512 824.151 111.262 824.785 111.895C825.418 112.495 826.168 112.795 827.035 112.795H827.635L827.685 113.295H812.485V112.795H813.135Z" fill="#EE1D52" />
      <path d="M832.422 112.795C833.289 112.795 834.022 112.495 834.622 111.895C835.255 111.262 835.589 110.512 835.622 109.645V81.8949C835.589 80.6949 835.039 79.7949 833.972 79.1949C833.505 78.9282 832.989 78.7949 832.422 78.7949H831.772V78.2949H846.972L846.922 78.7949H846.322C845.122 78.7949 844.205 79.3115 843.572 80.3449C843.272 80.8115 843.122 81.3282 843.122 81.8949V109.645C843.122 110.512 843.439 111.262 844.072 111.895C844.705 112.495 845.455 112.795 846.322 112.795H846.922L846.972 113.295H831.772V112.795H832.422ZM868.522 113.295H864.422C859.355 113.295 855.772 111.912 853.672 109.145C847.705 101.045 844.722 96.9282 844.722 96.7949L856.572 81.0949C856.839 80.7615 856.972 80.4615 856.972 80.1949C856.972 79.9282 856.922 79.6949 856.822 79.4949C856.555 78.9949 856.089 78.7449 855.422 78.7449H854.922V78.2949H866.372V78.7449H866.172C863.939 78.7449 862.122 79.5449 860.722 81.1449L850.972 92.6949L863.422 109.695C864.955 111.695 866.655 112.728 868.522 112.795V113.295Z" fill="#EE1D52" />
      <path d="M195.7 166.095C194.367 168.228 193.7 170.412 193.7 172.645C193.7 175.078 194.583 177.295 196.35 179.295C197.317 180.428 198.533 181.312 200 181.945C201.5 182.578 203.133 182.895 204.9 182.895C206.667 182.895 208.25 182.562 209.65 181.895C212.45 180.528 213.85 178.295 213.85 175.195C213.85 174.028 213.45 172.795 212.65 171.495C211.883 170.195 210.717 169.028 209.15 167.995L200.65 162.295C197.35 160.228 195.7 157.562 195.7 154.295C195.7 153.962 195.717 153.628 195.75 153.295C195.95 150.728 196.967 148.645 198.8 147.045C200.667 145.412 203.15 144.595 206.25 144.595C208.15 144.595 210.45 144.762 213.15 145.095H216.25L215.6 152.445H215.15C215.117 150.712 214.45 149.328 213.15 148.295C211.85 147.228 210.133 146.695 208 146.695C205.4 146.695 203.517 147.478 202.35 149.045C201.783 149.845 201.5 150.712 201.5 151.645C201.5 152.578 201.783 153.378 202.35 154.045C202.917 154.678 203.817 155.378 205.05 156.145L214.4 162.245C216.3 163.478 217.783 164.928 218.85 166.595C220.117 168.562 220.75 170.578 220.75 172.645C220.75 173.978 220.467 175.395 219.9 176.895C219.367 178.362 218.467 179.728 217.2 180.995C215.967 182.262 214.367 183.295 212.4 184.095C210.433 184.895 208.25 185.295 205.85 185.295C203.483 185.295 201.333 184.878 199.4 184.045C195.833 182.545 193.567 179.928 192.6 176.195C192.4 175.395 192.3 174.562 192.3 173.695C192.3 170.895 193.283 168.245 195.25 165.745L195.7 166.095Z" fill="#EE1D52" />
      <path d="M242.602 147.345V176.695C242.636 177.562 242.952 178.295 243.552 178.895C244.186 179.495 244.936 179.795 245.802 179.795H246.402L246.452 180.295H231.252V179.795H231.902C232.736 179.795 233.452 179.495 234.052 178.895C234.686 178.295 235.036 177.578 235.102 176.745V147.345H228.352C226.819 147.378 225.602 147.862 224.702 148.795C223.802 149.728 223.352 150.945 223.352 152.445V153.045H222.852V144.345C223.319 144.545 224.152 144.745 225.352 144.945C226.586 145.145 227.719 145.245 228.752 145.245H248.902C250.536 145.212 251.869 145.078 252.902 144.845C253.936 144.612 254.569 144.445 254.802 144.345V153.045H254.302V152.445C254.302 150.945 253.852 149.728 252.952 148.795C252.052 147.862 250.836 147.378 249.302 147.345H242.602Z" fill="#EE1D52" />
      <path d="M276.965 144.595C283.132 144.595 288.032 146.228 291.665 149.495C295.298 152.762 297.115 157.195 297.115 162.795C297.115 168.395 295.298 172.828 291.665 176.095C288.032 179.362 283.132 180.995 276.965 180.995C270.798 180.995 265.898 179.362 262.265 176.095C258.632 172.828 256.815 168.395 256.815 162.795C256.815 159.095 257.632 155.878 259.265 153.145C260.932 150.378 263.282 148.262 266.315 146.795C269.348 145.328 272.898 144.595 276.965 144.595ZM268.215 174.595C270.382 177.462 273.298 178.895 276.965 178.895C280.632 178.895 283.532 177.462 285.665 174.595C287.832 171.695 288.915 167.762 288.915 162.795C288.915 159.528 288.432 156.678 287.465 154.245C286.498 151.812 285.115 149.945 283.315 148.645C281.515 147.345 279.398 146.695 276.965 146.695C273.298 146.695 270.382 148.145 268.215 151.045C266.082 153.912 265.015 157.828 265.015 162.795C265.015 167.762 266.082 171.695 268.215 174.595Z" fill="#EE1D52" />
      <path d="M313.834 147.495H311.684C311.617 147.495 311.567 147.495 311.534 147.495V176.645C311.567 177.878 312.1 178.795 313.134 179.395C313.634 179.662 314.167 179.795 314.734 179.795H315.384V180.295H300.184V179.795H300.834C302.034 179.795 302.95 179.278 303.584 178.245C303.85 177.778 304 177.262 304.034 176.695V148.945C304 148.078 303.667 147.345 303.034 146.745C302.434 146.112 301.7 145.795 300.834 145.795H300.184V145.295H317.334C320.567 145.295 323.3 145.995 325.534 147.395C326.667 148.095 327.567 149.078 328.234 150.345C328.9 151.578 329.234 152.995 329.234 154.595C329.234 156.162 328.95 157.612 328.384 158.945C327.85 160.278 326.934 161.445 325.634 162.445C324.367 163.445 322.834 164.045 321.034 164.245C322.967 164.878 324.667 166.345 326.134 168.645C329.734 174.412 332.4 177.845 334.134 178.945C335 179.478 336.084 179.762 337.384 179.795V180.295H332.484C329.65 180.295 327.284 179.912 325.384 179.145C323.484 178.345 321.934 176.995 320.734 175.095C320.134 174.128 319.367 172.678 318.434 170.745C317.5 168.778 316.884 167.378 316.584 166.545C315.684 164.545 314.55 163.428 313.184 163.195V162.695H314.734C316.234 162.695 317.55 162.245 318.684 161.345C319.85 160.445 320.634 158.978 321.034 156.945C321.167 156.245 321.234 155.695 321.234 155.295C321.234 152.562 320.684 150.595 319.584 149.395C318.484 148.162 317.067 147.528 315.334 147.495C315 147.495 314.5 147.495 313.834 147.495Z" fill="#EE1D52" />
      <path d="M337.402 179.795C338.269 179.795 339.002 179.495 339.602 178.895C340.236 178.262 340.569 177.512 340.602 176.645V148.795C340.502 147.628 339.952 146.762 338.952 146.195C338.452 145.928 337.936 145.795 337.402 145.795H336.752V145.295H355.902C356.936 145.295 358.069 145.195 359.302 144.995C360.536 144.795 361.402 144.595 361.902 144.395V153.145H361.402V152.545C361.402 151.045 360.952 149.845 360.052 148.945C359.186 148.012 358.002 147.512 356.502 147.445H348.102V161.995H354.702C355.936 161.962 356.952 161.545 357.752 160.745C358.552 159.912 358.952 158.895 358.952 157.695V157.245H359.452V168.795H358.952V168.395C358.952 166.728 358.286 165.495 356.952 164.695C356.286 164.328 355.552 164.128 354.752 164.095H348.102V178.145H354.652C357.086 178.145 359.119 177.445 360.752 176.045C362.419 174.645 363.652 172.662 364.452 170.095H364.952L362.652 180.295H336.752V179.795H337.402Z" fill="#EE1D52" />
      <path d="M375.845 161.345L374.045 169.995H371.745L369.995 161.345L369.045 145.195H376.745L375.845 161.345ZM375.395 179.745C374.695 180.445 373.845 180.795 372.845 180.795C371.845 180.795 370.995 180.445 370.295 179.745C369.595 179.045 369.245 178.195 369.245 177.195C369.245 176.195 369.595 175.345 370.295 174.645C370.995 173.912 371.845 173.545 372.845 173.545C373.845 173.545 374.695 173.912 375.395 174.645C376.129 175.345 376.495 176.195 376.495 177.195C376.495 178.195 376.129 179.045 375.395 179.745Z" fill="#EE1D52" />
      <path d="M204.45 231.095V243.645C204.45 244.512 204.767 245.262 205.4 245.895C206.033 246.495 206.783 246.795 207.65 246.795H208.25L208.3 247.295H193.1V246.795H193.75C194.617 246.795 195.35 246.495 195.95 245.895C196.583 245.262 196.917 244.512 196.95 243.645V215.795C196.883 214.962 196.533 214.262 195.9 213.695C195.3 213.095 194.583 212.795 193.75 212.795H193.1V212.295H212.25C213.717 212.295 215 212.178 216.1 211.945C217.2 211.712 217.917 211.528 218.25 211.395V219.845H217.75V219.345C217.75 217.345 217 215.928 215.5 215.095C214.8 214.695 213.967 214.478 213 214.445H204.45V228.995H218.85C220.083 228.962 221.1 228.545 221.9 227.745C222.7 226.912 223.1 225.895 223.1 224.695V224.245H223.6V235.795H223.1V235.395C223.1 234.162 222.7 233.145 221.9 232.345C221.133 231.545 220.15 231.128 218.95 231.095H204.45Z" fill="#EE1D52" />
      <path d="M226.465 246.795C227.332 246.795 228.065 246.495 228.665 245.895C229.298 245.262 229.632 244.512 229.665 243.645V215.895C229.632 215.028 229.298 214.295 228.665 213.695C228.065 213.095 227.332 212.795 226.465 212.795H225.815V212.295H241.015L240.965 212.795H240.365C239.498 212.795 238.748 213.095 238.115 213.695C237.482 214.295 237.165 215.028 237.165 215.895V243.645C237.165 244.512 237.482 245.262 238.115 245.895C238.748 246.495 239.498 246.795 240.365 246.795H240.965L241.015 247.295H225.815V246.795H226.465Z" fill="#EE1D52" />
      <path d="M283.852 212.795C283.019 212.795 282.302 213.095 281.702 213.695C281.102 214.262 280.785 214.962 280.752 215.795V241.595C280.752 243.828 280.902 245.712 281.202 247.245L281.352 247.995H280.902L255.652 223.945V243.795C255.652 244.628 255.952 245.345 256.552 245.945C257.152 246.512 257.869 246.795 258.702 246.795H259.652V247.295H244.502V246.795H245.402C246.269 246.795 247.002 246.512 247.602 245.945C248.202 245.345 248.502 244.612 248.502 243.745V217.795C248.502 215.595 248.352 213.762 248.052 212.295L247.952 211.545H248.402L273.652 235.595V215.845C273.619 214.978 273.302 214.262 272.702 213.695C272.102 213.095 271.385 212.795 270.552 212.795H269.652V212.295H284.802V212.795H283.852Z" fill="#EE1D52" />
      <path d="M306.318 212.295C312.218 212.295 316.885 213.862 320.318 216.995C323.752 220.128 325.468 224.395 325.468 229.795C325.468 235.195 323.752 239.462 320.318 242.595C316.885 245.728 312.218 247.295 306.318 247.295H288.168V246.795H288.818C289.685 246.795 290.418 246.495 291.018 245.895C291.652 245.262 291.985 244.512 292.018 243.645V215.645C291.918 214.845 291.568 214.178 290.968 213.645C290.368 213.078 289.652 212.795 288.818 212.795H288.168V212.295H306.318ZM305.668 245.195C308.068 245.195 310.135 244.578 311.868 243.345C313.635 242.078 314.985 240.295 315.918 237.995C316.852 235.662 317.318 232.928 317.318 229.795C317.318 225.062 316.268 221.312 314.168 218.545C312.102 215.778 309.268 214.395 305.668 214.395H299.518V245.195H305.668Z" fill="#EE1D52" />
      <path d="M360.62 214.345V243.695C360.653 244.562 360.97 245.295 361.57 245.895C362.203 246.495 362.953 246.795 363.82 246.795H364.42L364.47 247.295H349.27V246.795H349.92C350.753 246.795 351.47 246.495 352.07 245.895C352.703 245.295 353.053 244.578 353.12 243.745V214.345H346.37C344.837 214.378 343.62 214.862 342.72 215.795C341.82 216.728 341.37 217.945 341.37 219.445V220.045H340.87V211.345C341.337 211.545 342.17 211.745 343.37 211.945C344.603 212.145 345.737 212.245 346.77 212.245H366.92C368.553 212.212 369.887 212.078 370.92 211.845C371.953 211.612 372.587 211.445 372.82 211.345V220.045H372.32V219.445C372.32 217.945 371.87 216.728 370.97 215.795C370.07 214.862 368.853 214.378 367.32 214.345H360.62Z" fill="#EE1D52" />
      <path d="M399.921 246.795C400.787 246.795 401.454 246.578 401.921 246.145C402.687 245.378 403.087 244.562 403.121 243.695V230.945H386.921V243.645C386.921 244.512 387.237 245.262 387.871 245.895C388.504 246.495 389.254 246.795 390.121 246.795H390.721L390.771 247.295H375.571V246.795H376.221C377.087 246.795 377.821 246.495 378.421 245.895C379.054 245.262 379.387 244.512 379.421 243.645V215.895C379.387 215.028 379.054 214.295 378.421 213.695C377.821 213.095 377.087 212.795 376.221 212.795H375.571V212.295H390.771L390.721 212.795H390.121C389.254 212.795 388.504 213.095 387.871 213.695C387.237 214.295 386.921 215.028 386.921 215.895V228.795H403.121V215.895C403.087 215.028 402.754 214.295 402.121 213.695C401.521 213.095 400.787 212.795 399.921 212.795H399.271V212.295H414.471V212.795H413.821C412.954 212.795 412.204 213.112 411.571 213.745C410.937 214.345 410.621 215.078 410.621 215.945V243.645C410.621 244.512 410.937 245.262 411.571 245.895C412.204 246.495 412.954 246.795 413.821 246.795H414.471V247.295H399.271V246.795H399.921Z" fill="#EE1D52" />
      <path d="M400.098 246.795C400.964 246.795 401.698 246.495 402.298 245.895C402.931 245.262 403.264 244.512 403.298 243.645V215.795C403.198 214.628 402.648 213.762 401.648 213.195C401.148 212.928 400.631 212.795 400.098 212.795H399.448V212.295H418.598C419.631 212.295 420.764 212.195 421.998 211.995C423.231 211.795 424.098 211.595 424.598 211.395V220.145H424.098V219.545C424.098 218.045 423.648 216.845 422.748 215.945C421.881 215.012 420.698 214.512 419.198 214.445H410.798V228.995H417.398C418.631 228.962 419.648 228.545 420.448 227.745C421.248 226.912 421.648 225.895 421.648 224.695V224.245H422.148V235.795H421.648V235.395C421.648 233.728 420.981 232.495 419.648 231.695C418.981 231.328 418.248 231.128 417.448 231.095H410.798V245.145H417.348C419.781 245.145 421.814 244.445 423.448 243.045C425.114 241.645 426.348 239.662 427.148 237.095H427.648L425.348 247.295H399.448V246.795H400.098Z" fill="#EE1D52" />
      <path d="M484.091 254.245C487.557 254.245 490.357 253.562 492.491 252.195L492.841 252.595C489.974 256.562 486.407 258.762 482.141 259.195C481.241 259.295 480.457 259.345 479.791 259.345C479.157 259.345 478.407 259.312 477.541 259.245C476.707 259.212 475.524 258.995 473.991 258.595C472.457 258.195 471.107 257.778 469.941 257.345C468.774 256.945 467.424 256.395 465.891 255.695C464.357 255.028 463.091 254.428 462.091 253.895C461.091 253.395 459.891 252.778 458.491 252.045C457.124 251.345 455.924 250.745 454.891 250.245C453.857 249.745 452.857 249.312 451.891 248.945C449.157 247.845 446.357 247.295 443.491 247.295V246.795H444.141C445.007 246.795 445.741 246.495 446.341 245.895C446.974 245.295 447.307 244.545 447.341 243.645V215.945C447.307 215.045 446.974 214.295 446.341 213.695C445.741 213.095 445.007 212.795 444.141 212.795H443.491V212.295H458.691L458.641 212.795H458.141C456.874 212.795 455.924 213.312 455.291 214.345C454.991 214.812 454.841 215.345 454.841 215.945V244.945C454.841 246.045 455.057 246.812 455.491 247.245C455.924 247.645 456.407 247.928 456.941 248.095C469.474 252.195 478.524 254.245 484.091 254.245Z" fill="#EE1D52" />
      <path d="M499.629 246.795H500.079V247.295H484.129V246.795H484.579C485.312 246.795 485.845 246.578 486.179 246.145C486.545 245.678 486.729 245.245 486.729 244.845C486.729 244.445 486.645 244.045 486.479 243.645L484.029 237.495H472.329L469.729 243.645C469.562 244.078 469.479 244.495 469.479 244.895C469.479 245.262 469.645 245.678 469.979 246.145C470.345 246.578 470.912 246.795 471.679 246.795H472.079V247.295H461.379V246.795H461.829C462.595 246.795 463.362 246.562 464.129 246.095C464.895 245.628 465.529 244.928 466.029 243.995L477.579 217.845C479.145 214.545 479.979 212.362 480.079 211.295H480.529L495.379 243.895C495.879 244.862 496.512 245.595 497.279 246.095C498.045 246.562 498.829 246.795 499.629 246.795ZM473.179 235.395H483.179L478.329 223.095L473.179 235.395Z" fill="#EE1D52" />
      <path d="M514.575 214.345V243.695C514.608 244.562 514.925 245.295 515.525 245.895C516.158 246.495 516.908 246.795 517.775 246.795H518.375L518.425 247.295H503.225V246.795H503.875C504.708 246.795 505.425 246.495 506.025 245.895C506.658 245.295 507.008 244.578 507.075 243.745V214.345H500.325C498.792 214.378 497.575 214.862 496.675 215.795C495.775 216.728 495.325 217.945 495.325 219.445V220.045H494.825V211.345C495.292 211.545 496.125 211.745 497.325 211.945C498.558 212.145 499.692 212.245 500.725 212.245H520.875C522.508 212.212 523.842 212.078 524.875 211.845C525.908 211.612 526.542 211.445 526.775 211.345V220.045H526.275V219.445C526.275 217.945 525.825 216.728 524.925 215.795C524.025 214.862 522.808 214.378 521.275 214.345H514.575Z" fill="#EE1D52" />
      <path d="M530.176 246.795C531.042 246.795 531.776 246.495 532.376 245.895C533.009 245.262 533.342 244.512 533.376 243.645V215.795C533.276 214.628 532.726 213.762 531.726 213.195C531.226 212.928 530.709 212.795 530.176 212.795H529.526V212.295H548.676C549.709 212.295 550.842 212.195 552.076 211.995C553.309 211.795 554.176 211.595 554.676 211.395V220.145H554.176V219.545C554.176 218.045 553.726 216.845 552.826 215.945C551.959 215.012 550.776 214.512 549.276 214.445H540.876V228.995H547.476C548.709 228.962 549.726 228.545 550.526 227.745C551.326 226.912 551.726 225.895 551.726 224.695V224.245H552.226V235.795H551.726V235.395C551.726 233.728 551.059 232.495 549.726 231.695C549.059 231.328 548.326 231.128 547.526 231.095H540.876V245.145H547.426C549.859 245.145 551.892 244.445 553.526 243.045C555.192 241.645 556.426 239.662 557.226 237.095H557.726L555.426 247.295H529.526V246.795H530.176Z" fill="#EE1D52" />
      <path d="M561.469 242.645C561.469 240.245 561.985 238.195 563.019 236.495H563.469C563.435 236.762 563.419 237.028 563.419 237.295C563.419 239.595 564.235 241.612 565.869 243.345C567.535 245.045 569.802 245.895 572.669 245.895C574.902 245.895 576.635 245.362 577.869 244.295C579.135 243.228 579.769 241.878 579.769 240.245C579.769 238.278 578.435 236.562 575.769 235.095L567.069 229.345C565.335 228.345 564.085 227.145 563.319 225.745C562.585 224.312 562.219 222.862 562.219 221.395C562.219 218.262 563.202 215.845 565.169 214.145C567.169 212.445 569.719 211.595 572.819 211.595C574.652 211.595 576.919 211.762 579.619 212.095H582.769L582.119 219.445H581.619C581.619 217.712 580.969 216.328 579.669 215.295C578.402 214.228 576.702 213.695 574.569 213.695C571.969 213.695 570.085 214.495 568.919 216.095C568.319 216.862 568.019 217.728 568.019 218.695C568.019 220.295 569.185 221.778 571.519 223.145L581.069 229.345C584.069 231.078 585.569 233.628 585.569 236.995C585.569 240.562 584.352 243.295 581.919 245.195C579.519 247.062 576.319 247.995 572.319 247.995C570.052 247.995 567.952 247.728 566.019 247.195C564.119 246.628 562.719 245.878 561.819 244.945C561.585 244.312 561.469 243.545 561.469 242.645Z" fill="#EE1D52" />
      <path d="M608.325 214.345V243.695C608.358 244.562 608.675 245.295 609.275 245.895C609.908 246.495 610.658 246.795 611.525 246.795H612.125L612.175 247.295H596.975V246.795H597.625C598.458 246.795 599.175 246.495 599.775 245.895C600.408 245.295 600.758 244.578 600.825 243.745V214.345H594.075C592.542 214.378 591.325 214.862 590.425 215.795C589.525 216.728 589.075 217.945 589.075 219.445V220.045H588.575V211.345C589.042 211.545 589.875 211.745 591.075 211.945C592.308 212.145 593.442 212.245 594.475 212.245H614.625C616.258 212.212 617.592 212.078 618.625 211.845C619.658 211.612 620.292 211.445 620.525 211.345V220.045H620.025V219.445C620.025 217.945 619.575 216.728 618.675 215.795C617.775 214.862 616.558 214.378 615.025 214.345H608.325Z" fill="#EE1D52" />
      <path d="M632.426 223.945C630.792 222.378 629.976 220.695 629.976 218.895C629.976 217.495 630.426 216.278 631.326 215.245C633.026 213.245 635.409 212.245 638.476 212.245H662.026C663.492 212.212 664.776 212.095 665.876 211.895C666.976 211.662 667.676 211.478 667.976 211.345V220.045H667.476V219.445C667.476 217.945 667.026 216.728 666.126 215.795C665.226 214.862 664.009 214.378 662.476 214.345H655.726V243.695C655.792 244.895 656.342 245.795 657.376 246.395C657.842 246.662 658.359 246.795 658.926 246.795H659.576V247.295H644.376V246.795H645.026C645.892 246.795 646.626 246.495 647.226 245.895C647.859 245.295 648.192 244.578 648.226 243.745V214.345H638.476C637.109 214.345 635.909 214.595 634.876 215.095C632.776 216.095 631.726 217.662 631.726 219.795C631.726 221.062 632.126 222.362 632.926 223.695L632.426 223.945Z" fill="#EE1D52" />
      <path d="M684.488 214.495H682.338C682.271 214.495 682.221 214.495 682.188 214.495V243.645C682.221 244.878 682.755 245.795 683.788 246.395C684.288 246.662 684.821 246.795 685.388 246.795H686.038V247.295H670.838V246.795H671.488C672.688 246.795 673.605 246.278 674.238 245.245C674.505 244.778 674.655 244.262 674.688 243.695V215.945C674.655 215.078 674.321 214.345 673.688 213.745C673.088 213.112 672.355 212.795 671.488 212.795H670.838V212.295H687.988C691.221 212.295 693.955 212.995 696.188 214.395C697.321 215.095 698.221 216.078 698.888 217.345C699.555 218.578 699.888 219.995 699.888 221.595C699.888 223.162 699.605 224.612 699.038 225.945C698.505 227.278 697.588 228.445 696.288 229.445C695.021 230.445 693.488 231.045 691.688 231.245C693.621 231.878 695.321 233.345 696.788 235.645C700.388 241.412 703.055 244.845 704.788 245.945C705.655 246.478 706.738 246.762 708.038 246.795V247.295H703.138C700.305 247.295 697.938 246.912 696.038 246.145C694.138 245.345 692.588 243.995 691.388 242.095C690.788 241.128 690.021 239.678 689.088 237.745C688.155 235.778 687.538 234.378 687.238 233.545C686.338 231.545 685.205 230.428 683.838 230.195V229.695H685.388C686.888 229.695 688.205 229.245 689.338 228.345C690.505 227.445 691.288 225.978 691.688 223.945C691.821 223.245 691.888 222.695 691.888 222.295C691.888 219.562 691.338 217.595 690.238 216.395C689.138 215.162 687.721 214.528 685.988 214.495C685.655 214.495 685.155 214.495 684.488 214.495Z" fill="#EE1D52" />
      <path d="M708.057 246.795C708.923 246.795 709.657 246.495 710.257 245.895C710.89 245.262 711.223 244.512 711.257 243.645V215.795C711.157 214.628 710.607 213.762 709.607 213.195C709.107 212.928 708.59 212.795 708.057 212.795H707.407V212.295H726.557C727.59 212.295 728.723 212.195 729.957 211.995C731.19 211.795 732.057 211.595 732.557 211.395V220.145H732.057V219.545C732.057 218.045 731.607 216.845 730.707 215.945C729.84 215.012 728.657 214.512 727.157 214.445H718.757V228.995H725.357C726.59 228.962 727.607 228.545 728.407 227.745C729.207 226.912 729.607 225.895 729.607 224.695V224.245H730.107V235.795H729.607V235.395C729.607 233.728 728.94 232.495 727.607 231.695C726.94 231.328 726.207 231.128 725.407 231.095H718.757V245.145H725.307C727.74 245.145 729.773 244.445 731.407 243.045C733.073 241.645 734.307 239.662 735.107 237.095H735.607L733.307 247.295H707.407V246.795H708.057Z" fill="#EE1D52" />
      <path d="M777.7 212.795C776.866 212.795 776.15 213.095 775.55 213.695C774.95 214.262 774.633 214.962 774.6 215.795V241.595C774.6 243.828 774.75 245.712 775.05 247.245L775.2 247.995H774.75L749.5 223.945V243.795C749.5 244.628 749.8 245.345 750.4 245.945C751 246.512 751.716 246.795 752.55 246.795H753.5V247.295H738.35V246.795H739.25C740.116 246.795 740.85 246.512 741.45 245.945C742.05 245.345 742.35 244.612 742.35 243.745V217.795C742.35 215.595 742.2 213.762 741.9 212.295L741.8 211.545H742.25L767.5 235.595V215.845C767.466 214.978 767.15 214.262 766.55 213.695C765.95 213.095 765.233 212.795 764.4 212.795H763.5V212.295H778.65V212.795H777.7Z" fill="#EE1D52" />
      <path d="M800.166 212.295C806.066 212.295 810.733 213.862 814.166 216.995C817.599 220.128 819.316 224.395 819.316 229.795C819.316 235.195 817.599 239.462 814.166 242.595C810.733 245.728 806.066 247.295 800.166 247.295H782.016V246.795H782.666C783.533 246.795 784.266 246.495 784.866 245.895C785.499 245.262 785.833 244.512 785.866 243.645V215.645C785.766 214.845 785.416 214.178 784.816 213.645C784.216 213.078 783.499 212.795 782.666 212.795H782.016V212.295H800.166ZM799.516 245.195C801.916 245.195 803.983 244.578 805.716 243.345C807.483 242.078 808.833 240.295 809.766 237.995C810.699 235.662 811.166 232.928 811.166 229.795C811.166 225.062 810.116 221.312 808.016 218.545C805.949 215.778 803.116 214.395 799.516 214.395H793.366V245.195H799.516Z" fill="#EE1D52" />
      <path d="M856.119 212.795H855.419C854.419 212.795 853.469 213.078 852.569 213.645C851.669 214.212 850.952 214.895 850.419 215.695L840.569 231.395V243.645C840.569 244.512 840.886 245.262 841.519 245.895C842.152 246.495 842.902 246.795 843.769 246.795H844.369L844.419 247.295H829.219V246.795H829.869C830.736 246.795 831.469 246.495 832.069 245.895C832.702 245.295 833.036 244.562 833.069 243.695V231.345L823.519 215.645C823.019 214.845 822.303 214.178 821.369 213.645C820.469 213.078 819.536 212.795 818.569 212.795H817.869V212.295H834.419V212.795H833.769C833.036 212.795 832.469 213.128 832.069 213.795C831.869 214.162 831.769 214.528 831.769 214.895C831.769 215.228 831.852 215.562 832.019 215.895L839.169 228.895L846.569 215.895C846.769 215.562 846.869 215.228 846.869 214.895C846.869 214.528 846.752 214.178 846.519 213.845C846.119 213.145 845.552 212.795 844.819 212.795H844.219V212.295H856.119V212.795Z" fill="#EE1D52" />
      <path d="M206.9 295.295C207.467 296.628 208.633 297.295 210.4 297.295C212.4 297.295 214 296.295 215.2 294.295C216.033 292.928 216.45 291.195 216.45 289.095C216.45 285.995 215.633 283.728 214 282.295C212.767 281.228 211.2 280.695 209.3 280.695C208.867 280.695 208.417 280.728 207.95 280.795L204.6 281.295V310.645C204.6 311.545 204.917 312.295 205.55 312.895C206.183 313.495 206.933 313.795 207.8 313.795H208.45V314.295H193.25V313.795H193.9C194.767 313.795 195.5 313.495 196.1 312.895C196.733 312.295 197.067 311.545 197.1 310.645V283.995C197.067 283.128 196.8 282.445 196.3 281.945C195.833 281.445 195.133 281.195 194.2 281.195C193.967 281.195 193.667 281.212 193.3 281.245L193.2 280.795C196.033 280.562 199 280.178 202.1 279.645C205.233 279.078 207.283 278.728 208.25 278.595C209.25 278.462 210.25 278.395 211.25 278.395C212.283 278.395 213.517 278.512 214.95 278.745C216.383 278.945 217.85 279.428 219.35 280.195C220.85 280.928 222.067 282.028 223 283.495C223.967 285.095 224.45 286.912 224.45 288.945C224.45 290.945 224.083 292.712 223.35 294.245C221.95 297.178 219.55 299.045 216.15 299.845C215.317 300.045 214.517 300.145 213.75 300.145C213.017 300.145 212.317 300.078 211.65 299.945C210.283 299.745 209.133 299.278 208.2 298.545C207.267 297.812 206.683 296.795 206.45 295.495L206.9 295.295Z" fill="#EE1D52" />
      <path d="M241.959 281.495H239.809C239.742 281.495 239.692 281.495 239.659 281.495V310.645C239.692 311.878 240.225 312.795 241.259 313.395C241.759 313.662 242.292 313.795 242.859 313.795H243.509V314.295H228.309V313.795H228.959C230.159 313.795 231.075 313.278 231.709 312.245C231.975 311.778 232.125 311.262 232.159 310.695V282.945C232.125 282.078 231.792 281.345 231.159 280.745C230.559 280.112 229.825 279.795 228.959 279.795H228.309V279.295H245.459C248.692 279.295 251.425 279.995 253.659 281.395C254.792 282.095 255.692 283.078 256.359 284.345C257.025 285.578 257.359 286.995 257.359 288.595C257.359 290.162 257.075 291.612 256.509 292.945C255.975 294.278 255.059 295.445 253.759 296.445C252.492 297.445 250.959 298.045 249.159 298.245C251.092 298.878 252.792 300.345 254.259 302.645C257.859 308.412 260.525 311.845 262.259 312.945C263.125 313.478 264.209 313.762 265.509 313.795V314.295H260.609C257.775 314.295 255.409 313.912 253.509 313.145C251.609 312.345 250.059 310.995 248.859 309.095C248.259 308.128 247.492 306.678 246.559 304.745C245.625 302.778 245.009 301.378 244.709 300.545C243.809 298.545 242.675 297.428 241.309 297.195V296.695H242.859C244.359 296.695 245.675 296.245 246.809 295.345C247.975 294.445 248.759 292.978 249.159 290.945C249.292 290.245 249.359 289.695 249.359 289.295C249.359 286.562 248.809 284.595 247.709 283.395C246.609 282.162 245.192 281.528 243.459 281.495C243.125 281.495 242.625 281.495 241.959 281.495Z" fill="#EE1D52" />
      <path d="M283.85 278.595C290.016 278.595 294.916 280.228 298.55 283.495C302.183 286.762 304 291.195 304 296.795C304 302.395 302.183 306.828 298.55 310.095C294.916 313.362 290.016 314.995 283.85 314.995C277.683 314.995 272.783 313.362 269.15 310.095C265.516 306.828 263.7 302.395 263.7 296.795C263.7 293.095 264.516 289.878 266.15 287.145C267.816 284.378 270.166 282.262 273.2 280.795C276.233 279.328 279.783 278.595 283.85 278.595ZM275.1 308.595C277.266 311.462 280.183 312.895 283.85 312.895C287.516 312.895 290.416 311.462 292.55 308.595C294.716 305.695 295.8 301.762 295.8 296.795C295.8 293.528 295.316 290.678 294.35 288.245C293.383 285.812 292 283.945 290.2 282.645C288.4 281.345 286.283 280.695 283.85 280.695C280.183 280.695 277.266 282.145 275.1 285.045C272.966 287.912 271.9 291.828 271.9 296.795C271.9 301.762 272.966 305.695 275.1 308.595Z" fill="#EE1D52" />
      <path d="M325.068 279.295C330.968 279.295 335.635 280.862 339.068 283.995C342.502 287.128 344.218 291.395 344.218 296.795C344.218 302.195 342.502 306.462 339.068 309.595C335.635 312.728 330.968 314.295 325.068 314.295H306.918V313.795H307.568C308.435 313.795 309.168 313.495 309.768 312.895C310.402 312.262 310.735 311.512 310.768 310.645V282.645C310.668 281.845 310.318 281.178 309.718 280.645C309.118 280.078 308.402 279.795 307.568 279.795H306.918V279.295H325.068ZM324.418 312.195C326.818 312.195 328.885 311.578 330.618 310.345C332.385 309.078 333.735 307.295 334.668 304.995C335.602 302.662 336.068 299.928 336.068 296.795C336.068 292.062 335.018 288.312 332.918 285.545C330.852 282.778 328.018 281.395 324.418 281.395H318.268V312.195H324.418Z" fill="#EE1D52" />
      <path d="M384.992 279.795H384.142C383.442 279.795 382.826 280.028 382.292 280.495C381.792 280.928 381.542 281.478 381.542 282.145V301.645C381.542 305.745 380.259 308.995 377.692 311.395C375.126 313.795 371.609 314.995 367.142 314.995C361.876 314.995 357.842 313.828 355.042 311.495C352.242 309.128 350.842 305.862 350.842 301.695V282.295C350.842 281.562 350.576 280.962 350.042 280.495C349.542 280.028 348.926 279.795 348.192 279.795H347.392V279.295H361.792V279.795H360.992C360.259 279.795 359.642 280.028 359.142 280.495C358.642 280.928 358.376 281.495 358.342 282.195V301.295C358.342 304.828 359.209 307.628 360.942 309.695C362.676 311.762 365.059 312.795 368.092 312.795C371.126 312.795 373.526 311.828 375.292 309.895C377.059 307.928 377.959 305.278 377.992 301.945V282.195C377.992 281.495 377.726 280.928 377.192 280.495C376.692 280.028 376.076 279.795 375.342 279.795H374.542V279.295H384.992V279.795Z" fill="#EE1D52" />
      <path d="M409.164 314.945C402.73 314.945 397.68 313.328 394.014 310.095C390.347 306.862 388.514 302.428 388.514 296.795C388.514 291.162 390.33 286.728 393.964 283.495C397.597 280.228 402.58 278.595 408.914 278.595C413.747 278.595 417.897 279.495 421.364 281.295L421.464 289.895H421.064C419.364 283.762 415.48 280.695 409.414 280.695C405.48 280.695 402.364 282.128 400.064 284.995C397.797 287.828 396.664 291.712 396.664 296.645C396.664 301.578 397.747 305.495 399.914 308.395C402.114 311.295 405.08 312.795 408.814 312.895C412.68 312.895 415.63 311.928 417.664 309.995C419.73 307.995 421.164 304.562 421.964 299.695H422.364L422.864 308.295C420.164 312.762 415.597 314.978 409.164 314.945Z" fill="#EE1D52" />
      <path d="M445.727 281.345V310.695C445.761 311.562 446.077 312.295 446.677 312.895C447.311 313.495 448.061 313.795 448.927 313.795H449.527L449.577 314.295H434.377V313.795H435.027C435.861 313.795 436.577 313.495 437.177 312.895C437.811 312.295 438.161 311.578 438.227 310.745V281.345H431.477C429.944 281.378 428.727 281.862 427.827 282.795C426.927 283.728 426.477 284.945 426.477 286.445V287.045H425.977V278.345C426.444 278.545 427.277 278.745 428.477 278.945C429.711 279.145 430.844 279.245 431.877 279.245H452.027C453.661 279.212 454.994 279.078 456.027 278.845C457.061 278.612 457.694 278.445 457.927 278.345V287.045H457.427V286.445C457.427 284.945 456.977 283.728 456.077 282.795C455.177 281.862 453.961 281.378 452.427 281.345H445.727Z" fill="#EE1D52" />
      <path d="M461.078 309.645C461.078 307.245 461.595 305.195 462.628 303.495H463.078C463.045 303.762 463.028 304.028 463.028 304.295C463.028 306.595 463.845 308.612 465.478 310.345C467.145 312.045 469.411 312.895 472.278 312.895C474.511 312.895 476.245 312.362 477.478 311.295C478.745 310.228 479.378 308.878 479.378 307.245C479.378 305.278 478.045 303.562 475.378 302.095L466.678 296.345C464.945 295.345 463.695 294.145 462.928 292.745C462.195 291.312 461.828 289.862 461.828 288.395C461.828 285.262 462.811 282.845 464.778 281.145C466.778 279.445 469.328 278.595 472.428 278.595C474.261 278.595 476.528 278.762 479.228 279.095H482.378L481.728 286.445H481.228C481.228 284.712 480.578 283.328 479.278 282.295C478.011 281.228 476.311 280.695 474.178 280.695C471.578 280.695 469.695 281.495 468.528 283.095C467.928 283.862 467.628 284.728 467.628 285.695C467.628 287.295 468.795 288.778 471.128 290.145L480.678 296.345C483.678 298.078 485.178 300.628 485.178 303.995C485.178 307.562 483.961 310.295 481.528 312.195C479.128 314.062 475.928 314.995 471.928 314.995C469.661 314.995 467.561 314.728 465.628 314.195C463.728 313.628 462.328 312.878 461.428 311.945C461.195 311.312 461.078 310.545 461.078 309.645Z" fill="#EE1D52" />
      <path d="M217.15 380.795C218.017 380.795 218.767 380.495 219.4 379.895C220.033 379.295 220.367 378.562 220.4 377.695V364.945H204.65V377.795C204.65 381.795 203.633 384.978 201.6 387.345C200 389.212 197.7 390.145 194.7 390.145C193.733 390.145 192.683 390.028 191.55 389.795L191.45 389.295C193.917 388.262 195.5 386.728 196.2 384.695C196.833 382.962 197.15 380.662 197.15 377.795V349.895C197.117 349.028 196.783 348.295 196.15 347.695C195.55 347.095 194.817 346.795 193.95 346.795H193.3V346.295H208.5V346.795H207.85C206.65 346.795 205.75 347.295 205.15 348.295C204.85 348.762 204.683 349.295 204.65 349.895V362.795H220.4V350.795C220.4 346.895 221.617 343.795 224.05 341.495C225.983 339.595 228.417 338.645 231.35 338.645C232.017 338.645 232.717 338.695 233.45 338.795L233.55 339.295C231.117 340.162 229.533 341.695 228.8 343.895C228.2 345.695 227.883 347.995 227.85 350.795V377.645C227.883 378.845 228.417 379.745 229.45 380.345C229.95 380.645 230.5 380.795 231.1 380.795H231.7V381.295H216.55V380.795H217.15Z" fill="#EE1D52" />
      <path d="M236.426 380.795C237.292 380.795 238.026 380.495 238.626 379.895C239.259 379.262 239.592 378.512 239.626 377.645V349.795C239.526 348.628 238.976 347.762 237.976 347.195C237.476 346.928 236.959 346.795 236.426 346.795H235.776V346.295H254.926C255.959 346.295 257.092 346.195 258.326 345.995C259.559 345.795 260.426 345.595 260.926 345.395V354.145H260.426V353.545C260.426 352.045 259.976 350.845 259.076 349.945C258.209 349.012 257.026 348.512 255.526 348.445H247.126V362.995H253.726C254.959 362.962 255.976 362.545 256.776 361.745C257.576 360.912 257.976 359.895 257.976 358.695V358.245H258.476V369.795H257.976V369.395C257.976 367.728 257.309 366.495 255.976 365.695C255.309 365.328 254.576 365.128 253.776 365.095H247.126V379.145H253.676C256.109 379.145 258.142 378.445 259.776 377.045C261.442 375.645 262.676 373.662 263.476 371.095H263.976L261.676 381.295H235.776V380.795H236.426Z" fill="#EE1D52" />
      <path d="M280.923 348.495H278.773C278.707 348.495 278.657 348.495 278.623 348.495V377.645C278.657 378.878 279.19 379.795 280.223 380.395C280.723 380.662 281.257 380.795 281.823 380.795H282.473V381.295H267.273V380.795H267.923C269.123 380.795 270.04 380.278 270.673 379.245C270.94 378.778 271.09 378.262 271.123 377.695V349.945C271.09 349.078 270.757 348.345 270.123 347.745C269.523 347.112 268.79 346.795 267.923 346.795H267.273V346.295H284.423C287.657 346.295 290.39 346.995 292.623 348.395C293.757 349.095 294.657 350.078 295.323 351.345C295.99 352.578 296.323 353.995 296.323 355.595C296.323 357.162 296.04 358.612 295.473 359.945C294.94 361.278 294.023 362.445 292.723 363.445C291.457 364.445 289.923 365.045 288.123 365.245C290.057 365.878 291.757 367.345 293.223 369.645C296.823 375.412 299.49 378.845 301.223 379.945C302.09 380.478 303.173 380.762 304.473 380.795V381.295H299.573C296.74 381.295 294.373 380.912 292.473 380.145C290.573 379.345 289.023 377.995 287.823 376.095C287.223 375.128 286.457 373.678 285.523 371.745C284.59 369.778 283.973 368.378 283.673 367.545C282.773 365.545 281.64 364.428 280.273 364.195V363.695H281.823C283.323 363.695 284.64 363.245 285.773 362.345C286.94 361.445 287.723 359.978 288.123 357.945C288.257 357.245 288.323 356.695 288.323 356.295C288.323 353.562 287.773 351.595 286.673 350.395C285.573 349.162 284.157 348.528 282.423 348.495C282.09 348.495 281.59 348.495 280.923 348.495Z" fill="#EE1D52" />
      <path d="M304.492 380.795C305.359 380.795 306.092 380.495 306.692 379.895C307.326 379.262 307.659 378.512 307.692 377.645V349.795C307.592 348.628 307.042 347.762 306.042 347.195C305.542 346.928 305.026 346.795 304.492 346.795H303.842V346.295H322.992C324.026 346.295 325.159 346.195 326.392 345.995C327.626 345.795 328.492 345.595 328.992 345.395V354.145H328.492V353.545C328.492 352.045 328.042 350.845 327.142 349.945C326.276 349.012 325.092 348.512 323.592 348.445H315.192V362.995H321.792C323.026 362.962 324.042 362.545 324.842 361.745C325.642 360.912 326.042 359.895 326.042 358.695V358.245H326.542V369.795H326.042V369.395C326.042 367.728 325.376 366.495 324.042 365.695C323.376 365.328 322.642 365.128 321.842 365.095H315.192V379.145H321.742C324.176 379.145 326.209 378.445 327.842 377.045C329.509 375.645 330.742 373.662 331.542 371.095H332.042L329.742 381.295H303.842V380.795H304.492Z" fill="#EE1D52" />
      <path d="M344.535 357.945C342.902 356.378 342.085 354.695 342.085 352.895C342.085 351.495 342.535 350.278 343.435 349.245C345.135 347.245 347.518 346.245 350.585 346.245H374.135C375.602 346.212 376.885 346.095 377.985 345.895C379.085 345.662 379.785 345.478 380.085 345.345V354.045H379.585V353.445C379.585 351.945 379.135 350.728 378.235 349.795C377.335 348.862 376.118 348.378 374.585 348.345H367.835V377.695C367.902 378.895 368.452 379.795 369.485 380.395C369.952 380.662 370.468 380.795 371.035 380.795H371.685V381.295H356.485V380.795H357.135C358.002 380.795 358.735 380.495 359.335 379.895C359.968 379.295 360.302 378.578 360.335 377.745V348.345H350.585C349.218 348.345 348.019 348.595 346.985 349.095C344.885 350.095 343.835 351.662 343.835 353.795C343.835 355.062 344.235 356.362 345.035 357.695L344.535 357.945Z" fill="#EE1D52" />
      <path d="M402.209 345.595C408.376 345.595 413.276 347.228 416.909 350.495C420.542 353.762 422.359 358.195 422.359 363.795C422.359 369.395 420.542 373.828 416.909 377.095C413.276 380.362 408.376 381.995 402.209 381.995C396.042 381.995 391.142 380.362 387.509 377.095C383.876 373.828 382.059 369.395 382.059 363.795C382.059 360.095 382.876 356.878 384.509 354.145C386.176 351.378 388.526 349.262 391.559 347.795C394.592 346.328 398.142 345.595 402.209 345.595ZM393.459 375.595C395.626 378.462 398.542 379.895 402.209 379.895C405.876 379.895 408.776 378.462 410.909 375.595C413.076 372.695 414.159 368.762 414.159 363.795C414.159 360.528 413.676 357.678 412.709 355.245C411.742 352.812 410.359 350.945 408.559 349.645C406.759 348.345 404.642 347.695 402.209 347.695C398.542 347.695 395.626 349.145 393.459 352.045C391.326 354.912 390.259 358.828 390.259 363.795C390.259 368.762 391.326 372.695 393.459 375.595Z" fill="#EE1D52" />
      <path d="M443.428 346.295C449.328 346.295 453.994 347.862 457.428 350.995C460.861 354.128 462.578 358.395 462.578 363.795C462.578 369.195 460.861 373.462 457.428 376.595C453.994 379.728 449.328 381.295 443.428 381.295H425.278V380.795H425.928C426.794 380.795 427.528 380.495 428.128 379.895C428.761 379.262 429.094 378.512 429.128 377.645V349.645C429.028 348.845 428.678 348.178 428.078 347.645C427.478 347.078 426.761 346.795 425.928 346.795H425.278V346.295H443.428ZM442.778 379.195C445.178 379.195 447.244 378.578 448.978 377.345C450.744 376.078 452.094 374.295 453.028 371.995C453.961 369.662 454.428 366.928 454.428 363.795C454.428 359.062 453.378 355.312 451.278 352.545C449.211 349.778 446.378 348.395 442.778 348.395H436.628V379.195H442.778Z" fill="#EE1D52" />
      <path d="M499.873 380.795H500.323V381.295H484.373V380.795H484.823C485.556 380.795 486.089 380.578 486.423 380.145C486.789 379.678 486.973 379.245 486.973 378.845C486.973 378.445 486.889 378.045 486.723 377.645L484.273 371.495H472.573L469.973 377.645C469.806 378.078 469.723 378.495 469.723 378.895C469.723 379.262 469.889 379.678 470.223 380.145C470.589 380.578 471.156 380.795 471.923 380.795H472.323V381.295H461.623V380.795H462.073C462.839 380.795 463.606 380.562 464.373 380.095C465.139 379.628 465.773 378.928 466.273 377.995L477.823 351.845C479.389 348.545 480.223 346.362 480.323 345.295H480.773L495.623 377.895C496.123 378.862 496.756 379.595 497.523 380.095C498.289 380.562 499.073 380.795 499.873 380.795ZM473.423 369.395H483.423L478.573 357.095L473.423 369.395Z" fill="#EE1D52" />
      <path d="M530.191 346.795H529.491C528.491 346.795 527.541 347.078 526.641 347.645C525.741 348.212 525.025 348.895 524.491 349.695L514.641 365.395V377.645C514.641 378.512 514.958 379.262 515.591 379.895C516.225 380.495 516.975 380.795 517.841 380.795H518.441L518.491 381.295H503.291V380.795H503.941C504.808 380.795 505.541 380.495 506.141 379.895C506.775 379.295 507.108 378.562 507.141 377.695V365.345L497.591 349.645C497.091 348.845 496.375 348.178 495.441 347.645C494.541 347.078 493.608 346.795 492.641 346.795H491.941V346.295H508.491V346.795H507.841C507.108 346.795 506.541 347.128 506.141 347.795C505.941 348.162 505.841 348.528 505.841 348.895C505.841 349.228 505.925 349.562 506.091 349.895L513.241 362.895L520.641 349.895C520.841 349.562 520.941 349.228 520.941 348.895C520.941 348.528 520.825 348.178 520.591 347.845C520.191 347.145 519.625 346.795 518.891 346.795H518.291V346.295H530.191V346.795Z" fill="#EE1D52" />
      <path d="M538.199 362.345L536.399 370.995H534.099L532.349 362.345L531.399 346.195H539.099L538.199 362.345ZM537.749 380.745C537.049 381.445 536.199 381.795 535.199 381.795C534.199 381.795 533.349 381.445 532.649 380.745C531.949 380.045 531.599 379.195 531.599 378.195C531.599 377.195 531.949 376.345 532.649 375.645C533.349 374.912 534.199 374.545 535.199 374.545C536.199 374.545 537.049 374.912 537.749 375.645C538.482 376.345 538.849 377.195 538.849 378.195C538.849 379.195 538.482 380.045 537.749 380.745Z" fill="#EE1D52" />
    </g>
    <g id="btn">
      <rect id="Rectangle 8" x="189.35" y="437.61" width="270.65" height="66.3949" rx="15" fill="#EE1D52" />
      <path id="Shop now" d="M238.995 471.288C238.195 472.568 237.795 473.878 237.795 475.218C237.795 476.678 238.325 478.008 239.385 479.208C239.965 479.888 240.695 480.418 241.575 480.798C242.475 481.178 243.455 481.368 244.515 481.368C245.575 481.368 246.525 481.168 247.365 480.768C249.045 479.948 249.885 478.608 249.885 476.748C249.885 476.048 249.645 475.308 249.165 474.528C248.705 473.748 248.005 473.048 247.065 472.428L241.965 469.008C239.985 467.768 238.995 466.168 238.995 464.208C238.995 464.008 239.005 463.808 239.025 463.608C239.145 462.068 239.755 460.818 240.855 459.858C241.975 458.878 243.465 458.388 245.325 458.388C246.465 458.388 247.845 458.488 249.465 458.688H251.325L250.935 463.098H250.665C250.645 462.058 250.245 461.228 249.465 460.608C248.685 459.968 247.655 459.648 246.375 459.648C244.815 459.648 243.685 460.118 242.985 461.058C242.645 461.538 242.475 462.058 242.475 462.618C242.475 463.178 242.645 463.658 242.985 464.058C243.325 464.438 243.865 464.858 244.605 465.318L250.215 468.978C251.355 469.718 252.245 470.588 252.885 471.588C253.645 472.768 254.025 473.978 254.025 475.218C254.025 476.018 253.855 476.868 253.515 477.768C253.195 478.648 252.655 479.468 251.895 480.228C251.155 480.988 250.195 481.608 249.015 482.088C247.835 482.568 246.525 482.808 245.085 482.808C243.665 482.808 242.375 482.558 241.215 482.058C239.075 481.158 237.715 479.588 237.135 477.348C237.015 476.868 236.955 476.368 236.955 475.848C236.955 474.168 237.545 472.578 238.725 471.078L238.995 471.288ZM270.736 479.508C271.256 479.508 271.656 479.378 271.936 479.118C272.396 478.658 272.636 478.168 272.656 477.648V469.998H262.936V477.618C262.936 478.138 263.126 478.588 263.506 478.968C263.886 479.328 264.336 479.508 264.856 479.508H265.216L265.246 479.808H256.126V479.508H256.516C257.036 479.508 257.476 479.328 257.836 478.968C258.216 478.588 258.416 478.138 258.436 477.618V460.968C258.416 460.448 258.216 460.008 257.836 459.648C257.476 459.288 257.036 459.108 256.516 459.108H256.126V458.808H265.246L265.216 459.108H264.856C264.336 459.108 263.886 459.288 263.506 459.648C263.126 460.008 262.936 460.448 262.936 460.968V468.708H272.656V460.968C272.636 460.448 272.436 460.008 272.056 459.648C271.696 459.288 271.256 459.108 270.736 459.108H270.346V458.808H279.466V459.108H279.076C278.556 459.108 278.106 459.298 277.726 459.678C277.346 460.038 277.156 460.478 277.156 460.998V477.618C277.156 478.138 277.346 478.588 277.726 478.968C278.106 479.328 278.556 479.508 279.076 479.508H279.466V479.808H270.346V479.508H270.736ZM293.232 458.388C296.932 458.388 299.872 459.368 302.052 461.328C304.232 463.288 305.322 465.948 305.322 469.308C305.322 472.668 304.232 475.328 302.052 477.288C299.872 479.248 296.932 480.228 293.232 480.228C289.532 480.228 286.592 479.248 284.412 477.288C282.232 475.328 281.142 472.668 281.142 469.308C281.142 467.088 281.632 465.158 282.612 463.518C283.612 461.858 285.022 460.588 286.842 459.708C288.662 458.828 290.792 458.388 293.232 458.388ZM287.982 476.388C289.282 478.108 291.032 478.968 293.232 478.968C295.432 478.968 297.172 478.108 298.452 476.388C299.752 474.648 300.402 472.288 300.402 469.308C300.402 467.348 300.112 465.638 299.532 464.178C298.952 462.718 298.122 461.598 297.042 460.818C295.962 460.038 294.692 459.648 293.232 459.648C291.032 459.648 289.282 460.518 287.982 462.258C286.702 463.978 286.062 466.328 286.062 469.308C286.062 472.288 286.702 474.648 287.982 476.388ZM324.084 467.418C323.404 468.978 322.144 470.058 320.304 470.658C319.764 470.838 319.264 470.928 318.804 470.928C317.384 470.928 316.114 470.558 314.994 469.818V469.518C316.494 469.558 317.704 469.068 318.624 468.048C319.444 467.168 319.854 466.018 319.854 464.598C319.854 462.418 319.094 461.008 317.574 460.368C317.094 460.168 316.564 460.068 315.984 460.068H313.974V477.618C313.974 478.138 314.164 478.588 314.544 478.968C314.924 479.328 315.374 479.508 315.894 479.508H316.284V479.808H307.164V479.508H307.554C308.074 479.508 308.514 479.328 308.874 478.968C309.254 478.588 309.454 478.138 309.474 477.618V460.848C309.394 460.168 309.054 459.668 308.454 459.348C308.174 459.188 307.874 459.108 307.554 459.108H307.164V458.808H317.184C320.804 458.808 323.124 459.958 324.144 462.258C324.464 463.018 324.624 463.868 324.624 464.808C324.624 465.728 324.444 466.598 324.084 467.418ZM357.482 459.108C356.982 459.108 356.552 459.288 356.192 459.648C355.832 459.988 355.642 460.408 355.622 460.908V476.388C355.622 477.728 355.712 478.858 355.892 479.778L355.982 480.228H355.712L340.562 465.798V477.708C340.562 478.208 340.742 478.638 341.102 478.998C341.462 479.338 341.892 479.508 342.392 479.508H342.962V479.808H333.872V479.508H334.412C334.932 479.508 335.372 479.338 335.732 478.998C336.092 478.638 336.272 478.198 336.272 477.678V462.108C336.272 460.788 336.182 459.688 336.002 458.808L335.942 458.358H336.212L351.362 472.788V460.938C351.342 460.418 351.152 459.988 350.792 459.648C350.432 459.288 350.002 459.108 349.502 459.108H348.962V458.808H358.052V459.108H357.482ZM371.631 458.388C375.331 458.388 378.271 459.368 380.451 461.328C382.631 463.288 383.721 465.948 383.721 469.308C383.721 472.668 382.631 475.328 380.451 477.288C378.271 479.248 375.331 480.228 371.631 480.228C367.931 480.228 364.991 479.248 362.811 477.288C360.631 475.328 359.541 472.668 359.541 469.308C359.541 467.088 360.031 465.158 361.011 463.518C362.011 461.858 363.421 460.588 365.241 459.708C367.061 458.828 369.191 458.388 371.631 458.388ZM366.381 476.388C367.681 478.108 369.431 478.968 371.631 478.968C373.831 478.968 375.571 478.108 376.851 476.388C378.151 474.648 378.801 472.288 378.801 469.308C378.801 467.348 378.511 465.638 377.931 464.178C377.351 462.718 376.521 461.598 375.441 460.818C374.361 460.038 373.091 459.648 371.631 459.648C369.431 459.648 367.681 460.518 366.381 462.258C365.101 463.978 364.461 466.328 364.461 469.308C364.461 472.288 365.101 474.648 366.381 476.388ZM414.066 459.108H413.796C413.296 459.108 412.786 459.258 412.266 459.558C411.766 459.858 411.406 460.288 411.186 460.848L406.146 477.018C405.806 478.118 405.636 479.138 405.636 480.078C405.636 480.178 405.636 480.268 405.636 480.348H405.336L398.796 465.858L394.056 477.018C393.596 478.178 393.356 479.288 393.336 480.348H393.036L385.866 460.848C385.606 460.268 385.236 459.838 384.756 459.558C384.276 459.258 383.786 459.108 383.286 459.108H383.046V458.808H392.196V459.108H391.926C391.506 459.108 391.186 459.248 390.966 459.528C390.766 459.788 390.666 460.038 390.666 460.278C390.666 460.518 390.706 460.748 390.786 460.968L394.476 471.408L399.906 458.328L400.176 458.358L406.146 471.528L409.146 460.968C409.206 460.748 409.236 460.518 409.236 460.278C409.236 460.038 409.136 459.788 408.936 459.528C408.756 459.248 408.446 459.108 408.006 459.108H407.736V458.808H414.066V459.108Z" fill="white" />
    </g>
  </g>
  <defs>
    <pattern id="pattern0" patternContentUnits="objectBoundingBox" width="1" height="1">
      <use xlink:href="#image0_1_2" transform="translate(0 -0.0656934) scale(0.00285714 0.00323253)" />
    </pattern>
    <pattern id="pattern1" patternContentUnits="objectBoundingBox" width="1" height="1">
      <use xlink:href="#image1_1_2" transform="translate(0 -0.0656934) scale(0.00285714 0.00323253)" />
    </pattern>
    <pattern id="pattern2" patternContentUnits="objectBoundingBox" width="1" height="1">
      <use xlink:href="#image2_1_2" transform="translate(0 -0.0656934) scale(0.00285714 0.00323253)" />
    </pattern>
    <pattern id="pattern3" patternContentUnits="objectBoundingBox" width="1" height="1">
      <use xlink:href="#image3_1_2" transform="translate(0.0580646) scale(0.00252535 0.00285714)" />
    </pattern>
    <pattern id="pattern4" patternContentUnits="objectBoundingBox" width="1" height="1">
      <use xlink:href="#image4_1_2" transform="translate(0.0580645) scale(0.00252535 0.00285714)" />
    </pattern>
    <radialGradient id="paint0_radial_1_2" cx="0" cy="0" r="1" gradientUnits="userSpaceOnUse" gradientTransform="translate(1357.62 328.733) rotate(89.9999) scale(12 70.1795)">
      <stop stop-color="#C4C4C4" />
      <stop offset="0.692708" stop-color="#C4C4C4" stop-opacity="0" />
    </radialGradient>
    <radialGradient id="paint1_radial_1_2" cx="0" cy="0" r="1" gradientUnits="userSpaceOnUse" gradientTransform="translate(1685.93 328.733) rotate(89.9999) scale(12 70.1795)">
      <stop stop-color="#C4C4C4" />
      <stop offset="0.692708" stop-color="#C4C4C4" stop-opacity="0" />
    </radialGradient>
    <radialGradient id="paint2_radial_1_2" cx="0" cy="0" r="1" gradientUnits="userSpaceOnUse" gradientTransform="translate(1357.62 535) rotate(89.9999) scale(12 70.1795)">
      <stop stop-color="#C4C4C4" />
      <stop offset="0.692708" stop-color="#C4C4C4" stop-opacity="0" />
    </radialGradient>
    <radialGradient id="paint3_radial_1_2" cx="0" cy="0" r="1" gradientUnits="userSpaceOnUse" gradientTransform="translate(1192.85 226.21) rotate(89.9999) scale(12 70.1795)">
      <stop stop-color="#C4C4C4" />
      <stop offset="0.692708" stop-color="#C4C4C4" stop-opacity="0" />
    </radialGradient>
    <radialGradient id="paint4_radial_1_2" cx="0" cy="0" r="1" gradientUnits="userSpaceOnUse" gradientTransform="translate(1521.16 428.815) rotate(89.9999) scale(12 70.1795)">
      <stop stop-color="#C4C4C4" />
      <stop offset="0.692708" stop-color="#C4C4C4" stop-opacity="0" />
    </radialGradient>



    <image id="image0_1_2" data-name="3.jpg" width="350" height="350" xlink:href="https://innovatik.shop/wp-content/uploads/2022/07/1.jpeg" />
    <image id="image1_1_2" data-name="1.jpg" width="350" height="350" xlink:href="https://innovatik.shop/wp-content/uploads/2022/07/2.jpeg" />
    <image id="image2_1_2" data-name="5.jpg" width="350" height="350" xlink:href="https://innovatik.shop/wp-content/uploads/2022/07/3.jpeg" />
    <image id="image3_1_2" data-name="4.jpg" width="350" height="350" xlink:href="https://innovatik.shop/wp-content/uploads/2022/07/4.jpeg" />
    <image id="image4_1_2" data-name="2.jpg" width="350" height="350" xlink:href="https://innovatik.shop/wp-content/uploads/2022/07/5.jpg" />

    <style>

      #hs1,
      #hs2,
      #hs3,
      #hs4,
      #hs5 {
        transform-box: fill-box;
        transform-origin: center bottom;
        animation: float 3s ease-in-out infinite alternate;
      }

      #hs2 {
        animation-delay: 0.15s;
      }

      #hs3 {
        animation-delay: 0.3s;
      }
      #hs4 {
        animation-delay: 0.45s;
      }
      #hs5 {
        animation-delay: 0.6s;
      }

      @keyframes float {
        0%,
        100% {
          transform: translate(0px, 0px);
        }

        50% {
          transform: translate(0px, -10px);
        }
      }

      #hs1-shadow,
      #hs2-shadow,
      #hs3-shadow,
      #hs4-shadow,
      #hs5-shadow {
        transform-box: fill-box;
        transform-origin: center bottom;
        animation: shadowInOut 3s ease-in-out infinite alternate;
      }

      #hs2-shadow {
        animation-delay: 0.15s;
      }

      #hs3-shadow {
        animation-delay: 0.3s;
      }
      #hs4-shadow {
        animation-delay: 0.45s;
      }
      #hs5-shadow {
        animation-delay: 0.6s;
      }

      @keyframes shadowInOut {
        0%,
        100% {
          transform: scaleX(1);
        }

        50% {
          transform: scaleX(0.6);
        }
      }

      #text-sec {
        animation: bannerHeaderIn 6s ease-out infinite;
      }

      @keyframes bannerHeaderIn {
        0% {
          opacity: 0;
          transform: translate(50px, 0px);
        }

        16% {
          transform: translate(0px, 0px);
          opacity: 1;
        }

        84% {
          transform: translate(0px, 0px);
          opacity: 1;
        }

        100% {
          opacity: 0;
          transform: translate(-50px, 0px);
        }
      }

      #btn {
        animation: btnIn 6s ease-out infinite;
      }

      @keyframes btnIn {
        0% {
          opacity: 0;
          transform: translate(-50px, 0px);
        }

        16% {
          transform: translate(0px, 0px);
          opacity: 1;
        }

        84% {
          transform: translate(0px, 0px);
          opacity: 1;
        }

        100% {
          opacity: 0;
          transform: translate(50px, 0px);
        }
      }
    </style>
  </defs>
</svg>