<svg width="100%" min-height="0" viewBox="0 0 1920 570" fill="none"
  xmlns="http://www.w3.org/2000/svg"
  xmlns:xlink="http://www.w3.org/1999/xlink">
  <g id="Banner 2">
    <circle id="outer-border-shadow" cx="1439.22" cy="284.609" r="124.282" fill="url(#paint0_radial_3_36)" />
    <circle id="outer-border" cx="1439.22" cy="284.609" r="102.37" fill="white" stroke="#69C9D0" stroke-width="2" />
    <path id="s44" d="M1589.57 514.515L1538.97 545.72L1485.01 514.492V453.375L1538.98 422.811L1589.57 453.352V514.515Z" fill="url(#pattern0)" stroke="#69C9D0" stroke-width="2.5" />
    <path id="s33" d="M1648.18 415.075L1597.58 446.474L1543.62 415.052V353.542L1597.58 322.788L1648.18 353.519V415.075Z" fill="url(#pattern1)" stroke="#69C9D0" stroke-width="2.5" />
    <path id="s22" d="M1704.44 312.705L1653.85 344.104L1599.88 312.682V251.172L1653.85 220.418L1704.44 251.149V312.705Z" fill="url(#pattern2)" stroke="#69C9D0" stroke-width="2.5" />
    <path id="s11" d="M1647.4 212.876L1596.8 244.081L1542.84 212.853V151.735L1596.8 121.171L1647.4 151.712V212.876Z" fill="url(#pattern3)" stroke="#69C9D0" stroke-width="2.5" />
    <path id="s4" d="M1288.87 55.4846L1339.46 24.2795L1393.43 55.5078V116.625L1339.46 147.189L1288.87 116.648V55.4846Z" fill="url(#pattern4)" stroke="#69C9D0" stroke-width="2.5" />
    <path id="s3" d="M1231.82 156.488L1282.42 125.089L1336.38 156.511V218.021L1282.42 248.775L1231.82 218.045V156.488Z" fill="url(#pattern5)" stroke="#69C9D0" stroke-width="2.5" />
    <path id="s2" d="M1175.56 260.225L1226.15 229.02L1280.12 260.248V321.365L1226.15 351.929L1175.56 321.388V260.225Z" fill="url(#pattern6)" stroke="#69C9D0" stroke-width="2.5" />
    <path id="s1" d="M1234.17 361.228L1284.76 329.829L1338.72 361.251V422.761L1284.76 453.515L1234.17 422.785V361.228Z" fill="url(#pattern7)" stroke="#69C9D0" stroke-width="2.5" />
    <g id="btn">
      <rect id="Rectangle 8" x="94.675" y="405.985" width="303.9" height="66.3949" rx="15" fill="#69C9D0" />
      <path id="Shop now" d="M136.507 439.742C135.574 441.236 135.107 442.764 135.107 444.327C135.107 446.031 135.725 447.582 136.962 448.982C137.639 449.776 138.49 450.394 139.517 450.837C140.567 451.281 141.71 451.502 142.947 451.502C144.184 451.502 145.292 451.269 146.272 450.802C148.232 449.846 149.212 448.282 149.212 446.112C149.212 445.296 148.932 444.432 148.372 443.522C147.835 442.612 147.019 441.796 145.922 441.072L139.972 437.082C137.662 435.636 136.507 433.769 136.507 431.482C136.507 431.249 136.519 431.016 136.542 430.782C136.682 428.986 137.394 427.527 138.677 426.407C139.984 425.264 141.722 424.692 143.892 424.692C145.222 424.692 146.832 424.809 148.722 425.042H150.892L150.437 430.187H150.122C150.099 428.974 149.632 428.006 148.722 427.282C147.812 426.536 146.61 426.162 145.117 426.162C143.297 426.162 141.979 426.711 141.162 427.807C140.765 428.367 140.567 428.974 140.567 429.627C140.567 430.281 140.765 430.841 141.162 431.307C141.559 431.751 142.189 432.241 143.052 432.777L149.597 437.047C150.927 437.911 151.965 438.926 152.712 440.092C153.599 441.469 154.042 442.881 154.042 444.327C154.042 445.261 153.844 446.252 153.447 447.302C153.074 448.329 152.444 449.286 151.557 450.172C150.694 451.059 149.574 451.782 148.197 452.342C146.82 452.902 145.292 453.182 143.612 453.182C141.955 453.182 140.45 452.891 139.097 452.307C136.6 451.257 135.014 449.426 134.337 446.812C134.197 446.252 134.127 445.669 134.127 445.062C134.127 443.102 134.815 441.247 136.192 439.497L136.507 439.742ZM173.123 449.332C173.73 449.332 174.255 449.122 174.698 448.702C175.142 448.282 175.375 447.769 175.398 447.162V438.237H164.373V447.232C164.373 450.032 163.662 452.261 162.238 453.917C161.118 455.224 159.508 455.877 157.408 455.877C156.732 455.877 155.997 455.796 155.203 455.632L155.133 455.282C156.86 454.559 157.968 453.486 158.458 452.062C158.902 450.849 159.123 449.239 159.123 447.232V427.702C159.1 427.096 158.867 426.582 158.423 426.162C158.003 425.742 157.49 425.532 156.883 425.532H156.428V425.182H167.068V425.532H166.613C165.773 425.532 165.143 425.882 164.723 426.582C164.513 426.909 164.397 427.282 164.373 427.702V436.732H175.398V428.332C175.398 425.602 176.25 423.432 177.953 421.822C179.307 420.492 181.01 419.827 183.063 419.827C183.53 419.827 184.02 419.862 184.533 419.932L184.603 420.282C182.9 420.889 181.792 421.962 181.278 423.502C180.858 424.762 180.637 426.372 180.613 428.332V447.127C180.637 447.967 181.01 448.597 181.733 449.017C182.083 449.227 182.468 449.332 182.888 449.332H183.308V449.682H172.703V449.332H173.123ZM195.901 434.037C195.481 433.151 195.271 432.311 195.271 431.517C195.271 430.701 195.376 429.954 195.586 429.277C195.796 428.577 196.146 427.901 196.636 427.247C197.126 426.571 197.815 426.011 198.701 425.567C199.915 424.937 201.373 424.622 203.076 424.622C205.316 424.622 207.44 425.194 209.446 426.337C212.083 427.831 213.915 429.896 214.941 432.532C215.525 433.979 215.816 435.531 215.816 437.187C215.816 441.084 214.405 444.222 211.581 446.602C208.781 448.982 205.118 450.172 200.591 450.172C196.088 450.172 192.413 448.982 189.566 446.602C186.743 444.222 185.331 441.096 185.331 437.222C185.331 434.329 186.148 431.821 187.781 429.697C189.438 427.551 191.666 426.092 194.466 425.322L194.676 425.637C193.486 426.641 192.588 428.111 191.981 430.047C191.375 431.984 191.071 434.072 191.071 436.312C191.071 440.092 191.946 443.102 193.696 445.342C195.446 447.582 197.733 448.702 200.556 448.702C203.403 448.702 205.69 447.652 207.416 445.552C209.166 443.429 210.041 440.629 210.041 437.152C210.041 435.052 209.715 433.162 209.061 431.482C208.431 429.779 207.51 428.472 206.296 427.562C205.083 426.629 203.73 426.162 202.236 426.162C200.58 426.162 199.238 426.594 198.211 427.457C196.765 428.694 196.041 430.269 196.041 432.182C196.041 432.789 196.123 433.407 196.286 434.037H195.901ZM227.54 436.382C227.937 437.316 228.754 437.782 229.99 437.782C231.39 437.782 232.51 437.082 233.35 435.682C233.934 434.726 234.225 433.512 234.225 432.042C234.225 429.872 233.654 428.286 232.51 427.282C231.647 426.536 230.55 426.162 229.22 426.162C228.917 426.162 228.602 426.186 228.275 426.232L225.93 426.582V447.127C225.93 447.757 226.152 448.282 226.595 448.702C227.039 449.122 227.564 449.332 228.17 449.332H228.625V449.682H217.985V449.332H218.44C219.047 449.332 219.56 449.122 219.98 448.702C220.424 448.282 220.657 447.757 220.68 447.127V428.472C220.657 427.866 220.47 427.387 220.12 427.037C219.794 426.687 219.304 426.512 218.65 426.512C218.487 426.512 218.277 426.524 218.02 426.547L217.95 426.232C219.934 426.069 222.01 425.801 224.18 425.427C226.374 425.031 227.809 424.786 228.485 424.692C229.185 424.599 229.885 424.552 230.585 424.552C231.309 424.552 232.172 424.634 233.175 424.797C234.179 424.937 235.205 425.276 236.255 425.812C237.305 426.326 238.157 427.096 238.81 428.122C239.487 429.242 239.825 430.514 239.825 431.937C239.825 433.337 239.569 434.574 239.055 435.647C238.075 437.701 236.395 439.007 234.015 439.567C233.432 439.707 232.872 439.777 232.335 439.777C231.822 439.777 231.332 439.731 230.865 439.637C229.909 439.497 229.104 439.171 228.45 438.657C227.797 438.144 227.389 437.432 227.225 436.522L227.54 436.382ZM282.528 453.322C282.925 453.556 283.368 453.766 283.858 453.952C284.348 454.162 284.815 454.302 285.258 454.372C285.725 454.466 286.226 454.512 286.763 454.512C287.323 454.512 287.895 454.442 288.478 454.302L288.618 454.652C287.311 455.282 285.993 455.597 284.663 455.597C281.606 455.597 278.491 453.906 275.318 450.522L258.728 432.917V447.232C258.728 447.816 258.938 448.317 259.358 448.737C259.778 449.134 260.28 449.332 260.863 449.332H261.528V449.682H250.923V449.332H251.553C252.16 449.332 252.673 449.134 253.093 448.737C253.513 448.317 253.723 447.804 253.723 447.197V427.562C252.58 426.256 251.716 425.346 251.133 424.832C250.55 424.296 250.036 423.852 249.593 423.502C249.126 423.152 248.683 422.861 248.263 422.627C247.283 422.067 246.501 421.741 245.918 421.647C245.311 421.554 244.751 421.507 244.238 421.507C243.701 421.507 243.13 421.612 242.523 421.822L242.383 421.472C243.666 420.726 244.985 420.352 246.338 420.352C249.278 420.352 252.393 422.102 255.683 425.602L271.328 442.227V427.667C271.305 427.061 271.083 426.559 270.663 426.162C270.243 425.742 269.741 425.532 269.158 425.532H268.528V425.182H279.133V425.532H278.468C277.885 425.532 277.383 425.742 276.963 426.162C276.543 426.559 276.321 427.049 276.298 427.632V447.547L276.858 448.107C276.998 448.247 277.208 448.492 277.488 448.842C277.791 449.169 278.06 449.449 278.293 449.682C278.526 449.939 278.818 450.254 279.168 450.627C279.541 451.001 279.88 451.327 280.183 451.607C280.51 451.887 280.883 452.191 281.303 452.517C281.746 452.844 282.155 453.112 282.528 453.322ZM291.468 434.037C291.048 433.151 290.838 432.311 290.838 431.517C290.838 430.701 290.943 429.954 291.153 429.277C291.363 428.577 291.713 427.901 292.203 427.247C292.693 426.571 293.381 426.011 294.268 425.567C295.481 424.937 296.939 424.622 298.643 424.622C300.883 424.622 303.006 425.194 305.013 426.337C307.649 427.831 309.481 429.896 310.508 432.532C311.091 433.979 311.383 435.531 311.383 437.187C311.383 441.084 309.971 444.222 307.148 446.602C304.348 448.982 300.684 450.172 296.158 450.172C291.654 450.172 287.979 448.982 285.133 446.602C282.309 444.222 280.898 441.096 280.898 437.222C280.898 434.329 281.714 431.821 283.348 429.697C285.004 427.551 287.233 426.092 290.033 425.322L290.243 425.637C289.053 426.641 288.154 428.111 287.548 430.047C286.941 431.984 286.638 434.072 286.638 436.312C286.638 440.092 287.513 443.102 289.263 445.342C291.013 447.582 293.299 448.702 296.123 448.702C298.969 448.702 301.256 447.652 302.983 445.552C304.733 443.429 305.608 440.629 305.608 437.152C305.608 435.052 305.281 433.162 304.628 431.482C303.998 429.779 303.076 428.472 301.863 427.562C300.649 426.629 299.296 426.162 297.803 426.162C296.146 426.162 294.804 426.594 293.778 427.457C292.331 428.694 291.608 430.269 291.608 432.182C291.608 432.789 291.689 433.407 291.853 434.037H291.468ZM349.572 416.992C350.645 416.712 351.52 416.572 352.197 416.572C352.873 416.572 353.41 416.596 353.807 416.642V416.992C350.75 417.156 348.3 418.556 346.457 421.192C345.5 422.546 344.73 424.121 344.147 425.917L337.567 446.427C337.17 447.711 336.972 448.901 336.972 449.997C336.972 450.114 336.972 450.219 336.972 450.312H336.622L329.027 433.442L322.797 448.247C322.167 449.787 321.245 451.281 320.032 452.727C318.725 454.267 317.138 455.282 315.272 455.772C314.828 455.912 314.362 455.982 313.872 455.982C313.382 455.982 312.857 455.901 312.297 455.737L312.332 455.387C313.195 455.341 314.023 455.107 314.817 454.687C315.633 454.267 316.345 453.754 316.952 453.147C317.558 452.564 318.142 451.876 318.702 451.082C319.612 449.799 320.382 448.399 321.012 446.882L313.907 427.562C313.603 426.886 313.172 426.384 312.612 426.057C312.052 425.707 311.48 425.532 310.897 425.532H310.617V425.182H321.292V425.532H320.977C320.487 425.532 320.113 425.696 319.857 426.022C319.623 426.326 319.507 426.617 319.507 426.897C319.507 427.177 319.553 427.446 319.647 427.702L323.952 439.847L330.287 424.622L330.602 424.657L337.567 440.022L341.592 425.917C342.175 423.887 343.097 422.091 344.357 420.527C345.827 418.684 347.565 417.506 349.572 416.992Z" fill="white" />
    </g>
    <g id="text-sec">
      <path d="M112.03 149.385L113.59 156.275H113.655L115.345 149.255L126.33 118.12H131.725L114.5 164.335H112.095L94.545 118.12H100.46L112.03 149.385Z" fill="#69C9D0" />
      <path d="M138.378 118.12H143.773V163.62H138.378V118.12Z" fill="#69C9D0" />
      <path d="M156.059 118.575C157.706 118.272 159.591 118.034 161.714 117.86C163.881 117.687 165.853 117.6 167.629 117.6C169.623 117.6 171.508 117.817 173.284 118.25C175.104 118.684 176.686 119.399 178.029 120.395C179.416 121.392 180.521 122.692 181.344 124.295C182.168 125.899 182.579 127.849 182.579 130.145C182.579 133.699 181.604 136.58 179.654 138.79C177.704 141 175.234 142.474 172.244 143.21L175.364 145.615L186.674 163.62H180.369L167.824 143.99L161.454 143.015V163.62H156.059V118.575ZM167.759 122.28C167.196 122.28 166.611 122.28 166.004 122.28C165.398 122.28 164.813 122.302 164.249 122.345C163.686 122.389 163.144 122.432 162.624 122.475C162.148 122.519 161.758 122.584 161.454 122.67V139.44H166.524C169.514 139.44 171.984 138.704 173.934 137.23C175.884 135.757 176.859 133.46 176.859 130.34C176.859 128 176.058 126.072 174.454 124.555C172.851 123.039 170.619 122.28 167.759 122.28Z" fill="#69C9D0" />
      <path d="M214.648 151.01H197.878L193.328 163.62H187.998L205.223 117.405H207.693L224.983 163.62H219.328L214.648 151.01ZM199.633 146.33H213.023L207.953 132.485L206.328 125.595H206.263L204.638 132.615L199.633 146.33Z" fill="#69C9D0" />
      <path d="M257.935 163.62H231.025V118.12H236.42V158.81H257.935V163.62Z" fill="#69C9D0" />
      <path d="M306.439 142.755H284.599V163.62H279.204V118.12H284.599V137.945H306.439V118.12H311.834V163.62H306.439V142.755Z" fill="#69C9D0" />
      <path d="M320.991 140.87C320.991 133.287 322.594 127.48 325.801 123.45C329.007 119.377 333.579 117.34 339.516 117.34C342.722 117.34 345.496 117.904 347.836 119.03C350.176 120.157 352.104 121.76 353.621 123.84C355.181 125.877 356.329 128.347 357.066 131.25C357.802 134.11 358.171 137.317 358.171 140.87C358.171 148.454 356.546 154.282 353.296 158.355C350.089 162.385 345.496 164.4 339.516 164.4C336.352 164.4 333.601 163.837 331.261 162.71C328.964 161.584 327.036 160.002 325.476 157.965C323.959 155.885 322.832 153.415 322.096 150.555C321.359 147.652 320.991 144.424 320.991 140.87ZM326.711 140.87C326.711 143.384 326.949 145.767 327.426 148.02C327.946 150.274 328.726 152.267 329.766 154C330.806 155.69 332.127 157.055 333.731 158.095C335.377 159.092 337.306 159.59 339.516 159.59C343.546 159.59 346.709 158.074 349.006 155.04C351.302 151.964 352.451 147.24 352.451 140.87C352.451 138.4 352.191 136.039 351.671 133.785C351.194 131.489 350.414 129.495 349.331 127.805C348.291 126.072 346.947 124.707 345.301 123.71C343.697 122.67 341.769 122.15 339.516 122.15C335.529 122.15 332.387 123.689 330.091 126.765C327.837 129.799 326.711 134.5 326.711 140.87Z" fill="#69C9D0" />
      <path d="M393.439 118.12H398.639V148.475C398.639 151.205 398.271 153.567 397.534 155.56C396.841 157.554 395.823 159.2 394.479 160.5C393.179 161.757 391.598 162.689 389.734 163.295C387.871 163.902 385.813 164.205 383.559 164.205C378.186 164.205 374.134 162.992 371.404 160.565C368.674 158.139 367.309 154.455 367.309 149.515V118.12H372.704V146.98C372.704 149.277 372.921 151.227 373.354 152.83C373.831 154.39 374.524 155.669 375.434 156.665C376.344 157.619 377.471 158.312 378.814 158.745C380.201 159.179 381.804 159.395 383.624 159.395C387.134 159.395 389.648 158.442 391.164 156.535C392.681 154.585 393.439 151.4 393.439 146.98V118.12Z" fill="#69C9D0" />
      <path d="M430.252 152.05C430.252 150.23 429.71 148.757 428.627 147.63C427.543 146.46 426.178 145.442 424.532 144.575C422.928 143.665 421.173 142.82 419.267 142.04C417.36 141.26 415.583 140.329 413.937 139.245C412.333 138.119 410.99 136.754 409.907 135.15C408.823 133.504 408.282 131.424 408.282 128.91C408.282 125.357 409.517 122.54 411.987 120.46C414.457 118.38 417.967 117.34 422.517 117.34C425.16 117.34 427.565 117.535 429.732 117.925C431.898 118.315 433.588 118.814 434.802 119.42L433.177 124.165C432.18 123.689 430.707 123.234 428.757 122.8C426.85 122.367 424.683 122.15 422.257 122.15C419.397 122.15 417.252 122.8 415.822 124.1C414.392 125.357 413.677 126.852 413.677 128.585C413.677 130.275 414.218 131.684 415.302 132.81C416.385 133.937 417.728 134.955 419.332 135.865C420.978 136.732 422.755 137.599 424.662 138.465C426.568 139.332 428.323 140.35 429.927 141.52C431.573 142.647 432.938 144.012 434.022 145.615C435.105 147.219 435.647 149.212 435.647 151.595C435.647 153.545 435.3 155.3 434.607 156.86C433.913 158.42 432.895 159.764 431.552 160.89C430.208 162.017 428.583 162.884 426.677 163.49C424.77 164.097 422.603 164.4 420.177 164.4C416.927 164.4 414.24 164.14 412.117 163.62C409.993 163.144 408.347 162.602 407.177 161.995L408.997 157.12C409.993 157.684 411.467 158.247 413.417 158.81C415.367 159.33 417.555 159.59 419.982 159.59C421.412 159.59 422.755 159.46 424.012 159.2C425.268 158.897 426.352 158.442 427.262 157.835C428.172 157.185 428.887 156.384 429.407 155.43C429.97 154.477 430.252 153.35 430.252 152.05Z" fill="#69C9D0" />
      <path d="M444.243 118.12H469.008V122.93H449.638V137.815H467.383V142.625H449.638V158.81H469.333V163.62H444.243V118.12Z" fill="#69C9D0" />
      <path d="M506.327 142.755H484.487V163.62H479.092V118.12H484.487V137.945H506.327V118.12H511.722V163.62H506.327V142.755Z" fill="#69C9D0" />
      <path d="M520.879 140.87C520.879 133.287 522.482 127.48 525.689 123.45C528.895 119.377 533.467 117.34 539.404 117.34C542.61 117.34 545.384 117.904 547.724 119.03C550.064 120.157 551.992 121.76 553.509 123.84C555.069 125.877 556.217 128.347 556.954 131.25C557.69 134.11 558.059 137.317 558.059 140.87C558.059 148.454 556.434 154.282 553.184 158.355C549.977 162.385 545.384 164.4 539.404 164.4C536.24 164.4 533.489 163.837 531.149 162.71C528.852 161.584 526.924 160.002 525.364 157.965C523.847 155.885 522.72 153.415 521.984 150.555C521.247 147.652 520.879 144.424 520.879 140.87ZM526.599 140.87C526.599 143.384 526.837 145.767 527.314 148.02C527.834 150.274 528.614 152.267 529.654 154C530.694 155.69 532.015 157.055 533.619 158.095C535.265 159.092 537.194 159.59 539.404 159.59C543.434 159.59 546.597 158.074 548.894 155.04C551.19 151.964 552.339 147.24 552.339 140.87C552.339 138.4 552.079 136.039 551.559 133.785C551.082 131.489 550.302 129.495 549.219 127.805C548.179 126.072 546.835 124.707 545.189 123.71C543.585 122.67 541.657 122.15 539.404 122.15C535.417 122.15 532.275 123.689 529.979 126.765C527.725 129.799 526.599 134.5 526.599 140.87Z" fill="#69C9D0" />
      <path d="M594.107 163.62H567.197V118.12H572.592V158.81H594.107V163.62Z" fill="#69C9D0" />
      <path d="M600.776 118.12C601.6 117.99 602.51 117.904 603.506 117.86C604.546 117.774 605.608 117.73 606.691 117.73C607.818 117.687 608.901 117.665 609.941 117.665C611.025 117.622 612.021 117.6 612.931 117.6C616.571 117.6 619.713 118.164 622.356 119.29C625.043 120.417 627.253 121.999 628.986 124.035C630.72 126.029 631.998 128.434 632.821 131.25C633.688 134.067 634.121 137.165 634.121 140.545C634.121 143.622 633.71 146.59 632.886 149.45C632.106 152.267 630.85 154.78 629.116 156.99C627.383 159.157 625.13 160.912 622.356 162.255C619.583 163.555 616.225 164.205 612.281 164.205C611.588 164.205 610.678 164.184 609.551 164.14C608.468 164.14 607.341 164.097 606.171 164.01C605.001 163.967 603.918 163.924 602.921 163.88C601.925 163.837 601.21 163.772 600.776 163.685V118.12ZM613.061 122.41C612.498 122.41 611.87 122.41 611.176 122.41C610.526 122.41 609.876 122.432 609.226 122.475C608.576 122.519 607.97 122.562 607.406 122.605C606.886 122.649 606.475 122.692 606.171 122.735V159.135C606.388 159.179 606.8 159.222 607.406 159.265C608.013 159.265 608.641 159.287 609.291 159.33C609.941 159.33 610.57 159.352 611.176 159.395C611.783 159.395 612.195 159.395 612.411 159.395C615.445 159.395 617.98 158.875 620.016 157.835C622.096 156.795 623.743 155.409 624.956 153.675C626.213 151.899 627.101 149.884 627.621 147.63C628.141 145.334 628.401 142.972 628.401 140.545C628.401 138.422 628.163 136.299 627.686 134.175C627.21 132.009 626.386 130.059 625.216 128.325C624.046 126.592 622.465 125.184 620.471 124.1C618.521 122.974 616.051 122.41 613.061 122.41Z" fill="#69C9D0" />
      <path d="M100.2 202.575C101.847 202.185 103.623 201.925 105.53 201.795C107.437 201.665 109.322 201.6 111.185 201.6C113.178 201.6 115.193 201.795 117.23 202.185C119.31 202.575 121.195 203.29 122.885 204.33C124.575 205.37 125.94 206.8 126.98 208.62C128.063 210.44 128.605 212.759 128.605 215.575C128.605 218.349 128.107 220.689 127.11 222.595C126.113 224.502 124.792 226.062 123.145 227.275C121.498 228.445 119.613 229.29 117.49 229.81C115.367 230.33 113.178 230.59 110.925 230.59C110.708 230.59 110.34 230.59 109.82 230.59C109.343 230.59 108.823 230.59 108.26 230.59C107.74 230.547 107.22 230.504 106.7 230.46C106.18 230.417 105.812 230.374 105.595 230.33V247.62H100.2V202.575ZM111.315 206.28C110.188 206.28 109.105 206.302 108.065 206.345C107.025 206.389 106.202 206.497 105.595 206.67V225.52C105.812 225.607 106.158 225.672 106.635 225.715C107.112 225.715 107.61 225.737 108.13 225.78C108.65 225.78 109.148 225.78 109.625 225.78C110.102 225.78 110.448 225.78 110.665 225.78C112.138 225.78 113.59 225.65 115.02 225.39C116.493 225.087 117.815 224.567 118.985 223.83C120.155 223.094 121.087 222.054 121.78 220.71C122.517 219.367 122.885 217.655 122.885 215.575C122.885 213.799 122.538 212.325 121.845 211.155C121.195 209.942 120.307 208.989 119.18 208.295C118.097 207.559 116.862 207.039 115.475 206.735C114.088 206.432 112.702 206.28 111.315 206.28Z" fill="#69C9D0" />
      <path d="M136.509 202.575C138.155 202.272 140.04 202.034 142.164 201.86C144.33 201.687 146.302 201.6 148.079 201.6C150.072 201.6 151.957 201.817 153.734 202.25C155.554 202.684 157.135 203.399 158.479 204.395C159.865 205.392 160.97 206.692 161.794 208.295C162.617 209.899 163.029 211.849 163.029 214.145C163.029 217.699 162.054 220.58 160.104 222.79C158.154 225 155.684 226.474 152.694 227.21L155.814 229.615L167.124 247.62H160.819L148.274 227.99L141.904 227.015V247.62H136.509V202.575ZM148.209 206.28C147.645 206.28 147.06 206.28 146.454 206.28C145.847 206.28 145.262 206.302 144.699 206.345C144.135 206.389 143.594 206.432 143.074 206.475C142.597 206.519 142.207 206.584 141.904 206.67V223.44H146.974C149.964 223.44 152.434 222.704 154.384 221.23C156.334 219.757 157.309 217.46 157.309 214.34C157.309 212 156.507 210.072 154.904 208.555C153.3 207.039 151.069 206.28 148.209 206.28Z" fill="#69C9D0" />
      <path d="M170.424 224.87C170.424 217.287 172.028 211.48 175.234 207.45C178.441 203.377 183.013 201.34 188.949 201.34C192.156 201.34 194.929 201.904 197.269 203.03C199.609 204.157 201.538 205.76 203.054 207.84C204.614 209.877 205.763 212.347 206.499 215.25C207.236 218.11 207.604 221.317 207.604 224.87C207.604 232.454 205.979 238.282 202.729 242.355C199.523 246.385 194.929 248.4 188.949 248.4C185.786 248.4 183.034 247.837 180.694 246.71C178.398 245.584 176.469 244.002 174.909 241.965C173.393 239.885 172.266 237.415 171.529 234.555C170.793 231.652 170.424 228.424 170.424 224.87ZM176.144 224.87C176.144 227.384 176.383 229.767 176.859 232.02C177.379 234.274 178.159 236.267 179.199 238C180.239 239.69 181.561 241.055 183.164 242.095C184.811 243.092 186.739 243.59 188.949 243.59C192.979 243.59 196.143 242.074 198.439 239.04C200.736 235.964 201.884 231.24 201.884 224.87C201.884 222.4 201.624 220.039 201.104 217.785C200.628 215.489 199.848 213.495 198.764 211.805C197.724 210.072 196.381 208.707 194.734 207.71C193.131 206.67 191.203 206.15 188.949 206.15C184.963 206.15 181.821 207.689 179.524 210.765C177.271 213.799 176.144 218.5 176.144 224.87Z" fill="#69C9D0" />
      <path d="M216.743 202.12C217.566 201.99 218.476 201.904 219.473 201.86C220.513 201.774 221.575 201.73 222.658 201.73C223.785 201.687 224.868 201.665 225.908 201.665C226.991 201.622 227.988 201.6 228.898 201.6C232.538 201.6 235.68 202.164 238.323 203.29C241.01 204.417 243.22 205.999 244.953 208.035C246.686 210.029 247.965 212.434 248.788 215.25C249.655 218.067 250.088 221.165 250.088 224.545C250.088 227.622 249.676 230.59 248.853 233.45C248.073 236.267 246.816 238.78 245.083 240.99C243.35 243.157 241.096 244.912 238.323 246.255C235.55 247.555 232.191 248.205 228.248 248.205C227.555 248.205 226.645 248.184 225.518 248.14C224.435 248.14 223.308 248.097 222.138 248.01C220.968 247.967 219.885 247.924 218.888 247.88C217.891 247.837 217.176 247.772 216.743 247.685V202.12ZM229.028 206.41C228.465 206.41 227.836 206.41 227.143 206.41C226.493 206.41 225.843 206.432 225.193 206.475C224.543 206.519 223.936 206.562 223.373 206.605C222.853 206.649 222.441 206.692 222.138 206.735V243.135C222.355 243.179 222.766 243.222 223.373 243.265C223.98 243.265 224.608 243.287 225.258 243.33C225.908 243.33 226.536 243.352 227.143 243.395C227.75 243.395 228.161 243.395 228.378 243.395C231.411 243.395 233.946 242.875 235.983 241.835C238.063 240.795 239.71 239.409 240.923 237.675C242.18 235.899 243.068 233.884 243.588 231.63C244.108 229.334 244.368 226.972 244.368 224.545C244.368 222.422 244.13 220.299 243.653 218.175C243.176 216.009 242.353 214.059 241.183 212.325C240.013 210.592 238.431 209.184 236.438 208.1C234.488 206.974 232.018 206.41 229.028 206.41Z" fill="#69C9D0" />
      <path d="M285.402 202.12H290.602V232.475C290.602 235.205 290.234 237.567 289.497 239.56C288.804 241.554 287.786 243.2 286.442 244.5C285.142 245.757 283.561 246.689 281.697 247.295C279.834 247.902 277.776 248.205 275.522 248.205C270.149 248.205 266.097 246.992 263.367 244.565C260.637 242.139 259.272 238.455 259.272 233.515V202.12H264.667V230.98C264.667 233.277 264.884 235.227 265.317 236.83C265.794 238.39 266.487 239.669 267.397 240.665C268.307 241.619 269.434 242.312 270.777 242.745C272.164 243.179 273.767 243.395 275.587 243.395C279.097 243.395 281.611 242.442 283.127 240.535C284.644 238.585 285.402 235.4 285.402 230.98V202.12Z" fill="#69C9D0" />
      <path d="M330.795 245.735C329.495 246.732 327.848 247.425 325.855 247.815C323.861 248.205 321.738 248.4 319.485 248.4C316.755 248.4 314.198 247.945 311.815 247.035C309.431 246.082 307.351 244.652 305.575 242.745C303.798 240.839 302.39 238.412 301.35 235.465C300.31 232.475 299.79 228.944 299.79 224.87C299.79 220.624 300.353 217.027 301.48 214.08C302.65 211.09 304.166 208.664 306.03 206.8C307.936 204.894 310.06 203.507 312.4 202.64C314.74 201.774 317.123 201.34 319.55 201.34C322.15 201.34 324.273 201.492 325.92 201.795C327.566 202.055 328.975 202.424 330.145 202.9L328.845 207.645C326.765 206.649 323.796 206.15 319.94 206.15C318.163 206.15 316.408 206.475 314.675 207.125C312.941 207.775 311.381 208.837 309.995 210.31C308.651 211.784 307.568 213.712 306.745 216.095C305.921 218.479 305.51 221.404 305.51 224.87C305.51 227.99 305.9 230.72 306.68 233.06C307.46 235.4 308.521 237.35 309.865 238.91C311.251 240.47 312.855 241.64 314.675 242.42C316.538 243.2 318.553 243.59 320.72 243.59C322.67 243.59 324.36 243.395 325.79 243.005C327.263 242.615 328.498 242.117 329.495 241.51L330.795 245.735Z" fill="#69C9D0" />
      <path d="M366.348 206.93H352.178V247.62H346.783V206.93H332.613V202.12H366.348V206.93Z" fill="#69C9D0" />
      <path d="M393.562 236.05C393.562 234.23 393.021 232.757 391.937 231.63C390.854 230.46 389.489 229.442 387.842 228.575C386.239 227.665 384.484 226.82 382.577 226.04C380.671 225.26 378.894 224.329 377.247 223.245C375.644 222.119 374.301 220.754 373.217 219.15C372.134 217.504 371.592 215.424 371.592 212.91C371.592 209.357 372.827 206.54 375.297 204.46C377.767 202.38 381.277 201.34 385.827 201.34C388.471 201.34 390.876 201.535 393.042 201.925C395.209 202.315 396.899 202.814 398.112 203.42L396.487 208.165C395.491 207.689 394.017 207.234 392.067 206.8C390.161 206.367 387.994 206.15 385.567 206.15C382.707 206.15 380.562 206.8 379.132 208.1C377.702 209.357 376.987 210.852 376.987 212.585C376.987 214.275 377.529 215.684 378.612 216.81C379.696 217.937 381.039 218.955 382.642 219.865C384.289 220.732 386.066 221.599 387.972 222.465C389.879 223.332 391.634 224.35 393.237 225.52C394.884 226.647 396.249 228.012 397.332 229.615C398.416 231.219 398.957 233.212 398.957 235.595C398.957 237.545 398.611 239.3 397.917 240.86C397.224 242.42 396.206 243.764 394.862 244.89C393.519 246.017 391.894 246.884 389.987 247.49C388.081 248.097 385.914 248.4 383.487 248.4C380.237 248.4 377.551 248.14 375.427 247.62C373.304 247.144 371.657 246.602 370.487 245.995L372.307 241.12C373.304 241.684 374.777 242.247 376.727 242.81C378.677 243.33 380.866 243.59 383.292 243.59C384.722 243.59 386.066 243.46 387.322 243.2C388.579 242.897 389.662 242.442 390.572 241.835C391.482 241.185 392.197 240.384 392.717 239.43C393.281 238.477 393.562 237.35 393.562 236.05Z" fill="#69C9D0" />
      <path d="M452.231 206.93H438.061V247.62H432.666V206.93H418.496V202.12H452.231V206.93Z" fill="#69C9D0" />
      <path d="M486.141 226.755H464.301V247.62H458.906V202.12H464.301V221.945H486.141V202.12H491.536V247.62H486.141V226.755Z" fill="#69C9D0" />
      <path d="M524.223 235.01H507.453L502.903 247.62H497.573L514.798 201.405H517.268L534.558 247.62H528.903L524.223 235.01ZM509.208 230.33H522.598L517.528 216.485L515.903 209.595H515.838L514.213 216.615L509.208 230.33Z" fill="#69C9D0" />
      <path d="M565.601 206.93H551.431V247.62H546.036V206.93H531.866V202.12H565.601V206.93Z" fill="#69C9D0" />
      <path d="M607.542 236.05C607.542 234.23 607 232.757 605.917 231.63C604.833 230.46 603.468 229.442 601.822 228.575C600.218 227.665 598.463 226.82 596.557 226.04C594.65 225.26 592.873 224.329 591.227 223.245C589.623 222.119 588.28 220.754 587.197 219.15C586.113 217.504 585.572 215.424 585.572 212.91C585.572 209.357 586.807 206.54 589.277 204.46C591.747 202.38 595.257 201.34 599.807 201.34C602.45 201.34 604.855 201.535 607.022 201.925C609.188 202.315 610.878 202.814 612.092 203.42L610.467 208.165C609.47 207.689 607.997 207.234 606.047 206.8C604.14 206.367 601.973 206.15 599.547 206.15C596.687 206.15 594.542 206.8 593.112 208.1C591.682 209.357 590.967 210.852 590.967 212.585C590.967 214.275 591.508 215.684 592.592 216.81C593.675 217.937 595.018 218.955 596.622 219.865C598.268 220.732 600.045 221.599 601.952 222.465C603.858 223.332 605.613 224.35 607.217 225.52C608.863 226.647 610.228 228.012 611.312 229.615C612.395 231.219 612.937 233.212 612.937 235.595C612.937 237.545 612.59 239.3 611.897 240.86C611.203 242.42 610.185 243.764 608.842 244.89C607.498 246.017 605.873 246.884 603.967 247.49C602.06 248.097 599.893 248.4 597.467 248.4C594.217 248.4 591.53 248.14 589.407 247.62C587.283 247.144 585.637 246.602 584.467 245.995L586.287 241.12C587.283 241.684 588.757 242.247 590.707 242.81C592.657 243.33 594.845 243.59 597.272 243.59C598.702 243.59 600.045 243.46 601.302 243.2C602.558 242.897 603.642 242.442 604.552 241.835C605.462 241.185 606.177 240.384 606.697 239.43C607.26 238.477 607.542 237.35 607.542 236.05Z" fill="#69C9D0" />
      <path d="M619.648 224.87C619.648 217.287 621.251 211.48 624.458 207.45C627.665 203.377 632.236 201.34 638.173 201.34C641.38 201.34 644.153 201.904 646.493 203.03C648.833 204.157 650.761 205.76 652.278 207.84C653.838 209.877 654.986 212.347 655.723 215.25C656.46 218.11 656.828 221.317 656.828 224.87C656.828 232.454 655.203 238.282 651.953 242.355C648.746 246.385 644.153 248.4 638.173 248.4C635.01 248.4 632.258 247.837 629.918 246.71C627.621 245.584 625.693 244.002 624.133 241.965C622.616 239.885 621.49 237.415 620.753 234.555C620.016 231.652 619.648 228.424 619.648 224.87ZM625.368 224.87C625.368 227.384 625.606 229.767 626.083 232.02C626.603 234.274 627.383 236.267 628.423 238C629.463 239.69 630.785 241.055 632.388 242.095C634.035 243.092 635.963 243.59 638.173 243.59C642.203 243.59 645.366 242.074 647.663 239.04C649.96 235.964 651.108 231.24 651.108 224.87C651.108 222.4 650.848 220.039 650.328 217.785C649.851 215.489 649.071 213.495 647.988 211.805C646.948 210.072 645.605 208.707 643.958 207.71C642.355 206.67 640.426 206.15 638.173 206.15C634.186 206.15 631.045 207.689 628.748 210.765C626.495 213.799 625.368 218.5 625.368 224.87Z" fill="#69C9D0" />
      <path d="M692.877 247.62H665.967V202.12H671.362V242.81H692.877V247.62Z" fill="#69C9D0" />
      <path d="M704.647 233.385L706.207 240.275H706.272L707.962 233.255L718.947 202.12H724.342L707.117 248.335H704.712L687.162 202.12H693.077L704.647 233.385Z" fill="#69C9D0" />
      <path d="M729.761 202.12H754.526V206.93H735.156V221.815H752.901V226.625H735.156V242.81H754.851V247.62H729.761V202.12Z" fill="#69C9D0" />
      <path d="M789.981 229.55L774.966 202.12H781.271L791.931 222.01L793.036 225.975H793.101L794.271 221.88L804.476 202.12H810.261L795.376 229.485V247.62H789.981V229.55Z" fill="#69C9D0" />
      <path d="M811.665 224.87C811.665 217.287 813.268 211.48 816.475 207.45C819.681 203.377 824.253 201.34 830.19 201.34C833.396 201.34 836.17 201.904 838.51 203.03C840.85 204.157 842.778 205.76 844.295 207.84C845.855 209.877 847.003 212.347 847.74 215.25C848.476 218.11 848.845 221.317 848.845 224.87C848.845 232.454 847.22 238.282 843.97 242.355C840.763 246.385 836.17 248.4 830.19 248.4C827.026 248.4 824.275 247.837 821.935 246.71C819.638 245.584 817.71 244.002 816.15 241.965C814.633 239.885 813.506 237.415 812.77 234.555C812.033 231.652 811.665 228.424 811.665 224.87ZM817.385 224.87C817.385 227.384 817.623 229.767 818.1 232.02C818.62 234.274 819.4 236.267 820.44 238C821.48 239.69 822.801 241.055 824.405 242.095C826.051 243.092 827.98 243.59 830.19 243.59C834.22 243.59 837.383 242.074 839.68 239.04C841.976 235.964 843.125 231.24 843.125 224.87C843.125 222.4 842.865 220.039 842.345 217.785C841.868 215.489 841.088 213.495 840.005 211.805C838.965 210.072 837.621 208.707 835.975 207.71C834.371 206.67 832.443 206.15 830.19 206.15C826.203 206.15 823.061 207.689 820.765 210.765C818.511 213.799 817.385 218.5 817.385 224.87Z" fill="#69C9D0" />
      <path d="M884.113 202.12H889.313V232.475C889.313 235.205 888.945 237.567 888.208 239.56C887.515 241.554 886.497 243.2 885.153 244.5C883.853 245.757 882.272 246.689 880.408 247.295C878.545 247.902 876.487 248.205 874.233 248.205C868.86 248.205 864.808 246.992 862.078 244.565C859.348 242.139 857.983 238.455 857.983 233.515V202.12H863.378V230.98C863.378 233.277 863.595 235.227 864.028 236.83C864.505 238.39 865.198 239.669 866.108 240.665C867.018 241.619 868.145 242.312 869.488 242.745C870.875 243.179 872.478 243.395 874.298 243.395C877.808 243.395 880.322 242.442 881.838 240.535C883.355 238.585 884.113 235.4 884.113 230.98V202.12Z" fill="#69C9D0" />
      <path d="M900.386 202.575C902.032 202.272 903.917 202.034 906.041 201.86C908.207 201.687 910.179 201.6 911.956 201.6C913.949 201.6 915.834 201.817 917.611 202.25C919.431 202.684 921.012 203.399 922.356 204.395C923.742 205.392 924.847 206.692 925.671 208.295C926.494 209.899 926.906 211.849 926.906 214.145C926.906 217.699 925.931 220.58 923.981 222.79C922.031 225 919.561 226.474 916.571 227.21L919.691 229.615L931.001 247.62H924.696L912.151 227.99L905.781 227.015V247.62H900.386V202.575ZM912.086 206.28C911.522 206.28 910.937 206.28 910.331 206.28C909.724 206.28 909.139 206.302 908.576 206.345C908.012 206.389 907.471 206.432 906.951 206.475C906.474 206.519 906.084 206.584 905.781 206.67V223.44H910.851C913.841 223.44 916.311 222.704 918.261 221.23C920.211 219.757 921.186 217.46 921.186 214.34C921.186 212 920.384 210.072 918.781 208.555C917.177 207.039 914.946 206.28 912.086 206.28Z" fill="#69C9D0" />
      <path d="M100.2 286.12H124.965V290.93H105.595V305.815H123.34V310.625H105.595V326.81H125.29V331.62H100.2V286.12Z" fill="#69C9D0" />
      <path d="M146.879 317.385L148.439 324.275H148.504L150.194 317.255L161.179 286.12H166.574L149.349 332.335H146.944L129.394 286.12H135.309L146.879 317.385Z" fill="#69C9D0" />
      <path d="M171.992 286.12H196.757V290.93H177.387V305.815H195.132V310.625H177.387V326.81H197.082V331.62H171.992V286.12Z" fill="#69C9D0" />
      <path d="M206.841 286.575C208.487 286.272 210.372 286.034 212.496 285.86C214.662 285.687 216.634 285.6 218.411 285.6C220.404 285.6 222.289 285.817 224.066 286.25C225.886 286.684 227.467 287.399 228.811 288.395C230.197 289.392 231.302 290.692 232.126 292.295C232.949 293.899 233.361 295.849 233.361 298.145C233.361 301.699 232.386 304.58 230.436 306.79C228.486 309 226.016 310.474 223.026 311.21L226.146 313.615L237.456 331.62H231.151L218.606 311.99L212.236 311.015V331.62H206.841V286.575ZM218.541 290.28C217.977 290.28 217.392 290.28 216.786 290.28C216.179 290.28 215.594 290.302 215.031 290.345C214.467 290.389 213.926 290.432 213.406 290.475C212.929 290.519 212.539 290.584 212.236 290.67V307.44H217.306C220.296 307.44 222.766 306.704 224.716 305.23C226.666 303.757 227.641 301.46 227.641 298.34C227.641 296 226.839 294.072 225.236 292.555C223.632 291.039 221.401 290.28 218.541 290.28Z" fill="#69C9D0" />
      <path d="M251.636 313.55L236.621 286.12H242.926L253.586 306.01L254.691 309.975H254.756L255.926 305.88L266.131 286.12H271.916L257.031 313.485V331.62H251.636V313.55Z" fill="#69C9D0" />
      <path d="M277.871 286.12C278.694 285.99 279.604 285.904 280.601 285.86C281.641 285.774 282.703 285.73 283.786 285.73C284.913 285.687 285.996 285.665 287.036 285.665C288.119 285.622 289.116 285.6 290.026 285.6C293.666 285.6 296.808 286.164 299.451 287.29C302.138 288.417 304.348 289.999 306.081 292.035C307.814 294.029 309.093 296.434 309.916 299.25C310.783 302.067 311.216 305.165 311.216 308.545C311.216 311.622 310.804 314.59 309.981 317.45C309.201 320.267 307.944 322.78 306.211 324.99C304.478 327.157 302.224 328.912 299.451 330.255C296.678 331.555 293.319 332.205 289.376 332.205C288.683 332.205 287.773 332.184 286.646 332.14C285.563 332.14 284.436 332.097 283.266 332.01C282.096 331.967 281.013 331.924 280.016 331.88C279.019 331.837 278.304 331.772 277.871 331.685V286.12ZM290.156 290.41C289.593 290.41 288.964 290.41 288.271 290.41C287.621 290.41 286.971 290.432 286.321 290.475C285.671 290.519 285.064 290.562 284.501 290.605C283.981 290.649 283.569 290.692 283.266 290.735V327.135C283.483 327.179 283.894 327.222 284.501 327.265C285.108 327.265 285.736 327.287 286.386 327.33C287.036 327.33 287.664 327.352 288.271 327.395C288.878 327.395 289.289 327.395 289.506 327.395C292.539 327.395 295.074 326.875 297.111 325.835C299.191 324.795 300.838 323.409 302.051 321.675C303.308 319.899 304.196 317.884 304.716 315.63C305.236 313.334 305.496 310.972 305.496 308.545C305.496 306.422 305.258 304.299 304.781 302.175C304.304 300.009 303.481 298.059 302.311 296.325C301.141 294.592 299.559 293.184 297.566 292.1C295.616 290.974 293.146 290.41 290.156 290.41Z" fill="#69C9D0" />
      <path d="M340.395 319.01H323.625L319.075 331.62H313.745L330.97 285.405H333.44L350.73 331.62H345.075L340.395 319.01ZM325.38 314.33H338.77L333.7 300.485L332.075 293.595H332.01L330.385 300.615L325.38 314.33Z" fill="#69C9D0" />
      <path d="M362.339 313.55L347.324 286.12H353.629L364.289 306.01L365.394 309.975H365.459L366.629 305.88L376.834 286.12H382.619L367.734 313.485V331.62H362.339V313.55Z" fill="#69C9D0" />
      <path d="M404.253 286.575C405.899 286.185 407.676 285.925 409.583 285.795C411.489 285.665 413.374 285.6 415.238 285.6C417.231 285.6 419.246 285.795 421.283 286.185C423.363 286.575 425.248 287.29 426.938 288.33C428.628 289.37 429.993 290.8 431.033 292.62C432.116 294.44 432.658 296.759 432.658 299.575C432.658 302.349 432.159 304.689 431.163 306.595C430.166 308.502 428.844 310.062 427.198 311.275C425.551 312.445 423.666 313.29 421.543 313.81C419.419 314.33 417.231 314.59 414.978 314.59C414.761 314.59 414.393 314.59 413.873 314.59C413.396 314.59 412.876 314.59 412.313 314.59C411.793 314.547 411.273 314.504 410.753 314.46C410.233 314.417 409.864 314.374 409.648 314.33V331.62H404.253V286.575ZM415.368 290.28C414.241 290.28 413.158 290.302 412.118 290.345C411.078 290.389 410.254 290.497 409.648 290.67V309.52C409.864 309.607 410.211 309.672 410.688 309.715C411.164 309.715 411.663 309.737 412.183 309.78C412.703 309.78 413.201 309.78 413.678 309.78C414.154 309.78 414.501 309.78 414.718 309.78C416.191 309.78 417.643 309.65 419.073 309.39C420.546 309.087 421.868 308.567 423.038 307.83C424.208 307.094 425.139 306.054 425.833 304.71C426.569 303.367 426.938 301.655 426.938 299.575C426.938 297.799 426.591 296.325 425.898 295.155C425.248 293.942 424.359 292.989 423.233 292.295C422.149 291.559 420.914 291.039 419.528 290.735C418.141 290.432 416.754 290.28 415.368 290.28Z" fill="#69C9D0" />
      <path d="M440.561 286.575C442.208 286.272 444.093 286.034 446.216 285.86C448.383 285.687 450.355 285.6 452.131 285.6C454.125 285.6 456.01 285.817 457.786 286.25C459.606 286.684 461.188 287.399 462.531 288.395C463.918 289.392 465.023 290.692 465.846 292.295C466.67 293.899 467.081 295.849 467.081 298.145C467.081 301.699 466.106 304.58 464.156 306.79C462.206 309 459.736 310.474 456.746 311.21L459.866 313.615L471.176 331.62H464.871L452.326 311.99L445.956 311.015V331.62H440.561V286.575ZM452.261 290.28C451.698 290.28 451.113 290.28 450.506 290.28C449.9 290.28 449.315 290.302 448.751 290.345C448.188 290.389 447.646 290.432 447.126 290.475C446.65 290.519 446.26 290.584 445.956 290.67V307.44H451.026C454.016 307.44 456.486 306.704 458.436 305.23C460.386 303.757 461.361 301.46 461.361 298.34C461.361 296 460.56 294.072 458.956 292.555C457.353 291.039 455.121 290.28 452.261 290.28Z" fill="#69C9D0" />
      <path d="M474.477 308.87C474.477 301.287 476.08 295.48 479.287 291.45C482.494 287.377 487.065 285.34 493.002 285.34C496.209 285.34 498.982 285.904 501.322 287.03C503.662 288.157 505.59 289.76 507.107 291.84C508.667 293.877 509.815 296.347 510.552 299.25C511.289 302.11 511.657 305.317 511.657 308.87C511.657 316.454 510.032 322.282 506.782 326.355C503.575 330.385 498.982 332.4 493.002 332.4C489.839 332.4 487.087 331.837 484.747 330.71C482.45 329.584 480.522 328.002 478.962 325.965C477.445 323.885 476.319 321.415 475.582 318.555C474.845 315.652 474.477 312.424 474.477 308.87ZM480.197 308.87C480.197 311.384 480.435 313.767 480.912 316.02C481.432 318.274 482.212 320.267 483.252 322C484.292 323.69 485.614 325.055 487.217 326.095C488.864 327.092 490.792 327.59 493.002 327.59C497.032 327.59 500.195 326.074 502.492 323.04C504.789 319.964 505.937 315.24 505.937 308.87C505.937 306.4 505.677 304.039 505.157 301.785C504.68 299.489 503.901 297.495 502.817 295.805C501.777 294.072 500.434 292.707 498.787 291.71C497.184 290.67 495.255 290.15 493.002 290.15C489.015 290.15 485.874 291.689 483.577 294.765C481.324 297.799 480.197 302.5 480.197 308.87Z" fill="#69C9D0" />
      <path d="M548.226 296.52C548.226 297.604 548.052 298.709 547.706 299.835C547.359 300.962 546.839 302.024 546.146 303.02C545.452 303.974 544.564 304.819 543.481 305.555C542.397 306.292 541.119 306.855 539.646 307.245V307.505C540.946 307.722 542.181 308.09 543.351 308.61C544.564 309.13 545.626 309.845 546.536 310.755C547.446 311.665 548.182 312.77 548.746 314.07C549.309 315.37 549.591 316.909 549.591 318.685C549.591 321.025 549.092 323.062 548.096 324.795C547.142 326.485 545.864 327.872 544.261 328.955C542.701 330.039 540.902 330.84 538.866 331.36C536.829 331.88 534.749 332.14 532.626 332.14C531.889 332.14 531.022 332.14 530.026 332.14C529.029 332.14 527.989 332.097 526.906 332.01C525.822 331.967 524.739 331.88 523.656 331.75C522.572 331.664 521.619 331.512 520.796 331.295V286.51C522.399 286.25 524.262 286.034 526.386 285.86C528.509 285.687 530.827 285.6 533.341 285.6C535.031 285.6 536.742 285.752 538.476 286.055C540.252 286.315 541.856 286.857 543.286 287.68C544.716 288.46 545.886 289.565 546.796 290.995C547.749 292.425 548.226 294.267 548.226 296.52ZM533.146 327.46C534.532 327.46 535.876 327.309 537.176 327.005C538.476 326.659 539.624 326.139 540.621 325.445C541.617 324.709 542.397 323.82 542.961 322.78C543.567 321.74 543.871 320.505 543.871 319.075C543.871 317.299 543.502 315.869 542.766 314.785C542.072 313.702 541.141 312.857 539.971 312.25C538.844 311.644 537.566 311.232 536.136 311.015C534.706 310.799 533.276 310.69 531.846 310.69H526.191V327.005C526.494 327.092 526.927 327.157 527.491 327.2C528.054 327.244 528.661 327.287 529.311 327.33C529.961 327.374 530.632 327.417 531.326 327.46C532.019 327.46 532.626 327.46 533.146 327.46ZM529.571 306.14C530.307 306.14 531.196 306.119 532.236 306.075C533.276 306.032 534.142 305.967 534.836 305.88C535.876 305.534 536.851 305.122 537.761 304.645C538.671 304.125 539.472 303.54 540.166 302.89C540.902 302.197 541.466 301.417 541.856 300.55C542.289 299.64 542.506 298.665 542.506 297.625C542.506 296.195 542.224 295.025 541.661 294.115C541.141 293.162 540.426 292.404 539.516 291.84C538.606 291.277 537.566 290.887 536.396 290.67C535.226 290.41 534.034 290.28 532.821 290.28C531.391 290.28 530.069 290.324 528.856 290.41C527.686 290.454 526.797 290.54 526.191 290.67V306.14H529.571Z" fill="#69C9D0" />
      <path d="M585.665 331.62H558.755V286.12H564.15V326.81H585.665V331.62Z" fill="#69C9D0" />
      <path d="M592.334 286.12H617.099V290.93H597.729V305.815H615.474V310.625H597.729V326.81H617.424V331.62H592.334V286.12Z" fill="#69C9D0" />
      <path d="M662.152 301.07L662.802 294.245H662.477L660.007 300.485L648.177 321.025H646.552L634.007 300.42L631.667 294.245H631.342L632.252 301.005V331.62H627.182V286.12H631.212L645.447 309.39L647.592 314.46H647.722L649.737 309.26L663.322 286.12H667.547V331.62H662.152V301.07Z" fill="#69C9D0" />
      <path d="M699.138 320.05C699.138 318.23 698.597 316.757 697.513 315.63C696.43 314.46 695.065 313.442 693.418 312.575C691.815 311.665 690.06 310.82 688.154 310.04C686.247 309.26 684.47 308.329 682.823 307.245C681.22 306.119 679.877 304.754 678.793 303.15C677.71 301.504 677.168 299.424 677.168 296.91C677.168 293.357 678.403 290.54 680.873 288.46C683.343 286.38 686.854 285.34 691.404 285.34C694.047 285.34 696.452 285.535 698.618 285.925C700.785 286.315 702.475 286.814 703.688 287.42L702.063 292.165C701.067 291.689 699.593 291.234 697.643 290.8C695.737 290.367 693.57 290.15 691.143 290.15C688.283 290.15 686.138 290.8 684.708 292.1C683.278 293.357 682.563 294.852 682.563 296.585C682.563 298.275 683.105 299.684 684.188 300.81C685.272 301.937 686.615 302.955 688.219 303.865C689.865 304.732 691.642 305.599 693.548 306.465C695.455 307.332 697.21 308.35 698.813 309.52C700.46 310.647 701.825 312.012 702.909 313.615C703.992 315.219 704.534 317.212 704.534 319.595C704.534 321.545 704.187 323.3 703.493 324.86C702.8 326.42 701.782 327.764 700.438 328.89C699.095 330.017 697.47 330.884 695.563 331.49C693.657 332.097 691.49 332.4 689.063 332.4C685.813 332.4 683.127 332.14 681.003 331.62C678.88 331.144 677.233 330.602 676.063 329.995L677.883 325.12C678.88 325.684 680.353 326.247 682.303 326.81C684.253 327.33 686.442 327.59 688.868 327.59C690.298 327.59 691.642 327.46 692.898 327.2C694.155 326.897 695.238 326.442 696.148 325.835C697.058 325.185 697.773 324.384 698.293 323.43C698.857 322.477 699.138 321.35 699.138 320.05Z" fill="#69C9D0" />
      <path d="M715.86 286.12H721.255V308.675L720.15 320.115H716.965L715.86 308.675V286.12ZM714.755 328.63C714.755 327.46 715.08 326.55 715.73 325.9C716.423 325.207 717.333 324.86 718.46 324.86C719.63 324.86 720.561 325.207 721.255 325.9C721.948 326.55 722.295 327.46 722.295 328.63C722.295 329.757 721.948 330.667 721.255 331.36C720.561 332.054 719.63 332.4 718.46 332.4C717.333 332.4 716.423 332.054 715.73 331.36C715.08 330.667 714.755 329.757 714.755 328.63Z" fill="#69C9D0" />
    </g>
    <g id="Innovatik">
      <g id="text">
        <path id="Vector" d="M1358.44 308.855H1363.4V334.038H1358.44V308.855Z" fill="black" />
        <path id="Vector_2" d="M1373.46 319.085L1373.8 321.481C1374.32 320.545 1375.07 319.793 1376.02 319.223C1376.98 318.652 1378.14 318.367 1379.51 318.367C1380.93 318.367 1382.11 318.784 1383.05 319.617C1384 320.448 1384.49 321.527 1384.51 322.849V334.038H1379.72V324.628C1379.7 323.968 1379.52 323.436 1379.19 323.036C1378.86 322.637 1378.3 322.438 1377.53 322.438C1376.41 322.438 1375.53 322.958 1374.88 323.996C1374.23 325.034 1373.9 326.351 1373.9 327.948V334.038H1369.11V319.085H1373.46Z" fill="black" />
        <path id="Vector_3" d="M1393.78 319.085L1394.12 321.481C1394.65 320.545 1395.39 319.793 1396.35 319.223C1397.3 318.652 1398.47 318.367 1399.84 318.367C1401.25 318.367 1402.43 318.784 1403.38 319.617C1404.32 320.449 1404.81 321.527 1404.83 322.849V334.038H1400.04V324.628C1400.02 323.968 1399.84 323.436 1399.51 323.036C1399.18 322.637 1398.63 322.438 1397.85 322.438C1396.73 322.438 1395.85 322.958 1395.2 323.996C1394.55 325.034 1394.23 326.351 1394.23 327.948V334.038H1389.44V319.085H1393.78Z" fill="black" />
        <path id="Vector_4" d="M1408.59 326.374C1408.59 324.846 1408.96 323.477 1409.67 322.267C1410.39 321.058 1411.4 320.106 1412.7 319.411C1414 318.715 1415.49 318.366 1417.18 318.366C1418.89 318.366 1420.38 318.714 1421.63 319.411C1422.89 320.106 1423.85 321.058 1424.52 322.267C1425.2 323.477 1425.53 324.846 1425.53 326.374C1425.53 327.902 1425.2 329.276 1424.52 330.496C1423.85 331.718 1422.89 332.681 1421.63 333.387C1420.38 334.094 1418.87 334.448 1417.11 334.448C1415.47 334.448 1414.01 334.129 1412.72 333.489C1411.43 332.851 1410.42 331.928 1409.69 330.719C1408.96 329.511 1408.59 328.061 1408.59 326.374ZM1413.42 326.407C1413.42 327.593 1413.76 328.58 1414.45 329.367C1415.13 330.155 1416 330.548 1417.04 330.548C1418.16 330.548 1419.05 330.155 1419.71 329.367C1420.38 328.58 1420.71 327.593 1420.71 326.407C1420.71 325.222 1420.38 324.235 1419.71 323.447C1419.05 322.66 1418.16 322.266 1417.04 322.266C1416 322.266 1415.13 322.659 1414.45 323.447C1413.76 324.235 1413.42 325.222 1413.42 326.407Z" fill="black" />
        <path id="Vector_5" d="M1435.63 334.346L1426.66 319.085H1432.34L1435.83 326.202L1438.91 319.085H1444.25L1435.76 334.346H1435.63Z" fill="black" />
        <path id="Vector_6" d="M1452.66 334.448C1451.27 334.448 1450.01 334.168 1448.88 333.61C1447.75 333.051 1446.86 332.189 1446.2 331.027C1445.54 329.864 1445.2 328.381 1445.2 326.579C1445.2 324.891 1445.55 323.431 1446.23 322.2C1446.92 320.967 1447.82 320.015 1448.93 319.343C1450.05 318.669 1451.24 318.334 1452.49 318.334C1453.98 318.334 1455.1 318.573 1455.86 319.052C1456.63 319.532 1457.24 320.056 1457.69 320.626L1458 319.086H1462.45V334.039H1457.66V332.189C1457.43 332.418 1457.1 332.715 1456.65 333.079C1456.21 333.444 1455.65 333.763 1454.99 334.038C1454.33 334.312 1453.55 334.448 1452.66 334.448ZM1454.03 330.548C1455.7 330.548 1456.91 329.795 1457.66 328.29V324.628C1457.39 323.899 1456.91 323.316 1456.24 322.883C1455.57 322.451 1454.77 322.233 1453.86 322.233C1452.84 322.233 1451.95 322.615 1451.19 323.38C1450.44 324.145 1450.06 325.13 1450.06 326.338C1450.06 327.138 1450.25 327.856 1450.61 328.495C1450.98 329.134 1451.46 329.636 1452.07 330C1452.67 330.365 1453.33 330.548 1454.03 330.548Z" fill="black" />
        <path id="Vector_7" d="M1466.45 308.855H1483.42V313.646H1477.3V334.038H1472.34V313.646H1466.45V308.855Z" fill="black" />
        <path id="Vector_8" d="M1488.22 308.855H1493.18V334.038H1488.22V308.855Z" fill="black" />
        <path id="Vector_9" d="M1504.71 317.82L1504.57 319.085L1505.32 318.128L1513.53 308.855H1519.97L1509.56 320.146L1520 334.038H1513.7L1505.94 323.293L1504.71 324.525V334.038H1499.68V308.855H1504.71V317.82Z" fill="black" />
      </g>
      <g id="all-tok">
        <g id="back">
          <path id="Vector_10" d="M1449.43 274.731V240.673C1449.43 240.64 1449.43 240.161 1449.29 239.475L1448.77 236.87L1463.28 251.386C1464.48 252.579 1465.29 254.072 1465.63 255.703L1465.63 255.735C1465.69 256.045 1465.77 256.876 1465.38 257.907C1464.88 259.222 1464.04 260.121 1463.87 260.286L1449.43 274.731ZM1451.03 241.397L1451.03 270.864L1462.73 259.163C1462.81 259.086 1463.49 258.377 1463.88 257.342C1464.13 256.668 1464.08 256.146 1464.06 256.017C1463.78 254.698 1463.12 253.489 1462.15 252.521L1451.03 241.397Z" fill="#69C9D0" />
          <path id="Vector_11" d="M1400.44 278.047V257.509C1400.44 255.828 1400.92 254.2 1401.83 252.799L1401.85 252.773C1402.03 252.518 1402.56 251.875 1403.57 251.416C1404.9 250.816 1406.18 250.797 1406.32 250.797H1426.74L1402.66 274.88C1402.54 275.001 1402.24 275.324 1401.91 275.822L1400.44 278.047ZM1403.16 253.687C1402.43 254.824 1402.04 256.146 1402.04 257.509V273.236L1422.88 252.401H1406.33C1406.28 252.401 1405.27 252.406 1404.23 252.876C1403.57 253.176 1403.24 253.583 1403.16 253.687Z" fill="#69C9D0" />
          <path id="Vector_12" d="M1444.28 300.011C1443.88 300.011 1443.33 299.95 1442.69 299.713L1442.68 299.71C1441.31 299.188 1440.39 298.296 1440.29 298.195L1425.86 283.763H1459.92C1460.03 283.779 1460.48 283.763 1461.11 283.63L1463.74 283.082L1449.21 297.619C1448.02 298.808 1446.52 299.619 1444.89 299.962C1444.78 299.981 1444.57 300.011 1444.28 300.011ZM1443.25 298.212C1444 298.49 1444.55 298.389 1444.58 298.391C1445.89 298.116 1447.1 297.456 1448.07 296.487L1459.19 285.367H1429.73L1441.43 297.066C1441.46 297.097 1442.17 297.802 1443.25 298.212Z" fill="#69C9D0" />
          <path id="Vector_13" d="M1417.49 298.052L1402.97 283.542C1401.79 282.351 1400.97 280.857 1400.63 279.224C1400.57 278.881 1400.49 278.047 1400.88 277.016C1401.4 275.642 1402.3 274.728 1402.4 274.628L1416.83 260.196V294.254C1416.83 294.286 1416.82 294.765 1416.96 295.452L1417.49 298.052ZM1415.23 264.064L1403.52 275.763C1403.49 275.794 1402.79 276.506 1402.38 277.584C1402.11 278.285 1402.18 278.824 1402.2 278.925C1402.48 280.223 1403.14 281.439 1404.11 282.409L1415.23 293.529L1415.23 264.064Z" fill="#69C9D0" />
          <path id="Vector_14" d="M1460.42 284.129H1439.51L1463.6 260.045C1463.66 259.979 1463.99 259.644 1464.35 259.104L1465.82 256.895V277.418C1465.82 279.104 1465.34 280.731 1464.42 282.129C1464.23 282.408 1463.7 283.055 1462.69 283.51C1462.2 283.727 1461.44 283.991 1460.44 284.092L1460.42 284.129ZM1443.38 282.527L1459.95 282.523C1460.91 282.475 1461.61 282.238 1462.03 282.049C1462.71 281.741 1463.04 281.312 1463.1 281.229C1463.82 280.117 1464.22 278.79 1464.22 277.418V261.69L1443.38 282.527Z" fill="#69C9D0" />
          <path id="Vector_15" d="M1443.7 300.154H1423.18C1421.49 300.154 1419.86 299.672 1418.46 298.759L1418.44 298.742C1418.18 298.56 1417.54 298.034 1417.08 297.028C1416.48 295.682 1416.46 294.406 1416.46 294.266V273.851L1440.55 297.93C1440.56 297.945 1440.9 298.298 1441.49 298.686L1443.7 300.154ZM1419.35 297.425C1420.49 298.161 1421.81 298.552 1423.17 298.552H1438.9L1418.06 277.718V294.263C1418.06 294.276 1418.07 295.311 1418.54 296.364C1418.84 297.024 1419.25 297.35 1419.35 297.425Z" fill="#69C9D0" />
          <path id="Vector_16" d="M1449.79 261.08L1423.52 234.771H1443.08C1444.77 234.771 1446.39 235.253 1447.79 236.167C1448.01 236.32 1448.7 236.856 1449.17 237.903C1449.78 239.244 1449.79 240.521 1449.79 240.663V261.08H1449.79ZM1427.38 236.373L1448.19 257.207V240.66C1448.19 240.617 1448.19 239.614 1447.72 238.565C1447.4 237.856 1446.95 237.53 1446.9 237.496C1445.78 236.767 1444.46 236.374 1443.08 236.374H1427.38V236.373Z" fill="#69C9D0" />
        </g>
        <g id="mid">
          <path id="Vector_17" d="M1455.56 277.258V243.198C1455.56 243.174 1455.56 242.692 1455.42 242.001L1454.89 239.397L1469.41 253.913C1470.6 255.106 1471.41 256.599 1471.76 258.23L1471.76 258.266C1471.81 258.578 1471.89 259.412 1471.5 260.434C1471.01 261.749 1470.16 262.648 1470 262.813L1455.56 277.258ZM1457.16 243.925V273.39L1468.86 261.689C1468.93 261.612 1469.61 260.903 1470 259.868C1470.26 259.202 1470.2 258.675 1470.18 258.54C1469.9 257.221 1469.24 256.013 1468.28 255.045L1457.16 243.925Z" fill="#010101" />
          <path id="Vector_18" d="M1406.57 280.581V260.036C1406.57 258.353 1407.05 256.726 1407.96 255.326L1407.98 255.304C1408.12 255.105 1408.65 254.418 1409.69 253.945C1411.03 253.344 1412.31 253.326 1412.45 253.326H1432.87L1408.79 277.408C1408.67 277.529 1408.36 277.853 1408.04 278.349L1406.57 280.581ZM1409.29 256.213C1408.56 257.349 1408.17 258.67 1408.17 260.035V275.762L1429 254.926H1412.46C1412.41 254.926 1411.4 254.931 1410.35 255.401C1409.68 255.708 1409.35 256.132 1409.29 256.213Z" fill="#010101" />
          <path id="Vector_19" d="M1450.41 302.538C1450.01 302.538 1449.45 302.477 1448.81 302.24L1448.81 302.237C1447.44 301.715 1446.52 300.823 1446.42 300.722L1431.99 286.289H1466.05C1466.15 286.296 1466.61 286.289 1467.24 286.155L1469.87 285.608L1455.33 300.145C1454.15 301.334 1452.65 302.145 1451.02 302.487C1450.91 302.506 1450.7 302.538 1450.41 302.538ZM1449.38 300.74C1450.13 301.015 1450.68 300.916 1450.7 300.917C1452.02 300.641 1453.23 299.981 1454.2 299.013L1465.32 287.893H1435.86L1447.56 299.591C1447.56 299.6 1448.3 300.328 1449.38 300.74Z" fill="#010101" />
          <path id="Vector_20" d="M1423.62 300.583L1409.1 286.068C1407.91 284.877 1407.1 283.386 1406.76 281.749C1406.7 281.401 1406.62 280.567 1407.01 279.542C1407.53 278.167 1408.42 277.254 1408.52 277.154L1422.96 262.722V296.78C1422.96 296.803 1422.95 297.287 1423.09 297.978L1423.62 300.583ZM1421.36 266.59L1409.65 278.29C1409.62 278.322 1408.91 279.033 1408.51 280.111C1408.24 280.807 1408.31 281.354 1408.33 281.456C1408.6 282.75 1409.26 283.966 1410.23 284.936L1421.35 296.055V266.59H1421.36Z" fill="#010101" />
          <path id="Vector_21" d="M1466.59 286.654H1445.64L1469.73 262.571C1469.74 262.557 1470.09 262.214 1470.48 261.629L1471.95 259.421V279.944C1471.95 281.627 1471.47 283.257 1470.55 284.654C1470.36 284.933 1469.83 285.58 1468.82 286.035C1468.34 286.25 1467.59 286.51 1466.61 286.615L1466.59 286.654ZM1449.51 285.052L1466.08 285.048C1467.04 285 1467.74 284.764 1468.16 284.575C1468.84 284.266 1469.17 283.838 1469.23 283.755C1469.95 282.64 1470.35 281.316 1470.35 279.944V264.216L1449.51 285.052Z" fill="#010101" />
          <path id="Vector_22" d="M1449.83 302.68H1429.3C1427.62 302.68 1425.99 302.198 1424.59 301.285L1424.57 301.268C1424.31 301.089 1423.67 300.563 1423.21 299.551C1422.61 298.208 1422.59 296.931 1422.59 296.792V276.377L1446.67 300.456C1446.69 300.477 1447.03 300.821 1447.61 301.211L1449.83 302.68ZM1425.48 299.95C1426.61 300.687 1427.94 301.077 1429.3 301.077H1445.03L1424.19 280.245V296.79C1424.19 296.803 1424.2 297.838 1424.67 298.892C1424.97 299.555 1425.38 299.878 1425.48 299.95Z" fill="#010101" />
          <path id="Vector_23" d="M1455.92 263.605L1429.64 237.298H1449.21C1450.9 237.298 1452.52 237.781 1453.92 238.694C1454.14 238.848 1454.83 239.386 1455.3 240.43C1455.91 241.771 1455.92 243.048 1455.92 243.19V263.605ZM1433.51 238.9L1454.32 259.734V243.186C1454.32 243.143 1454.32 242.14 1453.84 241.091C1453.52 240.385 1453.07 240.055 1453.02 240.021C1451.91 239.293 1450.58 238.9 1449.21 238.9H1433.51Z" fill="#010101" />
        </g>
        <g id="front">
          <path id="seven" d="M1461.97 266.081L1435.7 239.772H1455.27C1456.95 239.772 1458.57 240.254 1459.97 241.168C1460.2 241.321 1460.88 241.857 1461.36 242.905C1461.96 244.243 1461.97 245.522 1461.97 245.664V266.081ZM1439.56 241.374L1460.37 262.209V245.66C1460.37 245.618 1460.37 244.614 1459.89 243.566C1459.58 242.856 1459.13 242.529 1459.08 242.495C1457.96 241.766 1456.63 241.373 1455.26 241.373H1439.56V241.374Z" fill="#EE1D52" />
          <path id="six" d="M1461.61 279.732V245.674C1461.61 245.648 1461.62 245.166 1461.48 244.477L1460.94 241.865L1475.47 256.387C1476.66 257.578 1477.47 259.072 1477.81 260.704L1477.82 260.736C1477.87 261.045 1477.95 261.878 1477.56 262.908C1477.08 264.171 1476.29 265.043 1476.06 265.281L1461.61 279.732ZM1463.21 246.4V275.864L1474.91 264.164C1475.04 264.035 1475.68 263.343 1476.06 262.342C1476.31 261.667 1476.26 261.145 1476.24 261.018C1475.96 259.696 1475.3 258.488 1474.33 257.522L1463.21 246.4Z" fill="#EE1D52" />
          <path id="five" d="M1472.64 289.131H1451.7L1475.78 265.044C1475.85 264.978 1476.17 264.644 1476.53 264.103L1478 261.892V282.42C1478 284.102 1477.52 285.728 1476.61 287.128C1476.41 287.407 1475.88 288.054 1474.87 288.509C1474.2 288.81 1473.46 289.006 1472.66 289.089L1472.64 289.131ZM1455.56 287.529L1472.14 287.525C1472.91 287.481 1473.61 287.323 1474.21 287.05C1474.9 286.741 1475.22 286.313 1475.28 286.23C1476.01 285.115 1476.4 283.791 1476.4 282.42V266.691L1455.56 287.529Z" fill="#EE1D52" />
          <path id="four" d="M1456.47 305.012C1456.06 305.012 1455.5 304.951 1454.87 304.711H1454.86C1453.55 304.215 1452.65 303.369 1452.48 303.205L1438.04 288.763H1472.1C1472.19 288.767 1472.67 288.761 1473.29 288.632L1475.91 288.094L1461.39 302.621C1460.2 303.808 1458.71 304.618 1457.07 304.964C1456.96 304.983 1456.75 305.012 1456.47 305.012ZM1455.43 303.214C1456.16 303.487 1456.71 303.402 1456.77 303.391C1458.07 303.115 1459.28 302.455 1460.25 301.487L1471.37 290.367H1441.91L1453.61 302.065C1453.69 302.141 1454.39 302.821 1455.43 303.214Z" fill="#EE1D52" />
          <path id="three" d="M1455.87 305.156H1435.36C1433.68 305.156 1432.05 304.672 1430.64 303.758L1430.62 303.742C1430.42 303.602 1429.74 303.066 1429.27 302.027C1428.66 300.684 1428.65 299.406 1428.65 299.265V278.851L1452.73 302.93C1452.75 302.951 1453.08 303.295 1453.67 303.686L1455.87 305.156ZM1431.53 302.425C1432.67 303.163 1433.99 303.554 1435.36 303.554H1451.09L1430.25 282.718V299.264C1430.25 299.308 1430.25 300.313 1430.72 301.365C1431.03 302.035 1431.45 302.365 1431.53 302.425Z" fill="#EE1D52" />
          <path id="two" d="M1429.67 303.057L1415.15 288.543C1413.97 287.352 1413.16 285.858 1412.81 284.225C1412.75 283.882 1412.67 283.048 1413.06 282.017C1413.56 280.703 1414.4 279.806 1414.57 279.639L1414.57 279.629L1429.01 265.197V299.255C1429.01 299.278 1429 299.762 1429.15 300.454L1429.67 303.057ZM1415.71 280.76L1415.71 280.763C1415.63 280.84 1414.95 281.549 1414.56 282.586C1414.3 283.287 1414.37 283.827 1414.38 283.928C1414.66 285.225 1415.32 286.441 1416.29 287.411L1427.41 298.531V269.064L1415.71 280.76Z" fill="#EE1D52" />
          <path id="one" d="M1412.62 283.048V262.509C1412.62 260.828 1413.1 259.2 1414.01 257.798L1414.03 257.774C1414.17 257.575 1414.71 256.89 1415.75 256.417C1417.09 255.816 1418.36 255.798 1418.5 255.798H1438.92L1414.84 279.882C1414.78 279.945 1414.45 280.279 1414.09 280.825L1412.62 283.048ZM1415.35 258.688C1414.61 259.825 1414.22 261.147 1414.22 262.51V278.237L1435.06 257.402H1418.51C1418.46 257.402 1417.46 257.407 1416.41 257.878C1415.74 258.181 1415.41 258.604 1415.35 258.688Z" fill="#EE1D52" />
        </g>
      </g>
    </g>
  </g>
  <defs>
    <pattern id="pattern0" patternContentUnits="objectBoundingBox" width="1" height="1">
      <use xlink:href="#image0_3_36" transform="translate(1.08759 1) scale(0.00335766 0.00285714) rotate(180)" />
    </pattern>
    <pattern id="pattern1" patternContentUnits="objectBoundingBox" width="1" height="1">
      <use xlink:href="#image1_3_36" transform="translate(1.09124 1) scale(0.00337852 0.00285714) rotate(180)" />
    </pattern>
    <pattern id="pattern2" patternContentUnits="objectBoundingBox" width="1" height="1">
      <use xlink:href="#image2_3_36" transform="translate(1.09124 1) scale(0.00337852 0.00285714) rotate(180)" />
    </pattern>
    <pattern id="pattern3" patternContentUnits="objectBoundingBox" width="1" height="1">
      <use xlink:href="#image3_3_36" transform="translate(1.56762 1.02703) scale(0.00613707 0.00285714) rotate(180)" />
    </pattern>
    <pattern id="pattern4" patternContentUnits="objectBoundingBox" width="1" height="1">
      <use xlink:href="#image4_3_36" transform="translate(-0.0875912) scale(0.00335766 0.00285714)" />
    </pattern>
    <pattern id="pattern5" patternContentUnits="objectBoundingBox" width="1" height="1">
      <use xlink:href="#image5_3_36" transform="translate(-0.0912409) scale(0.00337852 0.00285714)" />
    </pattern>
    <pattern id="pattern6" patternContentUnits="objectBoundingBox" width="1" height="1">
      <use xlink:href="#image6_3_36" transform="translate(-0.0875912) scale(0.00335766 0.00285714)" />
    </pattern>
    <pattern id="pattern7" patternContentUnits="objectBoundingBox" width="1" height="1">
      <use xlink:href="#image7_3_36" transform="translate(-0.0912409) scale(0.00337852 0.00285714)" />
    </pattern>
    <radialGradient id="paint0_radial_3_36" cx="0" cy="0" r="1" gradientUnits="userSpaceOnUse" gradientTransform="translate(1439.22 284.609) rotate(90) scale(124.282)">
      <stop stop-color="#69C9D0" />
      <stop offset="1" stop-color="#69C9D0" stop-opacity="0" />
    </radialGradient>
    <image id="image0_3_36" data-name="h8.jpg" width="350" height="350" xlink:href="https://innovatik.shop/wp-content/uploads/2022/07/h1.jpg" />
    <image id="image1_3_36" data-name="h7.jpg" width="350" height="350" xlink:href="https://innovatik.shop/wp-content/uploads/2022/07/h2.jpg" />
    <image id="image2_3_36" data-name="h6.jpg" width="350" height="350" xlink:href="https://innovatik.shop/wp-content/uploads/2022/07/h3.jpeg" />
    <image id="image3_3_36" data-name="h5.jpg" width="350" height="350" xlink:href="https://innovatik.shop/wp-content/uploads/2022/07/h4.jpg" />
    <image id="image4_3_36" data-name="h4.jpg" width="350" height="350" xlink:href="https://innovatik.shop/wp-content/uploads/2022/07/h5.jpg" />
    <image id="image5_3_36" data-name="h3.jpg" width="350" height="350" xlink:href="https://innovatik.shop/wp-content/uploads/2022/07/h6.jpeg" />
    <image id="image6_3_36" data-name="h2.jpg" width="350" height="350" xlink:href="https://innovatik.shop/wp-content/uploads/2022/07/h7.jpeg" />
    <image id="image7_3_36" data-name="h1.jpg" width="350" height="350" xlink:href="https://innovatik.shop/wp-content/uploads/2022/07/h8.jpg" />

    <style>

      #text-sec {
        animation: bannerHeaderIn 6s ease-out infinite alternate;
      }

      @keyframes bannerHeaderIn {
        0% {
          opacity: 0;
          transform: translate(50px, 0px);
        }

        16% {
          transform: translate(0px, 0px);
          opacity: 1;
        }

        84% {
          transform: translate(0px, 0px);
          opacity: 1;
        }

        100% {
          opacity: 0;
          transform: translate(-50px, 0px);
        }
      }

      #btn {
        animation: btnIn 6s ease-out infinite alternate;
      }

      @keyframes btnIn {
        0% {
          opacity: 0;
          transform: translate(-50px, 0px);
        }

        16% {
          transform: translate(0px, 0px);
          opacity: 1;
        }

        84% {
          transform: translate(0px, 0px);
          opacity: 1;
        }

        100% {
          opacity: 0;
          transform: translate(50px, 0px);
        }
      }

      #s1,
      #s2,
      #s3,
      #s4,
      #s11,
      #s22,
      #s33,
      #s44 {
        transform-box: fill-box;
        transform-origin: center;
      }

      /* For 1 */

      #s1,
      #s11 {
        animation: oneOn 6s ease infinite alternate;
      }

      @keyframes oneOn {
        0% {
          transform: scale(1);
        }

        12.5% {
          transform: scale(1.1);
        }

        25% {
          transform: scale(1.1);
        }

        37.5% {
          transform: scale(1);
        }

        50% {
          transform: scale(1);
        }

        62.5% {
          transform: scale(1);
        }

        75% {
          transform: scale(1);
        }

        87.5% {
          transform: scale(1);
        }

        100% {
          transform: scale(1);
        }
      }

      /* For 2 */

      #s2,
      #s22 {
        animation: twoOn 6s ease infinite alternate;
      }

      @keyframes twoOn {
        0% {
          transform: scale(1);
        }

        12.5% {
          transform: scale(1);
        }

        25% {
          transform: scale(1);
        }

        37.5% {
          transform: scale(1.1);
        }

        50% {
          transform: scale(1.1);
        }

        62.5% {
          transform: scale(1);
        }

        75% {
          transform: scale(1);
        }

        87.5% {
          transform: scale(1);
        }

        100% {
          transform: scale(1);
        }
      }

      /* For 3 */

      #s3,
      #s33 {
        animation: threeOn 6s ease infinite alternate;
      }

      @keyframes threeOn {
        0% {
          transform: scale(1);
        }

        12.5% {
          transform: scale(1);
        }

        25% {
          transform: scale(1);
        }

        37.5% {
          transform: scale(1);
        }

        50% {
          transform: scale(1);
        }

        62.5% {
          transform: scale(1.1);
        }

        75% {
          transform: scale(1.1);
        }

        87.5% {
          transform: scale(1);
        }

        100% {
          transform: scale(1);
        }
      }

      /* For 4 */

      #s4,
      #s44 {
        animation: fourOn 6s ease infinite alternate;
      }

      @keyframes fourOn {
        0% {
          transform: scale(1);
        }

        12.5% {
          transform: scale(1);
        }

        25% {
          transform: scale(1);
        }

        37.5% {
          transform: scale(1);
        }

        50% {
          transform: scale(1);
        }

        62.5% {
          transform: scale(1);
        }

        75% {
          transform: scale(1);
        }

        87.5% {
          transform: scale(1.1);
        }

        100% {
          transform: scale(1.1);
        }
      }
    </style>
  </defs>
</svg>