<svg width="100%" min-height="0" viewBox="0 0 1000 1000" fill="none"
  xmlns="http://www.w3.org/2000/svg"
  xmlns:xlink="http://www.w3.org/1999/xlink">
  <g id="Mobile 2">
    <g id="Group 3">
      <g id="btn">
        <rect id="Rectangle 8" x="81.9022" y="341.125" width="303.9" height="66.3949" rx="15" fill="#69C9D0" />
        <path id="Shop now" d="M123.734 374.882C122.801 376.376 122.334 377.904 122.334 379.467C122.334 381.171 122.952 382.722 124.189 384.122C124.866 384.916 125.717 385.534 126.744 385.977C127.794 386.421 128.937 386.642 130.174 386.642C131.411 386.642 132.519 386.409 133.499 385.942C135.459 384.986 136.439 383.422 136.439 381.252C136.439 380.436 136.159 379.572 135.599 378.662C135.062 377.752 134.246 376.936 133.149 376.212L127.199 372.222C124.889 370.776 123.734 368.909 123.734 366.622C123.734 366.389 123.746 366.156 123.769 365.922C123.909 364.126 124.621 362.667 125.904 361.547C127.211 360.404 128.949 359.832 131.119 359.832C132.449 359.832 134.059 359.949 135.949 360.182H138.119L137.664 365.327H137.349C137.326 364.114 136.859 363.146 135.949 362.422C135.039 361.676 133.837 361.302 132.344 361.302C130.524 361.302 129.206 361.851 128.389 362.947C127.992 363.507 127.794 364.114 127.794 364.767C127.794 365.421 127.992 365.981 128.389 366.447C128.786 366.891 129.416 367.381 130.279 367.917L136.824 372.187C138.154 373.051 139.192 374.066 139.939 375.232C140.826 376.609 141.269 378.021 141.269 379.467C141.269 380.401 141.071 381.392 140.674 382.442C140.301 383.469 139.671 384.426 138.784 385.312C137.921 386.199 136.801 386.922 135.424 387.482C134.047 388.042 132.519 388.322 130.839 388.322C129.182 388.322 127.677 388.031 126.324 387.447C123.827 386.397 122.241 384.566 121.564 381.952C121.424 381.392 121.354 380.809 121.354 380.202C121.354 378.242 122.042 376.387 123.419 374.637L123.734 374.882ZM160.351 384.472C160.957 384.472 161.482 384.262 161.926 383.842C162.369 383.422 162.602 382.909 162.626 382.302V373.377H151.601V382.372C151.601 385.172 150.889 387.401 149.466 389.057C148.346 390.364 146.736 391.017 144.636 391.017C143.959 391.017 143.224 390.936 142.431 390.772L142.361 390.422C144.087 389.699 145.196 388.626 145.686 387.202C146.129 385.989 146.351 384.379 146.351 382.372V362.842C146.327 362.236 146.094 361.722 145.651 361.302C145.231 360.882 144.717 360.672 144.111 360.672H143.656V360.322H154.296V360.672H153.841C153.001 360.672 152.371 361.022 151.951 361.722C151.741 362.049 151.624 362.422 151.601 362.842V371.872H162.626V363.472C162.626 360.742 163.477 358.572 165.181 356.962C166.534 355.632 168.237 354.967 170.291 354.967C170.757 354.967 171.247 355.002 171.761 355.072L171.831 355.422C170.127 356.029 169.019 357.102 168.506 358.642C168.086 359.902 167.864 361.512 167.841 363.472V382.267C167.864 383.107 168.237 383.737 168.961 384.157C169.311 384.367 169.696 384.472 170.116 384.472H170.536V384.822H159.931V384.472H160.351ZM183.128 369.177C182.708 368.291 182.498 367.451 182.498 366.657C182.498 365.841 182.603 365.094 182.813 364.417C183.023 363.717 183.373 363.041 183.863 362.387C184.353 361.711 185.042 361.151 185.928 360.707C187.142 360.077 188.6 359.762 190.303 359.762C192.543 359.762 194.667 360.334 196.673 361.477C199.31 362.971 201.142 365.036 202.168 367.672C202.752 369.119 203.043 370.671 203.043 372.327C203.043 376.224 201.632 379.362 198.808 381.742C196.008 384.122 192.345 385.312 187.818 385.312C183.315 385.312 179.64 384.122 176.793 381.742C173.97 379.362 172.558 376.236 172.558 372.362C172.558 369.469 173.375 366.961 175.008 364.837C176.665 362.691 178.893 361.232 181.693 360.462L181.903 360.777C180.713 361.781 179.815 363.251 179.208 365.187C178.602 367.124 178.298 369.212 178.298 371.452C178.298 375.232 179.173 378.242 180.923 380.482C182.673 382.722 184.96 383.842 187.783 383.842C190.63 383.842 192.917 382.792 194.643 380.692C196.393 378.569 197.268 375.769 197.268 372.292C197.268 370.192 196.942 368.302 196.288 366.622C195.658 364.919 194.737 363.612 193.523 362.702C192.31 361.769 190.957 361.302 189.463 361.302C187.807 361.302 186.465 361.734 185.438 362.597C183.992 363.834 183.268 365.409 183.268 367.322C183.268 367.929 183.35 368.547 183.513 369.177H183.128ZM214.767 371.522C215.164 372.456 215.981 372.922 217.217 372.922C218.617 372.922 219.737 372.222 220.577 370.822C221.161 369.866 221.452 368.652 221.452 367.182C221.452 365.012 220.881 363.426 219.737 362.422C218.874 361.676 217.777 361.302 216.447 361.302C216.144 361.302 215.829 361.326 215.502 361.372L213.157 361.722V382.267C213.157 382.897 213.379 383.422 213.822 383.842C214.266 384.262 214.791 384.472 215.397 384.472H215.852V384.822H205.212V384.472H205.667C206.274 384.472 206.787 384.262 207.207 383.842C207.651 383.422 207.884 382.897 207.907 382.267V363.612C207.884 363.006 207.697 362.527 207.347 362.177C207.021 361.827 206.531 361.652 205.877 361.652C205.714 361.652 205.504 361.664 205.247 361.687L205.177 361.372C207.161 361.209 209.237 360.941 211.407 360.567C213.601 360.171 215.036 359.926 215.712 359.832C216.412 359.739 217.112 359.692 217.812 359.692C218.536 359.692 219.399 359.774 220.402 359.937C221.406 360.077 222.432 360.416 223.482 360.952C224.532 361.466 225.384 362.236 226.037 363.262C226.714 364.382 227.052 365.654 227.052 367.077C227.052 368.477 226.796 369.714 226.282 370.787C225.302 372.841 223.622 374.147 221.242 374.707C220.659 374.847 220.099 374.917 219.562 374.917C219.049 374.917 218.559 374.871 218.092 374.777C217.136 374.637 216.331 374.311 215.677 373.797C215.024 373.284 214.616 372.572 214.452 371.662L214.767 371.522ZM269.755 388.462C270.152 388.696 270.595 388.906 271.085 389.092C271.575 389.302 272.042 389.442 272.485 389.512C272.952 389.606 273.453 389.652 273.99 389.652C274.55 389.652 275.122 389.582 275.705 389.442L275.845 389.792C274.538 390.422 273.22 390.737 271.89 390.737C268.833 390.737 265.718 389.046 262.545 385.662L245.955 368.057V382.372C245.955 382.956 246.165 383.457 246.585 383.877C247.005 384.274 247.507 384.472 248.09 384.472H248.755V384.822H238.15V384.472H238.78C239.387 384.472 239.9 384.274 240.32 383.877C240.74 383.457 240.95 382.944 240.95 382.337V362.702C239.807 361.396 238.943 360.486 238.36 359.972C237.777 359.436 237.263 358.992 236.82 358.642C236.353 358.292 235.91 358.001 235.49 357.767C234.51 357.207 233.728 356.881 233.145 356.787C232.538 356.694 231.978 356.647 231.465 356.647C230.928 356.647 230.357 356.752 229.75 356.962L229.61 356.612C230.893 355.866 232.212 355.492 233.565 355.492C236.505 355.492 239.62 357.242 242.91 360.742L258.555 377.367V362.807C258.532 362.201 258.31 361.699 257.89 361.302C257.47 360.882 256.968 360.672 256.385 360.672H255.755V360.322H266.36V360.672H265.695C265.112 360.672 264.61 360.882 264.19 361.302C263.77 361.699 263.548 362.189 263.525 362.772V382.687L264.085 383.247C264.225 383.387 264.435 383.632 264.715 383.982C265.018 384.309 265.287 384.589 265.52 384.822C265.753 385.079 266.045 385.394 266.395 385.767C266.768 386.141 267.107 386.467 267.41 386.747C267.737 387.027 268.11 387.331 268.53 387.657C268.973 387.984 269.382 388.252 269.755 388.462ZM278.695 369.177C278.275 368.291 278.065 367.451 278.065 366.657C278.065 365.841 278.17 365.094 278.38 364.417C278.59 363.717 278.94 363.041 279.43 362.387C279.92 361.711 280.608 361.151 281.495 360.707C282.708 360.077 284.167 359.762 285.87 359.762C288.11 359.762 290.233 360.334 292.24 361.477C294.877 362.971 296.708 365.036 297.735 367.672C298.318 369.119 298.61 370.671 298.61 372.327C298.61 376.224 297.198 379.362 294.375 381.742C291.575 384.122 287.912 385.312 283.385 385.312C278.882 385.312 275.207 384.122 272.36 381.742C269.537 379.362 268.125 376.236 268.125 372.362C268.125 369.469 268.942 366.961 270.575 364.837C272.232 362.691 274.46 361.232 277.26 360.462L277.47 360.777C276.28 361.781 275.382 363.251 274.775 365.187C274.168 367.124 273.865 369.212 273.865 371.452C273.865 375.232 274.74 378.242 276.49 380.482C278.24 382.722 280.527 383.842 283.35 383.842C286.197 383.842 288.483 382.792 290.21 380.692C291.96 378.569 292.835 375.769 292.835 372.292C292.835 370.192 292.508 368.302 291.855 366.622C291.225 364.919 290.303 363.612 289.09 362.702C287.877 361.769 286.523 361.302 285.03 361.302C283.373 361.302 282.032 361.734 281.005 362.597C279.558 363.834 278.835 365.409 278.835 367.322C278.835 367.929 278.917 368.547 279.08 369.177H278.695ZM336.799 352.132C337.872 351.852 338.747 351.712 339.424 351.712C340.1 351.712 340.637 351.736 341.034 351.782V352.132C337.977 352.296 335.527 353.696 333.684 356.332C332.727 357.686 331.957 359.261 331.374 361.057L324.794 381.567C324.397 382.851 324.199 384.041 324.199 385.137C324.199 385.254 324.199 385.359 324.199 385.452H323.849L316.254 368.582L310.024 383.387C309.394 384.927 308.472 386.421 307.259 387.867C305.952 389.407 304.365 390.422 302.499 390.912C302.055 391.052 301.589 391.122 301.099 391.122C300.609 391.122 300.084 391.041 299.524 390.877L299.559 390.527C300.422 390.481 301.25 390.247 302.044 389.827C302.86 389.407 303.572 388.894 304.179 388.287C304.785 387.704 305.369 387.016 305.929 386.222C306.839 384.939 307.609 383.539 308.239 382.022L301.134 362.702C300.83 362.026 300.399 361.524 299.839 361.197C299.279 360.847 298.707 360.672 298.124 360.672H297.844V360.322H308.519V360.672H308.204C307.714 360.672 307.34 360.836 307.084 361.162C306.85 361.466 306.734 361.757 306.734 362.037C306.734 362.317 306.78 362.586 306.874 362.842L311.179 374.987L317.514 359.762L317.829 359.797L324.794 375.162L328.819 361.057C329.402 359.027 330.324 357.231 331.584 355.667C333.054 353.824 334.792 352.646 336.799 352.132Z" fill="white" />
      </g>
      <g id="text-sec">
        <path d="M99.2572 104.525L100.817 111.415H100.882L102.572 104.395L113.557 73.2603H118.952L101.727 119.475H99.3222L81.7722 73.2603H87.6872L99.2572 104.525Z" fill="#69C9D0" />
        <path d="M125.606 73.2603H131.001V118.76H125.606V73.2603Z" fill="#69C9D0" />
        <path d="M143.287 73.7153C144.933 73.412 146.818 73.1737 148.942 73.0003C151.108 72.827 153.08 72.7403 154.857 72.7403C156.85 72.7403 158.735 72.957 160.512 73.3903C162.332 73.8237 163.913 74.5387 165.257 75.5353C166.643 76.532 167.748 77.832 168.572 79.4353C169.395 81.0387 169.807 82.9887 169.807 85.2853C169.807 88.8387 168.832 91.7203 166.882 93.9303C164.932 96.1403 162.462 97.6137 159.472 98.3503L162.592 100.755L173.902 118.76H167.597L155.052 99.1303L148.682 98.1553V118.76H143.287V73.7153ZM154.987 77.4203C154.423 77.4203 153.838 77.4203 153.232 77.4203C152.625 77.4203 152.04 77.442 151.477 77.4853C150.913 77.5287 150.372 77.572 149.852 77.6153C149.375 77.6587 148.985 77.7237 148.682 77.8103V94.5803H153.752C156.742 94.5803 159.212 93.8437 161.162 92.3703C163.112 90.897 164.087 88.6003 164.087 85.4803C164.087 83.1403 163.285 81.212 161.682 79.6953C160.078 78.1787 157.847 77.4203 154.987 77.4203Z" fill="#69C9D0" />
        <path d="M201.875 106.15H185.105L180.555 118.76H175.225L192.45 72.5453H194.92L212.21 118.76H206.555L201.875 106.15ZM186.86 101.47H200.25L195.18 87.6253L193.555 80.7353H193.49L191.865 87.7553L186.86 101.47Z" fill="#69C9D0" />
        <path d="M245.162 118.76H218.252V73.2603H223.647V113.95H245.162V118.76Z" fill="#69C9D0" />
        <path d="M293.666 97.8953H271.826V118.76H266.431V73.2603H271.826V93.0853H293.666V73.2603H299.061V118.76H293.666V97.8953Z" fill="#69C9D0" />
        <path d="M308.218 96.0103C308.218 88.427 309.821 82.6203 313.028 78.5903C316.235 74.517 320.806 72.4803 326.743 72.4803C329.95 72.4803 332.723 73.0437 335.063 74.1703C337.403 75.297 339.331 76.9003 340.848 78.9803C342.408 81.017 343.556 83.487 344.293 86.3903C345.03 89.2503 345.398 92.457 345.398 96.0103C345.398 103.594 343.773 109.422 340.523 113.495C337.316 117.525 332.723 119.54 326.743 119.54C323.58 119.54 320.828 118.977 318.488 117.85C316.191 116.724 314.263 115.142 312.703 113.105C311.186 111.025 310.06 108.555 309.323 105.695C308.586 102.792 308.218 99.5637 308.218 96.0103ZM313.938 96.0103C313.938 98.5237 314.176 100.907 314.653 103.16C315.173 105.414 315.953 107.407 316.993 109.14C318.033 110.83 319.355 112.195 320.958 113.235C322.605 114.232 324.533 114.73 326.743 114.73C330.773 114.73 333.936 113.214 336.233 110.18C338.53 107.104 339.678 102.38 339.678 96.0103C339.678 93.5403 339.418 91.1787 338.898 88.9253C338.421 86.6287 337.641 84.6353 336.558 82.9453C335.518 81.212 334.175 79.847 332.528 78.8503C330.925 77.8103 328.996 77.2903 326.743 77.2903C322.756 77.2903 319.615 78.8287 317.318 81.9053C315.065 84.9387 313.938 89.6403 313.938 96.0103Z" fill="#69C9D0" />
        <path d="M380.667 73.2603H385.867V103.615C385.867 106.345 385.498 108.707 384.762 110.7C384.068 112.694 383.05 114.34 381.707 115.64C380.407 116.897 378.825 117.829 376.962 118.435C375.098 119.042 373.04 119.345 370.787 119.345C365.413 119.345 361.362 118.132 358.632 115.705C355.902 113.279 354.537 109.595 354.537 104.655V73.2603H359.932V102.12C359.932 104.417 360.148 106.367 360.582 107.97C361.058 109.53 361.752 110.809 362.662 111.805C363.572 112.759 364.698 113.452 366.042 113.885C367.428 114.319 369.032 114.535 370.852 114.535C374.362 114.535 376.875 113.582 378.392 111.675C379.908 109.725 380.667 106.54 380.667 102.12V73.2603Z" fill="#69C9D0" />
        <path d="M417.479 107.19C417.479 105.37 416.937 103.897 415.854 102.77C414.771 101.6 413.406 100.582 411.759 99.7153C410.156 98.8053 408.401 97.9603 406.494 97.1803C404.587 96.4003 402.811 95.4687 401.164 94.3853C399.561 93.2587 398.217 91.8937 397.134 90.2903C396.051 88.6437 395.509 86.5637 395.509 84.0503C395.509 80.497 396.744 77.6803 399.214 75.6003C401.684 73.5203 405.194 72.4803 409.744 72.4803C412.387 72.4803 414.792 72.6753 416.959 73.0653C419.126 73.4553 420.816 73.9537 422.029 74.5603L420.404 79.3053C419.407 78.8287 417.934 78.3737 415.984 77.9403C414.077 77.507 411.911 77.2903 409.484 77.2903C406.624 77.2903 404.479 77.9403 403.049 79.2403C401.619 80.497 400.904 81.992 400.904 83.7253C400.904 85.4153 401.446 86.8237 402.529 87.9503C403.612 89.077 404.956 90.0953 406.559 91.0053C408.206 91.872 409.982 92.7387 411.889 93.6053C413.796 94.472 415.551 95.4903 417.154 96.6603C418.801 97.787 420.166 99.152 421.249 100.755C422.332 102.359 422.874 104.352 422.874 106.735C422.874 108.685 422.527 110.44 421.834 112C421.141 113.56 420.122 114.904 418.779 116.03C417.436 117.157 415.811 118.024 413.904 118.63C411.997 119.237 409.831 119.54 407.404 119.54C404.154 119.54 401.467 119.28 399.344 118.76C397.221 118.284 395.574 117.742 394.404 117.135L396.224 112.26C397.221 112.824 398.694 113.387 400.644 113.95C402.594 114.47 404.782 114.73 407.209 114.73C408.639 114.73 409.982 114.6 411.239 114.34C412.496 114.037 413.579 113.582 414.489 112.975C415.399 112.325 416.114 111.524 416.634 110.57C417.197 109.617 417.479 108.49 417.479 107.19Z" fill="#69C9D0" />
        <path d="M431.47 73.2603H456.235V78.0703H436.865V92.9553H454.61V97.7653H436.865V113.95H456.56V118.76H431.47V73.2603Z" fill="#69C9D0" />
        <path d="M493.554 97.8953H471.714V118.76H466.319V73.2603H471.714V93.0853H493.554V73.2603H498.949V118.76H493.554V97.8953Z" fill="#69C9D0" />
        <path d="M508.106 96.0103C508.106 88.427 509.709 82.6203 512.916 78.5903C516.122 74.517 520.694 72.4803 526.631 72.4803C529.837 72.4803 532.611 73.0437 534.951 74.1703C537.291 75.297 539.219 76.9003 540.736 78.9803C542.296 81.017 543.444 83.487 544.181 86.3903C544.917 89.2503 545.286 92.457 545.286 96.0103C545.286 103.594 543.661 109.422 540.411 113.495C537.204 117.525 532.611 119.54 526.631 119.54C523.467 119.54 520.716 118.977 518.376 117.85C516.079 116.724 514.151 115.142 512.591 113.105C511.074 111.025 509.947 108.555 509.211 105.695C508.474 102.792 508.106 99.5637 508.106 96.0103ZM513.826 96.0103C513.826 98.5237 514.064 100.907 514.541 103.16C515.061 105.414 515.841 107.407 516.881 109.14C517.921 110.83 519.242 112.195 520.846 113.235C522.492 114.232 524.421 114.73 526.631 114.73C530.661 114.73 533.824 113.214 536.121 110.18C538.417 107.104 539.566 102.38 539.566 96.0103C539.566 93.5403 539.306 91.1787 538.786 88.9253C538.309 86.6287 537.529 84.6353 536.446 82.9453C535.406 81.212 534.062 79.847 532.416 78.8503C530.812 77.8103 528.884 77.2903 526.631 77.2903C522.644 77.2903 519.502 78.8287 517.206 81.9053C514.952 84.9387 513.826 89.6403 513.826 96.0103Z" fill="#69C9D0" />
        <path d="M581.334 118.76H554.424V73.2603H559.819V113.95H581.334V118.76Z" fill="#69C9D0" />
        <path d="M588.003 73.2603C588.827 73.1303 589.737 73.0437 590.733 73.0003C591.773 72.9137 592.835 72.8703 593.918 72.8703C595.045 72.827 596.128 72.8053 597.168 72.8053C598.252 72.762 599.248 72.7403 600.158 72.7403C603.798 72.7403 606.94 73.3037 609.583 74.4303C612.27 75.557 614.48 77.1387 616.213 79.1753C617.947 81.1687 619.225 83.5737 620.048 86.3903C620.915 89.207 621.348 92.3053 621.348 95.6853C621.348 98.762 620.937 101.73 620.113 104.59C619.333 107.407 618.077 109.92 616.343 112.13C614.61 114.297 612.357 116.052 609.583 117.395C606.81 118.695 603.452 119.345 599.508 119.345C598.815 119.345 597.905 119.324 596.778 119.28C595.695 119.28 594.568 119.237 593.398 119.15C592.228 119.107 591.145 119.064 590.148 119.02C589.152 118.977 588.437 118.912 588.003 118.825V73.2603ZM600.288 77.5503C599.725 77.5503 599.097 77.5503 598.403 77.5503C597.753 77.5503 597.103 77.572 596.453 77.6153C595.803 77.6587 595.197 77.702 594.633 77.7453C594.113 77.7887 593.702 77.832 593.398 77.8753V114.275C593.615 114.319 594.027 114.362 594.633 114.405C595.24 114.405 595.868 114.427 596.518 114.47C597.168 114.47 597.797 114.492 598.403 114.535C599.01 114.535 599.422 114.535 599.638 114.535C602.672 114.535 605.207 114.015 607.243 112.975C609.323 111.935 610.97 110.549 612.183 108.815C613.44 107.039 614.328 105.024 614.848 102.77C615.368 100.474 615.628 98.112 615.628 95.6853C615.628 93.562 615.39 91.4387 614.913 89.3153C614.437 87.1487 613.613 85.1987 612.443 83.4653C611.273 81.732 609.692 80.3237 607.698 79.2403C605.748 78.1137 603.278 77.5503 600.288 77.5503Z" fill="#69C9D0" />
        <path d="M87.4272 157.715C89.0739 157.325 90.8505 157.065 92.7572 156.935C94.6639 156.805 96.5489 156.74 98.4122 156.74C100.406 156.74 102.421 156.935 104.457 157.325C106.537 157.715 108.422 158.43 110.112 159.47C111.802 160.51 113.167 161.94 114.207 163.76C115.291 165.58 115.832 167.899 115.832 170.715C115.832 173.489 115.334 175.829 114.337 177.735C113.341 179.642 112.019 181.202 110.372 182.415C108.726 183.585 106.841 184.43 104.717 184.95C102.594 185.47 100.406 185.73 98.1522 185.73C97.9355 185.73 97.5672 185.73 97.0472 185.73C96.5705 185.73 96.0505 185.73 95.4872 185.73C94.9672 185.687 94.4472 185.644 93.9272 185.6C93.4072 185.557 93.0389 185.514 92.8222 185.47V202.76H87.4272V157.715ZM98.5422 161.42C97.4155 161.42 96.3322 161.442 95.2922 161.485C94.2522 161.529 93.4289 161.637 92.8222 161.81V180.66C93.0389 180.747 93.3855 180.812 93.8622 180.855C94.3389 180.855 94.8372 180.877 95.3572 180.92C95.8772 180.92 96.3755 180.92 96.8522 180.92C97.3289 180.92 97.6755 180.92 97.8922 180.92C99.3655 180.92 100.817 180.79 102.247 180.53C103.721 180.227 105.042 179.707 106.212 178.97C107.382 178.234 108.314 177.194 109.007 175.85C109.744 174.507 110.112 172.795 110.112 170.715C110.112 168.939 109.766 167.465 109.072 166.295C108.422 165.082 107.534 164.129 106.407 163.435C105.324 162.699 104.089 162.179 102.702 161.875C101.316 161.572 99.9289 161.42 98.5422 161.42Z" fill="#69C9D0" />
        <path d="M123.736 157.715C125.382 157.412 127.267 157.174 129.391 157C131.557 156.827 133.529 156.74 135.306 156.74C137.299 156.74 139.184 156.957 140.961 157.39C142.781 157.824 144.362 158.539 145.706 159.535C147.092 160.532 148.197 161.832 149.021 163.435C149.844 165.039 150.256 166.989 150.256 169.285C150.256 172.839 149.281 175.72 147.331 177.93C145.381 180.14 142.911 181.614 139.921 182.35L143.041 184.755L154.351 202.76H148.046L135.501 183.13L129.131 182.155V202.76H123.736V157.715ZM135.436 161.42C134.872 161.42 134.287 161.42 133.681 161.42C133.074 161.42 132.489 161.442 131.926 161.485C131.362 161.529 130.821 161.572 130.301 161.615C129.824 161.659 129.434 161.724 129.131 161.81V178.58H134.201C137.191 178.58 139.661 177.844 141.611 176.37C143.561 174.897 144.536 172.6 144.536 169.48C144.536 167.14 143.734 165.212 142.131 163.695C140.527 162.179 138.296 161.42 135.436 161.42Z" fill="#69C9D0" />
        <path d="M157.652 180.01C157.652 172.427 159.255 166.62 162.462 162.59C165.668 158.517 170.24 156.48 176.177 156.48C179.383 156.48 182.157 157.044 184.497 158.17C186.837 159.297 188.765 160.9 190.282 162.98C191.842 165.017 192.99 167.487 193.727 170.39C194.463 173.25 194.832 176.457 194.832 180.01C194.832 187.594 193.207 193.422 189.957 197.495C186.75 201.525 182.157 203.54 176.177 203.54C173.013 203.54 170.262 202.977 167.922 201.85C165.625 200.724 163.697 199.142 162.137 197.105C160.62 195.025 159.493 192.555 158.757 189.695C158.02 186.792 157.652 183.564 157.652 180.01ZM163.372 180.01C163.372 182.524 163.61 184.907 164.087 187.16C164.607 189.414 165.387 191.407 166.427 193.14C167.467 194.83 168.788 196.195 170.392 197.235C172.038 198.232 173.967 198.73 176.177 198.73C180.207 198.73 183.37 197.214 185.667 194.18C187.963 191.104 189.112 186.38 189.112 180.01C189.112 177.54 188.852 175.179 188.332 172.925C187.855 170.629 187.075 168.635 185.992 166.945C184.952 165.212 183.608 163.847 181.962 162.85C180.358 161.81 178.43 161.29 176.177 161.29C172.19 161.29 169.048 162.829 166.752 165.905C164.498 168.939 163.372 173.64 163.372 180.01Z" fill="#69C9D0" />
        <path d="M203.97 157.26C204.793 157.13 205.703 157.044 206.7 157C207.74 156.914 208.802 156.87 209.885 156.87C211.012 156.827 212.095 156.805 213.135 156.805C214.218 156.762 215.215 156.74 216.125 156.74C219.765 156.74 222.907 157.304 225.55 158.43C228.237 159.557 230.447 161.139 232.18 163.175C233.913 165.169 235.192 167.574 236.015 170.39C236.882 173.207 237.315 176.305 237.315 179.685C237.315 182.762 236.903 185.73 236.08 188.59C235.3 191.407 234.043 193.92 232.31 196.13C230.577 198.297 228.323 200.052 225.55 201.395C222.777 202.695 219.418 203.345 215.475 203.345C214.782 203.345 213.872 203.324 212.745 203.28C211.662 203.28 210.535 203.237 209.365 203.15C208.195 203.107 207.112 203.064 206.115 203.02C205.118 202.977 204.403 202.912 203.97 202.825V157.26ZM216.255 161.55C215.692 161.55 215.063 161.55 214.37 161.55C213.72 161.55 213.07 161.572 212.42 161.615C211.77 161.659 211.163 161.702 210.6 161.745C210.08 161.789 209.668 161.832 209.365 161.875V198.275C209.582 198.319 209.993 198.362 210.6 198.405C211.207 198.405 211.835 198.427 212.485 198.47C213.135 198.47 213.763 198.492 214.37 198.535C214.977 198.535 215.388 198.535 215.605 198.535C218.638 198.535 221.173 198.015 223.21 196.975C225.29 195.935 226.937 194.549 228.15 192.815C229.407 191.039 230.295 189.024 230.815 186.77C231.335 184.474 231.595 182.112 231.595 179.685C231.595 177.562 231.357 175.439 230.88 173.315C230.403 171.149 229.58 169.199 228.41 167.465C227.24 165.732 225.658 164.324 223.665 163.24C221.715 162.114 219.245 161.55 216.255 161.55Z" fill="#69C9D0" />
        <path d="M272.629 157.26H277.829V187.615C277.829 190.345 277.461 192.707 276.724 194.7C276.031 196.694 275.013 198.34 273.669 199.64C272.369 200.897 270.788 201.829 268.924 202.435C267.061 203.042 265.003 203.345 262.749 203.345C257.376 203.345 253.324 202.132 250.594 199.705C247.864 197.279 246.499 193.595 246.499 188.655V157.26H251.894V186.12C251.894 188.417 252.111 190.367 252.544 191.97C253.021 193.53 253.714 194.809 254.624 195.805C255.534 196.759 256.661 197.452 258.004 197.885C259.391 198.319 260.994 198.535 262.814 198.535C266.324 198.535 268.838 197.582 270.354 195.675C271.871 193.725 272.629 190.54 272.629 186.12V157.26Z" fill="#69C9D0" />
        <path d="M318.022 200.875C316.722 201.872 315.075 202.565 313.082 202.955C311.088 203.345 308.965 203.54 306.712 203.54C303.982 203.54 301.425 203.085 299.042 202.175C296.658 201.222 294.578 199.792 292.802 197.885C291.025 195.979 289.617 193.552 288.577 190.605C287.537 187.615 287.017 184.084 287.017 180.01C287.017 175.764 287.58 172.167 288.707 169.22C289.877 166.23 291.393 163.804 293.257 161.94C295.163 160.034 297.287 158.647 299.627 157.78C301.967 156.914 304.35 156.48 306.777 156.48C309.377 156.48 311.5 156.632 313.147 156.935C314.793 157.195 316.202 157.564 317.372 158.04L316.072 162.785C313.992 161.789 311.023 161.29 307.167 161.29C305.39 161.29 303.635 161.615 301.902 162.265C300.168 162.915 298.608 163.977 297.222 165.45C295.878 166.924 294.795 168.852 293.972 171.235C293.148 173.619 292.737 176.544 292.737 180.01C292.737 183.13 293.127 185.86 293.907 188.2C294.687 190.54 295.748 192.49 297.092 194.05C298.478 195.61 300.082 196.78 301.902 197.56C303.765 198.34 305.78 198.73 307.947 198.73C309.897 198.73 311.587 198.535 313.017 198.145C314.49 197.755 315.725 197.257 316.722 196.65L318.022 200.875Z" fill="#69C9D0" />
        <path d="M353.575 162.07H339.405V202.76H334.01V162.07H319.84V157.26H353.575V162.07Z" fill="#69C9D0" />
        <path d="M380.789 191.19C380.789 189.37 380.248 187.897 379.164 186.77C378.081 185.6 376.716 184.582 375.069 183.715C373.466 182.805 371.711 181.96 369.804 181.18C367.898 180.4 366.121 179.469 364.474 178.385C362.871 177.259 361.528 175.894 360.444 174.29C359.361 172.644 358.819 170.564 358.819 168.05C358.819 164.497 360.054 161.68 362.524 159.6C364.994 157.52 368.504 156.48 373.054 156.48C375.698 156.48 378.103 156.675 380.269 157.065C382.436 157.455 384.126 157.954 385.339 158.56L383.714 163.305C382.718 162.829 381.244 162.374 379.294 161.94C377.388 161.507 375.221 161.29 372.794 161.29C369.934 161.29 367.789 161.94 366.359 163.24C364.929 164.497 364.214 165.992 364.214 167.725C364.214 169.415 364.756 170.824 365.839 171.95C366.923 173.077 368.266 174.095 369.869 175.005C371.516 175.872 373.293 176.739 375.199 177.605C377.106 178.472 378.861 179.49 380.464 180.66C382.111 181.787 383.476 183.152 384.559 184.755C385.643 186.359 386.184 188.352 386.184 190.735C386.184 192.685 385.838 194.44 385.144 196C384.451 197.56 383.433 198.904 382.089 200.03C380.746 201.157 379.121 202.024 377.214 202.63C375.308 203.237 373.141 203.54 370.714 203.54C367.464 203.54 364.778 203.28 362.654 202.76C360.531 202.284 358.884 201.742 357.714 201.135L359.534 196.26C360.531 196.824 362.004 197.387 363.954 197.95C365.904 198.47 368.093 198.73 370.519 198.73C371.949 198.73 373.293 198.6 374.549 198.34C375.806 198.037 376.889 197.582 377.799 196.975C378.709 196.325 379.424 195.524 379.944 194.57C380.508 193.617 380.789 192.49 380.789 191.19Z" fill="#69C9D0" />
        <path d="M439.459 162.07H425.289V202.76H419.894V162.07H405.724V157.26H439.459V162.07Z" fill="#69C9D0" />
        <path d="M473.368 181.895H451.528V202.76H446.133V157.26H451.528V177.085H473.368V157.26H478.763V202.76H473.368V181.895Z" fill="#69C9D0" />
        <path d="M511.45 190.15H494.68L490.13 202.76H484.8L502.025 156.545H504.495L521.785 202.76H516.13L511.45 190.15ZM496.435 185.47H509.825L504.755 171.625L503.13 164.735H503.065L501.44 171.755L496.435 185.47Z" fill="#69C9D0" />
        <path d="M552.828 162.07H538.658V202.76H533.263V162.07H519.093V157.26H552.828V162.07Z" fill="#69C9D0" />
        <path d="M594.769 191.19C594.769 189.37 594.227 187.897 593.144 186.77C592.061 185.6 590.696 184.582 589.049 183.715C587.446 182.805 585.691 181.96 583.784 181.18C581.877 180.4 580.101 179.469 578.454 178.385C576.851 177.259 575.507 175.894 574.424 174.29C573.341 172.644 572.799 170.564 572.799 168.05C572.799 164.497 574.034 161.68 576.504 159.6C578.974 157.52 582.484 156.48 587.034 156.48C589.677 156.48 592.082 156.675 594.249 157.065C596.416 157.455 598.106 157.954 599.319 158.56L597.694 163.305C596.697 162.829 595.224 162.374 593.274 161.94C591.367 161.507 589.201 161.29 586.774 161.29C583.914 161.29 581.769 161.94 580.339 163.24C578.909 164.497 578.194 165.992 578.194 167.725C578.194 169.415 578.736 170.824 579.819 171.95C580.902 173.077 582.246 174.095 583.849 175.005C585.496 175.872 587.272 176.739 589.179 177.605C591.086 178.472 592.841 179.49 594.444 180.66C596.091 181.787 597.456 183.152 598.539 184.755C599.622 186.359 600.164 188.352 600.164 190.735C600.164 192.685 599.817 194.44 599.124 196C598.431 197.56 597.412 198.904 596.069 200.03C594.726 201.157 593.101 202.024 591.194 202.63C589.287 203.237 587.121 203.54 584.694 203.54C581.444 203.54 578.757 203.28 576.634 202.76C574.511 202.284 572.864 201.742 571.694 201.135L573.514 196.26C574.511 196.824 575.984 197.387 577.934 197.95C579.884 198.47 582.072 198.73 584.499 198.73C585.929 198.73 587.272 198.6 588.529 198.34C589.786 198.037 590.869 197.582 591.779 196.975C592.689 196.325 593.404 195.524 593.924 194.57C594.487 193.617 594.769 192.49 594.769 191.19Z" fill="#69C9D0" />
        <path d="M606.875 180.01C606.875 172.427 608.479 166.62 611.685 162.59C614.892 158.517 619.464 156.48 625.4 156.48C628.607 156.48 631.38 157.044 633.72 158.17C636.06 159.297 637.989 160.9 639.505 162.98C641.065 165.017 642.213 167.487 642.95 170.39C643.687 173.25 644.055 176.457 644.055 180.01C644.055 187.594 642.43 193.422 639.18 197.495C635.974 201.525 631.38 203.54 625.4 203.54C622.237 203.54 619.485 202.977 617.145 201.85C614.849 200.724 612.92 199.142 611.36 197.105C609.844 195.025 608.717 192.555 607.98 189.695C607.244 186.792 606.875 183.564 606.875 180.01ZM612.595 180.01C612.595 182.524 612.834 184.907 613.31 187.16C613.83 189.414 614.61 191.407 615.65 193.14C616.69 194.83 618.012 196.195 619.615 197.235C621.262 198.232 623.19 198.73 625.4 198.73C629.43 198.73 632.594 197.214 634.89 194.18C637.187 191.104 638.335 186.38 638.335 180.01C638.335 177.54 638.075 175.179 637.555 172.925C637.079 170.629 636.299 168.635 635.215 166.945C634.175 165.212 632.832 163.847 631.185 162.85C629.582 161.81 627.654 161.29 625.4 161.29C621.414 161.29 618.272 162.829 615.975 165.905C613.722 168.939 612.595 173.64 612.595 180.01Z" fill="#69C9D0" />
        <path d="M680.104 202.76H653.194V157.26H658.589V197.95H680.104V202.76Z" fill="#69C9D0" />
        <path d="M691.874 188.525L693.434 195.415H693.499L695.189 188.395L706.174 157.26H711.569L694.344 203.475H691.939L674.389 157.26H680.304L691.874 188.525Z" fill="#69C9D0" />
        <path d="M716.988 157.26H741.753V162.07H722.383V176.955H740.128V181.765H722.383V197.95H742.078V202.76H716.988V157.26Z" fill="#69C9D0" />
        <path d="M777.208 184.69L762.193 157.26H768.498L779.158 177.15L780.263 181.115H780.328L781.498 177.02L791.703 157.26H797.488L782.603 184.625V202.76H777.208V184.69Z" fill="#69C9D0" />
        <path d="M798.892 180.01C798.892 172.427 800.495 166.62 803.702 162.59C806.908 158.517 811.48 156.48 817.417 156.48C820.623 156.48 823.397 157.044 825.737 158.17C828.077 159.297 830.005 160.9 831.522 162.98C833.082 165.017 834.23 167.487 834.967 170.39C835.703 173.25 836.072 176.457 836.072 180.01C836.072 187.594 834.447 193.422 831.197 197.495C827.99 201.525 823.397 203.54 817.417 203.54C814.253 203.54 811.502 202.977 809.162 201.85C806.865 200.724 804.937 199.142 803.377 197.105C801.86 195.025 800.733 192.555 799.997 189.695C799.26 186.792 798.892 183.564 798.892 180.01ZM804.612 180.01C804.612 182.524 804.85 184.907 805.327 187.16C805.847 189.414 806.627 191.407 807.667 193.14C808.707 194.83 810.028 196.195 811.632 197.235C813.278 198.232 815.207 198.73 817.417 198.73C821.447 198.73 824.61 197.214 826.907 194.18C829.203 191.104 830.352 186.38 830.352 180.01C830.352 177.54 830.092 175.179 829.572 172.925C829.095 170.629 828.315 168.635 827.232 166.945C826.192 165.212 824.848 163.847 823.202 162.85C821.598 161.81 819.67 161.29 817.417 161.29C813.43 161.29 810.288 162.829 807.992 165.905C805.738 168.939 804.612 173.64 804.612 180.01Z" fill="#69C9D0" />
        <path d="M871.34 157.26H876.54V187.615C876.54 190.345 876.172 192.707 875.435 194.7C874.742 196.694 873.724 198.34 872.38 199.64C871.08 200.897 869.499 201.829 867.635 202.435C865.772 203.042 863.714 203.345 861.46 203.345C856.087 203.345 852.035 202.132 849.305 199.705C846.575 197.279 845.21 193.595 845.21 188.655V157.26H850.605V186.12C850.605 188.417 850.822 190.367 851.255 191.97C851.732 193.53 852.425 194.809 853.335 195.805C854.245 196.759 855.372 197.452 856.715 197.885C858.102 198.319 859.705 198.535 861.525 198.535C865.035 198.535 867.549 197.582 869.065 195.675C870.582 193.725 871.34 190.54 871.34 186.12V157.26Z" fill="#69C9D0" />
        <path d="M887.613 157.715C889.259 157.412 891.144 157.174 893.268 157C895.434 156.827 897.406 156.74 899.183 156.74C901.176 156.74 903.061 156.957 904.838 157.39C906.658 157.824 908.239 158.539 909.583 159.535C910.969 160.532 912.074 161.832 912.898 163.435C913.721 165.039 914.133 166.989 914.133 169.285C914.133 172.839 913.158 175.72 911.208 177.93C909.258 180.14 906.788 181.614 903.798 182.35L906.918 184.755L918.228 202.76H911.923L899.378 183.13L893.008 182.155V202.76H887.613V157.715ZM899.313 161.42C898.749 161.42 898.164 161.42 897.558 161.42C896.951 161.42 896.366 161.442 895.803 161.485C895.239 161.529 894.698 161.572 894.178 161.615C893.701 161.659 893.311 161.724 893.008 161.81V178.58H898.078C901.068 178.58 903.538 177.844 905.488 176.37C907.438 174.897 908.413 172.6 908.413 169.48C908.413 167.14 907.611 165.212 906.008 163.695C904.404 162.179 902.173 161.42 899.313 161.42Z" fill="#69C9D0" />
        <path d="M87.4272 241.26H112.192V246.07H92.8222V260.955H110.567V265.765H92.8222V281.95H112.517V286.76H87.4272V241.26Z" fill="#69C9D0" />
        <path d="M134.106 272.525L135.666 279.415H135.731L137.421 272.395L148.406 241.26H153.801L136.576 287.475H134.171L116.621 241.26H122.536L134.106 272.525Z" fill="#69C9D0" />
        <path d="M159.219 241.26H183.984V246.07H164.614V260.955H182.359V265.765H164.614V281.95H184.309V286.76H159.219V241.26Z" fill="#69C9D0" />
        <path d="M194.068 241.715C195.714 241.412 197.599 241.174 199.723 241C201.889 240.827 203.861 240.74 205.638 240.74C207.631 240.74 209.516 240.957 211.293 241.39C213.113 241.824 214.694 242.539 216.038 243.535C217.424 244.532 218.529 245.832 219.353 247.435C220.176 249.039 220.588 250.989 220.588 253.285C220.588 256.839 219.613 259.72 217.663 261.93C215.713 264.14 213.243 265.614 210.253 266.35L213.373 268.755L224.683 286.76H218.378L205.833 267.13L199.463 266.155V286.76H194.068V241.715ZM205.768 245.42C205.204 245.42 204.619 245.42 204.013 245.42C203.406 245.42 202.821 245.442 202.258 245.485C201.694 245.529 201.153 245.572 200.633 245.615C200.156 245.659 199.766 245.724 199.463 245.81V262.58H204.533C207.523 262.58 209.993 261.844 211.943 260.37C213.893 258.897 214.868 256.6 214.868 253.48C214.868 251.14 214.066 249.212 212.463 247.695C210.859 246.179 208.628 245.42 205.768 245.42Z" fill="#69C9D0" />
        <path d="M238.863 268.69L223.848 241.26H230.153L240.813 261.15L241.918 265.115H241.983L243.153 261.02L253.358 241.26H259.143L244.258 268.625V286.76H238.863V268.69Z" fill="#69C9D0" />
        <path d="M265.098 241.26C265.921 241.13 266.831 241.044 267.828 241C268.868 240.914 269.93 240.87 271.013 240.87C272.14 240.827 273.223 240.805 274.263 240.805C275.346 240.762 276.343 240.74 277.253 240.74C280.893 240.74 284.035 241.304 286.678 242.43C289.365 243.557 291.575 245.139 293.308 247.175C295.041 249.169 296.32 251.574 297.143 254.39C298.01 257.207 298.443 260.305 298.443 263.685C298.443 266.762 298.031 269.73 297.208 272.59C296.428 275.407 295.171 277.92 293.438 280.13C291.705 282.297 289.451 284.052 286.678 285.395C283.905 286.695 280.546 287.345 276.603 287.345C275.91 287.345 275 287.324 273.873 287.28C272.79 287.28 271.663 287.237 270.493 287.15C269.323 287.107 268.24 287.064 267.243 287.02C266.246 286.977 265.531 286.912 265.098 286.825V241.26ZM277.383 245.55C276.82 245.55 276.191 245.55 275.498 245.55C274.848 245.55 274.198 245.572 273.548 245.615C272.898 245.659 272.291 245.702 271.728 245.745C271.208 245.789 270.796 245.832 270.493 245.875V282.275C270.71 282.319 271.121 282.362 271.728 282.405C272.335 282.405 272.963 282.427 273.613 282.47C274.263 282.47 274.891 282.492 275.498 282.535C276.105 282.535 276.516 282.535 276.733 282.535C279.766 282.535 282.301 282.015 284.338 280.975C286.418 279.935 288.065 278.549 289.278 276.815C290.535 275.039 291.423 273.024 291.943 270.77C292.463 268.474 292.723 266.112 292.723 263.685C292.723 261.562 292.485 259.439 292.008 257.315C291.531 255.149 290.708 253.199 289.538 251.465C288.368 249.732 286.786 248.324 284.793 247.24C282.843 246.114 280.373 245.55 277.383 245.55Z" fill="#69C9D0" />
        <path d="M327.622 274.15H310.852L306.302 286.76H300.972L318.197 240.545H320.667L337.957 286.76H332.302L327.622 274.15ZM312.607 269.47H325.997L320.927 255.625L319.302 248.735H319.237L317.612 255.755L312.607 269.47Z" fill="#69C9D0" />
        <path d="M349.566 268.69L334.551 241.26H340.856L351.516 261.15L352.621 265.115H352.686L353.856 261.02L364.061 241.26H369.846L354.961 268.625V286.76H349.566V268.69Z" fill="#69C9D0" />
        <path d="M391.48 241.715C393.127 241.325 394.903 241.065 396.81 240.935C398.717 240.805 400.602 240.74 402.465 240.74C404.458 240.74 406.473 240.935 408.51 241.325C410.59 241.715 412.475 242.43 414.165 243.47C415.855 244.51 417.22 245.94 418.26 247.76C419.343 249.58 419.885 251.899 419.885 254.715C419.885 257.489 419.387 259.829 418.39 261.735C417.393 263.642 416.072 265.202 414.425 266.415C412.778 267.585 410.893 268.43 408.77 268.95C406.647 269.47 404.458 269.73 402.205 269.73C401.988 269.73 401.62 269.73 401.1 269.73C400.623 269.73 400.103 269.73 399.54 269.73C399.02 269.687 398.5 269.644 397.98 269.6C397.46 269.557 397.092 269.514 396.875 269.47V286.76H391.48V241.715ZM402.595 245.42C401.468 245.42 400.385 245.442 399.345 245.485C398.305 245.529 397.482 245.637 396.875 245.81V264.66C397.092 264.747 397.438 264.812 397.915 264.855C398.392 264.855 398.89 264.877 399.41 264.92C399.93 264.92 400.428 264.92 400.905 264.92C401.382 264.92 401.728 264.92 401.945 264.92C403.418 264.92 404.87 264.79 406.3 264.53C407.773 264.227 409.095 263.707 410.265 262.97C411.435 262.234 412.367 261.194 413.06 259.85C413.797 258.507 414.165 256.795 414.165 254.715C414.165 252.939 413.818 251.465 413.125 250.295C412.475 249.082 411.587 248.129 410.46 247.435C409.377 246.699 408.142 246.179 406.755 245.875C405.368 245.572 403.982 245.42 402.595 245.42Z" fill="#69C9D0" />
        <path d="M427.789 241.715C429.435 241.412 431.32 241.174 433.444 241C435.61 240.827 437.582 240.74 439.359 240.74C441.352 240.74 443.237 240.957 445.014 241.39C446.834 241.824 448.415 242.539 449.759 243.535C451.145 244.532 452.25 245.832 453.074 247.435C453.897 249.039 454.309 250.989 454.309 253.285C454.309 256.839 453.334 259.72 451.384 261.93C449.434 264.14 446.964 265.614 443.974 266.35L447.094 268.755L458.404 286.76H452.099L439.554 267.13L433.184 266.155V286.76H427.789V241.715ZM439.489 245.42C438.925 245.42 438.34 245.42 437.734 245.42C437.127 245.42 436.542 245.442 435.979 245.485C435.415 245.529 434.874 245.572 434.354 245.615C433.877 245.659 433.487 245.724 433.184 245.81V262.58H438.254C441.244 262.58 443.714 261.844 445.664 260.37C447.614 258.897 448.589 256.6 448.589 253.48C448.589 251.14 447.787 249.212 446.184 247.695C444.58 246.179 442.349 245.42 439.489 245.42Z" fill="#69C9D0" />
        <path d="M461.704 264.01C461.704 256.427 463.308 250.62 466.514 246.59C469.721 242.517 474.293 240.48 480.229 240.48C483.436 240.48 486.209 241.044 488.549 242.17C490.889 243.297 492.818 244.9 494.334 246.98C495.894 249.017 497.043 251.487 497.779 254.39C498.516 257.25 498.884 260.457 498.884 264.01C498.884 271.594 497.259 277.422 494.009 281.495C490.803 285.525 486.209 287.54 480.229 287.54C477.066 287.54 474.314 286.977 471.974 285.85C469.678 284.724 467.749 283.142 466.189 281.105C464.673 279.025 463.546 276.555 462.809 273.695C462.073 270.792 461.704 267.564 461.704 264.01ZM467.424 264.01C467.424 266.524 467.663 268.907 468.139 271.16C468.659 273.414 469.439 275.407 470.479 277.14C471.519 278.83 472.841 280.195 474.444 281.235C476.091 282.232 478.019 282.73 480.229 282.73C484.259 282.73 487.423 281.214 489.719 278.18C492.016 275.104 493.164 270.38 493.164 264.01C493.164 261.54 492.904 259.179 492.384 256.925C491.908 254.629 491.128 252.635 490.044 250.945C489.004 249.212 487.661 247.847 486.014 246.85C484.411 245.81 482.483 245.29 480.229 245.29C476.243 245.29 473.101 246.829 470.804 249.905C468.551 252.939 467.424 257.64 467.424 264.01Z" fill="#69C9D0" />
        <path d="M535.453 251.66C535.453 252.744 535.28 253.849 534.933 254.975C534.586 256.102 534.066 257.164 533.373 258.16C532.68 259.114 531.791 259.959 530.708 260.695C529.625 261.432 528.346 261.995 526.873 262.385V262.645C528.173 262.862 529.408 263.23 530.578 263.75C531.791 264.27 532.853 264.985 533.763 265.895C534.673 266.805 535.41 267.91 535.973 269.21C536.536 270.51 536.818 272.049 536.818 273.825C536.818 276.165 536.32 278.202 535.323 279.935C534.37 281.625 533.091 283.012 531.488 284.095C529.928 285.179 528.13 285.98 526.093 286.5C524.056 287.02 521.976 287.28 519.853 287.28C519.116 287.28 518.25 287.28 517.253 287.28C516.256 287.28 515.216 287.237 514.133 287.15C513.05 287.107 511.966 287.02 510.883 286.89C509.8 286.804 508.846 286.652 508.023 286.435V241.65C509.626 241.39 511.49 241.174 513.613 241C515.736 240.827 518.055 240.74 520.568 240.74C522.258 240.74 523.97 240.892 525.703 241.195C527.48 241.455 529.083 241.997 530.513 242.82C531.943 243.6 533.113 244.705 534.023 246.135C534.976 247.565 535.453 249.407 535.453 251.66ZM520.373 282.6C521.76 282.6 523.103 282.449 524.403 282.145C525.703 281.799 526.851 281.279 527.848 280.585C528.845 279.849 529.625 278.96 530.188 277.92C530.795 276.88 531.098 275.645 531.098 274.215C531.098 272.439 530.73 271.009 529.993 269.925C529.3 268.842 528.368 267.997 527.198 267.39C526.071 266.784 524.793 266.372 523.363 266.155C521.933 265.939 520.503 265.83 519.073 265.83H513.418V282.145C513.721 282.232 514.155 282.297 514.718 282.34C515.281 282.384 515.888 282.427 516.538 282.47C517.188 282.514 517.86 282.557 518.553 282.6C519.246 282.6 519.853 282.6 520.373 282.6ZM516.798 261.28C517.535 261.28 518.423 261.259 519.463 261.215C520.503 261.172 521.37 261.107 522.063 261.02C523.103 260.674 524.078 260.262 524.988 259.785C525.898 259.265 526.7 258.68 527.393 258.03C528.13 257.337 528.693 256.557 529.083 255.69C529.516 254.78 529.733 253.805 529.733 252.765C529.733 251.335 529.451 250.165 528.888 249.255C528.368 248.302 527.653 247.544 526.743 246.98C525.833 246.417 524.793 246.027 523.623 245.81C522.453 245.55 521.261 245.42 520.048 245.42C518.618 245.42 517.296 245.464 516.083 245.55C514.913 245.594 514.025 245.68 513.418 245.81V261.28H516.798Z" fill="#69C9D0" />
        <path d="M572.892 286.76H545.982V241.26H551.377V281.95H572.892V286.76Z" fill="#69C9D0" />
        <path d="M579.561 241.26H604.326V246.07H584.956V260.955H602.701V265.765H584.956V281.95H604.651V286.76H579.561V241.26Z" fill="#69C9D0" />
        <path d="M649.38 256.21L650.03 249.385H649.705L647.235 255.625L635.405 276.165H633.78L621.235 255.56L618.895 249.385H618.57L619.48 256.145V286.76H614.41V241.26H618.44L632.675 264.53L634.82 269.6H634.95L636.965 264.4L650.55 241.26H654.775V286.76H649.38V256.21Z" fill="#69C9D0" />
        <path d="M686.366 275.19C686.366 273.37 685.824 271.897 684.741 270.77C683.657 269.6 682.292 268.582 680.646 267.715C679.042 266.805 677.287 265.96 675.381 265.18C673.474 264.4 671.697 263.469 670.051 262.385C668.447 261.259 667.104 259.894 666.021 258.29C664.937 256.644 664.396 254.564 664.396 252.05C664.396 248.497 665.631 245.68 668.101 243.6C670.571 241.52 674.081 240.48 678.631 240.48C681.274 240.48 683.679 240.675 685.846 241.065C688.012 241.455 689.702 241.954 690.916 242.56L689.291 247.305C688.294 246.829 686.821 246.374 684.871 245.94C682.964 245.507 680.797 245.29 678.371 245.29C675.511 245.29 673.366 245.94 671.936 247.24C670.506 248.497 669.791 249.992 669.791 251.725C669.791 253.415 670.332 254.824 671.416 255.95C672.499 257.077 673.842 258.095 675.446 259.005C677.092 259.872 678.869 260.739 680.776 261.605C682.682 262.472 684.437 263.49 686.041 264.66C687.687 265.787 689.052 267.152 690.136 268.755C691.219 270.359 691.761 272.352 691.761 274.735C691.761 276.685 691.414 278.44 690.721 280C690.027 281.56 689.009 282.904 687.666 284.03C686.322 285.157 684.697 286.024 682.791 286.63C680.884 287.237 678.717 287.54 676.291 287.54C673.041 287.54 670.354 287.28 668.231 286.76C666.107 286.284 664.461 285.742 663.291 285.135L665.111 280.26C666.107 280.824 667.581 281.387 669.531 281.95C671.481 282.47 673.669 282.73 676.096 282.73C677.526 282.73 678.869 282.6 680.126 282.34C681.382 282.037 682.466 281.582 683.376 280.975C684.286 280.325 685.001 279.524 685.521 278.57C686.084 277.617 686.366 276.49 686.366 275.19Z" fill="#69C9D0" />
        <path d="M703.087 241.26H708.482V263.815L707.377 275.255H704.192L703.087 263.815V241.26ZM701.982 283.77C701.982 282.6 702.307 281.69 702.957 281.04C703.65 280.347 704.56 280 705.687 280C706.857 280 707.789 280.347 708.482 281.04C709.175 281.69 709.522 282.6 709.522 283.77C709.522 284.897 709.175 285.807 708.482 286.5C707.789 287.194 706.857 287.54 705.687 287.54C704.56 287.54 703.65 287.194 702.957 286.5C702.307 285.807 701.982 284.897 701.982 283.77Z" fill="#69C9D0" />
      </g>
    </g>
    <g id="Group 4">
      <circle id="outer-border-shadow" cx="499.238" cy="714.547" r="121.151" fill="url(#paint0_radial_19_50)" />
      <circle id="outer-border" cx="499.238" cy="714.547" r="99.7912" fill="white" stroke="#69C9D0" stroke-width="2" />
      <path id="s44" d="M645.771 938.644L596.481 969.044L543.909 938.621V879.08L596.481 849.304L645.771 879.057V938.644Z" fill="url(#pattern0)" stroke="#69C9D0" stroke-width="2.5" />
      <path id="s33" d="M702.903 841.709L653.614 872.298L601.041 841.686V781.761L653.614 751.8L702.903 781.738V841.709Z" fill="url(#pattern1)" stroke="#69C9D0" stroke-width="2.5" />
      <path id="s22" d="M757.75 741.918L708.46 772.506L655.888 741.894V681.97L708.461 652.009L757.75 681.947V741.918Z" fill="url(#pattern2)" stroke="#69C9D0" stroke-width="2.5" />
      <path id="s11" d="M702.142 644.603L652.852 675.003L600.28 644.58V585.038L652.852 555.263L702.142 585.015V644.603Z" fill="url(#pattern3)" stroke="#69C9D0" stroke-width="2.5" />
      <path id="s4" d="M352.706 491.212L401.995 460.812L454.568 491.235V550.776L401.995 580.552L352.706 550.799V491.212Z" fill="url(#pattern4)" stroke="#69C9D0" stroke-width="2.5" />
      <path id="s3" d="M297.097 589.67L346.387 559.082L398.959 589.694V649.618L346.386 679.579L297.097 649.641V589.67Z" fill="url(#pattern5)" stroke="#69C9D0" stroke-width="2.5" />
      <path id="s2" d="M242.25 690.794L291.539 660.394L344.112 690.817V750.358L291.539 780.134L242.25 750.381V690.794Z" fill="url(#pattern6)" stroke="#69C9D0" stroke-width="2.5" />
      <path id="s1" d="M299.382 789.253L348.672 758.664L401.244 789.276V849.201L348.672 879.162L299.382 849.224V789.253Z" fill="url(#pattern7)" stroke="#69C9D0" stroke-width="2.5" />
      <g id="Innovatik">
        <g id="text">
          <path id="Vector" d="M420.492 738.182H425.328V762.731H420.492V738.182Z" fill="black" />
          <path id="Vector_2" d="M435.133 748.154L435.466 750.49C435.977 749.577 436.701 748.844 437.634 748.288C438.568 747.732 439.703 747.454 441.037 747.454C442.415 747.454 443.566 747.861 444.488 748.672C445.41 749.483 445.884 750.534 445.906 751.823V762.731H441.238V753.558C441.214 752.914 441.042 752.396 440.72 752.006C440.398 751.616 439.859 751.422 439.103 751.422C438.013 751.422 437.151 751.929 436.518 752.941C435.884 753.953 435.567 755.237 435.567 756.794V762.731H430.898V748.154H435.133Z" fill="black" />
          <path id="Vector_3" d="M454.945 748.154L455.278 750.49C455.789 749.577 456.513 748.844 457.445 748.288C458.38 747.732 459.514 747.454 460.849 747.454C462.227 747.454 463.378 747.861 464.3 748.672C465.222 749.484 465.696 750.534 465.718 751.823V762.731H461.049V753.558C461.026 752.914 460.854 752.396 460.532 752.006C460.21 751.616 459.67 751.422 458.915 751.422C457.825 751.422 456.963 751.929 456.33 752.941C455.696 753.953 455.379 755.237 455.379 756.794V762.731H450.71V748.154H454.945Z" fill="black" />
          <path id="Vector_4" d="M469.386 755.26C469.386 753.77 469.737 752.436 470.437 751.256C471.137 750.077 472.12 749.149 473.388 748.471C474.656 747.793 476.111 747.453 477.758 747.453C479.426 747.453 480.871 747.793 482.093 748.471C483.317 749.149 484.257 750.077 484.912 751.256C485.568 752.436 485.897 753.77 485.897 755.26C485.897 756.749 485.568 758.089 484.912 759.278C484.257 760.469 483.317 761.408 482.093 762.096C480.871 762.785 479.402 763.13 477.691 763.13C476.09 763.13 474.661 762.819 473.406 762.195C472.149 761.573 471.164 760.674 470.453 759.495C469.742 758.318 469.386 756.904 469.386 755.26ZM474.089 755.292C474.089 756.448 474.422 757.41 475.089 758.177C475.756 758.945 476.602 759.328 477.623 759.328C478.713 759.328 479.58 758.945 480.225 758.177C480.869 757.41 481.192 756.448 481.192 755.292C481.192 754.136 480.87 753.174 480.225 752.407C479.579 751.639 478.712 751.255 477.623 751.255C476.601 751.255 475.756 751.638 475.089 752.407C474.422 753.174 474.089 754.136 474.089 755.292Z" fill="black" />
          <path id="Vector_5" d="M495.736 763.03L486.996 748.154H492.534L495.935 755.092L498.937 748.154H504.14L495.867 763.03H495.736Z" fill="black" />
          <path id="Vector_6" d="M512.345 763.13C510.989 763.13 509.761 762.857 508.659 762.313C507.559 761.768 506.687 760.928 506.041 759.796C505.396 758.661 505.074 757.216 505.074 755.46C505.074 753.814 505.408 752.391 506.074 751.19C506.741 749.988 507.619 749.061 508.709 748.405C509.799 747.749 510.955 747.422 512.177 747.422C513.624 747.422 514.718 747.655 515.463 748.122C516.209 748.589 516.804 749.101 517.248 749.657L517.549 748.155H521.885V762.732H517.216V760.928C516.993 761.152 516.665 761.44 516.231 761.796C515.798 762.152 515.258 762.463 514.614 762.73C513.97 762.997 513.212 763.13 512.345 763.13ZM513.68 759.328C515.303 759.328 516.482 758.594 517.216 757.127V753.558C516.949 752.846 516.487 752.279 515.831 751.856C515.175 751.435 514.402 751.222 513.512 751.222C512.512 751.222 511.645 751.595 510.911 752.341C510.178 753.086 509.81 754.046 509.81 755.225C509.81 756.004 509.989 756.704 510.345 757.327C510.7 757.95 511.172 758.44 511.761 758.794C512.351 759.15 512.99 759.328 513.68 759.328Z" fill="black" />
          <path id="Vector_7" d="M525.788 738.182H542.33V742.852H536.361V762.731H531.525V742.852H525.788V738.182Z" fill="black" />
          <path id="Vector_8" d="M547.001 738.182H551.837V762.731H547.001V738.182Z" fill="black" />
          <path id="Vector_9" d="M563.076 746.921L562.943 748.154L563.677 747.221L571.681 738.182H577.952L567.812 749.189L577.985 762.73H571.848L564.277 752.257L563.076 753.457V762.73H558.174V738.182H563.076V746.921Z" fill="black" />
        </g>
        <g id="all-tok">
          <g id="back">
            <path id="Vector_10" d="M509.189 704.917V671.717C509.191 671.685 509.197 671.218 509.06 670.549L508.545 668.01L522.697 682.16C523.859 683.323 524.648 684.779 524.983 686.369L524.988 686.4C525.04 686.702 525.117 687.512 524.737 688.517C524.254 689.799 523.43 690.675 523.271 690.836L509.189 704.917ZM510.75 672.423L510.751 701.148L522.158 689.741C522.232 689.666 522.894 688.975 523.275 687.967C523.524 687.309 523.469 686.8 523.45 686.675C523.176 685.389 522.533 684.21 521.591 683.266L510.75 672.423Z" fill="#69C9D0" />
            <path id="Vector_11" d="M461.434 708.15V688.129C461.434 686.491 461.903 684.904 462.793 683.538L462.811 683.513C462.985 683.264 463.502 682.637 464.486 682.19C465.788 681.605 467.033 681.587 467.171 681.587H487.077L463.601 705.063C463.482 705.181 463.187 705.496 462.867 705.981L461.434 708.15ZM464.093 684.404C463.373 685.512 462.994 686.801 462.994 688.129V703.46L483.307 683.15H467.176C467.128 683.15 466.147 683.155 465.127 683.613C464.484 683.906 464.167 684.303 464.093 684.404Z" fill="#69C9D0" />
            <path id="Vector_12" d="M504.177 729.561C503.784 729.561 503.242 729.502 502.619 729.27L502.614 729.268C501.274 728.759 500.384 727.89 500.286 727.791L486.216 713.723H519.418C519.525 713.738 519.967 713.723 520.58 713.592L523.141 713.059L508.974 727.229C507.815 728.388 506.359 729.179 504.764 729.513C504.662 729.531 504.458 729.561 504.177 729.561ZM503.166 727.807C503.897 728.078 504.438 727.98 504.46 727.982C505.741 727.714 506.926 727.071 507.871 726.126L518.709 715.286H489.987L501.392 726.69C501.423 726.721 502.115 727.408 503.166 727.807Z" fill="#69C9D0" />
            <path id="Vector_13" d="M478.054 727.651L463.906 713.507C462.748 712.345 461.957 710.889 461.622 709.297C461.564 708.963 461.487 708.15 461.868 707.145C462.375 705.805 463.245 704.915 463.343 704.817L477.413 690.749V723.949C477.412 723.98 477.407 724.447 477.543 725.117L478.054 727.651ZM475.852 694.519L464.443 705.923C464.414 705.954 463.725 706.648 463.327 707.698C463.068 708.382 463.137 708.908 463.154 709.006C463.422 710.271 464.066 711.456 465.01 712.402L475.853 723.242L475.852 694.519Z" fill="#69C9D0" />
            <path id="Vector_14" d="M519.91 714.078H499.527L523.003 690.601C523.068 690.537 523.386 690.211 523.738 689.684L525.168 687.531V707.537C525.168 709.18 524.699 710.766 523.808 712.129C523.617 712.401 523.1 713.032 522.115 713.475C521.645 713.687 520.903 713.944 519.927 714.043L519.91 714.078ZM503.296 712.517L519.451 712.513C520.38 712.466 521.063 712.236 521.473 712.051C522.143 711.751 522.46 711.333 522.516 711.252C523.224 710.168 523.606 708.875 523.606 707.537V692.205L503.296 712.517Z" fill="#69C9D0" />
            <path id="Vector_15" d="M503.608 729.7H483.599C481.958 729.7 480.369 729.231 479.005 728.34L478.981 728.324C478.733 728.147 478.106 727.633 477.662 726.653C477.072 725.341 477.057 724.097 477.057 723.96V704.06L500.533 727.532C500.548 727.547 500.881 727.891 501.451 728.269L503.608 729.7ZM479.871 727.04C480.979 727.758 482.267 728.138 483.598 728.138H498.928L478.617 707.829V723.958C478.617 723.97 478.62 724.979 479.082 726.006C479.374 726.649 479.771 726.967 479.871 727.04Z" fill="#69C9D0" />
            <path id="Vector_16" d="M509.548 691.61L483.932 665.964H503.005C504.646 665.964 506.234 666.435 507.597 667.325C507.811 667.474 508.482 667.997 508.943 669.018C509.533 670.324 509.547 671.57 509.547 671.708V691.61H509.548ZM487.701 667.526L507.986 687.835V671.705C507.986 671.663 507.984 670.685 507.521 669.663C507.209 668.972 506.773 668.654 506.725 668.621C505.636 667.91 504.344 667.527 503.007 667.527H487.701V667.526Z" fill="#69C9D0" />
          </g>
          <g id="mid">
            <path id="Vector_17" d="M515.165 707.381V674.18C515.165 674.156 515.172 673.686 515.034 673.012L514.519 670.473L528.671 684.624C529.832 685.787 530.621 687.243 530.956 688.833L530.964 688.867C531.013 689.172 531.089 689.984 530.71 690.981C530.227 692.263 529.403 693.139 529.244 693.3L515.165 707.381ZM516.725 674.888V703.611L528.131 692.204C528.205 692.129 528.867 691.438 529.248 690.429C529.494 689.78 529.442 689.266 529.423 689.135C529.148 687.849 528.505 686.671 527.565 685.728L516.725 674.888Z" fill="#010101" />
            <path id="Vector_18" d="M467.409 710.62V690.593C467.409 688.952 467.879 687.366 468.768 686.001L468.783 685.98C468.919 685.786 469.44 685.117 470.458 684.655C471.76 684.07 473.007 684.052 473.143 684.052H493.05L469.574 707.527C469.456 707.646 469.16 707.961 468.841 708.445L467.409 710.62ZM470.068 686.866C469.35 687.973 468.969 689.262 468.969 690.592V705.922L489.28 685.612H473.15C473.101 685.612 472.121 685.617 471.101 686.075C470.445 686.374 470.124 686.787 470.068 686.866Z" fill="#010101" />
            <path id="Vector_19" d="M510.151 732.024C509.758 732.024 509.216 731.965 508.593 731.734L508.588 731.731C507.249 731.222 506.358 730.353 506.26 730.254L492.19 716.185H525.392C525.493 716.191 525.941 716.185 526.554 716.054L529.115 715.521L514.948 729.691C513.79 730.851 512.334 731.641 510.738 731.975C510.636 731.994 510.432 732.024 510.151 732.024ZM509.141 730.272C509.871 730.54 510.408 730.443 510.433 730.444C511.715 730.176 512.9 729.531 513.842 728.588L524.681 717.748H495.96L507.366 729.152C507.374 729.161 508.09 729.87 509.141 730.272Z" fill="#010101" />
            <path id="Vector_20" d="M484.034 730.119L469.879 715.969C468.72 714.808 467.931 713.354 467.595 711.759C467.538 711.42 467.464 710.607 467.841 709.608C468.347 708.268 469.218 707.377 469.315 707.28L483.387 693.212V726.412C483.387 726.434 483.38 726.905 483.518 727.579L484.034 730.119ZM481.825 696.982L470.416 708.387C470.388 708.418 469.698 709.111 469.3 710.162C469.044 710.841 469.112 711.374 469.128 711.474C469.395 712.735 470.039 713.92 470.983 714.866L481.824 725.705V696.982H481.825Z" fill="#010101" />
            <path id="Vector_21" d="M525.922 716.541H505.501L528.977 693.064C528.992 693.05 529.333 692.717 529.713 692.146L531.143 689.993V709.999C531.143 711.64 530.673 713.229 529.784 714.591C529.593 714.863 529.075 715.494 528.09 715.937C527.627 716.147 526.898 716.401 525.939 716.503L525.922 716.541ZM509.271 714.979L525.426 714.975C526.355 714.929 527.038 714.698 527.447 714.514C528.116 714.213 528.434 713.796 528.49 713.714C529.199 712.628 529.582 711.337 529.582 709.999V694.668L509.271 714.979Z" fill="#010101" />
            <path id="Vector_22" d="M509.581 732.162H489.571C487.931 732.162 486.342 731.693 484.977 730.802L484.956 730.786C484.707 730.611 484.079 730.099 483.633 729.112C483.043 727.803 483.028 726.558 483.028 726.423V706.522L506.506 729.994C506.525 730.015 506.849 730.35 507.423 730.731L509.581 732.162ZM485.844 729.502C486.951 730.22 488.24 730.6 489.571 730.6H504.903L484.59 710.292V726.421C484.59 726.434 484.594 727.442 485.057 728.47C485.349 729.116 485.747 729.432 485.844 729.502Z" fill="#010101" />
            <path id="Vector_23" d="M515.521 694.073L489.905 668.428H508.98C510.621 668.428 512.207 668.898 513.572 669.789C513.788 669.939 514.458 670.464 514.917 671.481C515.507 672.788 515.521 674.033 515.521 674.171V694.073ZM493.673 669.99L513.959 690.299V674.167C513.959 674.125 513.956 673.148 513.493 672.125C513.183 671.437 512.744 671.115 512.696 671.082C511.609 670.373 510.317 669.99 508.98 669.99H493.673Z" fill="#010101" />
          </g>
          <g id="front">
            <path id="seven" d="M521.421 696.485L495.806 670.839H514.881C516.519 670.839 518.106 671.309 519.472 672.2C519.687 672.349 520.357 672.871 520.818 673.893C521.408 675.198 521.421 676.444 521.421 676.582V696.485ZM499.574 672.401L519.86 692.711V676.579C519.86 676.538 519.857 675.559 519.394 674.538C519.082 673.845 518.648 673.526 518.598 673.493C517.507 672.782 516.214 672.399 514.88 672.399H499.574V672.401Z" fill="#EE1D52" />
            <path id="six" d="M521.066 709.792V676.592C521.066 676.568 521.073 676.097 520.936 675.426L520.415 672.88L534.572 687.036C535.732 688.197 536.523 689.653 536.858 691.244L536.863 691.275C536.915 691.577 536.993 692.389 536.611 693.392C536.146 694.624 535.377 695.474 535.151 695.706L521.066 709.792ZM522.627 677.301V706.022L534.034 694.617C534.155 694.491 534.783 693.816 535.15 692.841C535.4 692.183 535.345 691.674 535.326 691.55C535.051 690.262 534.41 689.084 533.469 688.142L522.627 677.301Z" fill="#EE1D52" />
            <path id="five" d="M531.817 718.955H511.402L534.878 695.475C534.943 695.41 535.262 695.085 535.612 694.558L537.043 692.402V712.413C537.043 714.053 536.574 715.638 535.683 717.003C535.492 717.275 534.975 717.906 533.989 718.349C533.339 718.642 532.615 718.833 531.834 718.914L531.817 718.955ZM515.172 717.393L531.333 717.389C532.082 717.346 532.759 717.192 533.348 716.926C534.019 716.626 534.336 716.208 534.392 716.127C535.101 715.041 535.483 713.75 535.483 712.413V697.08L515.172 717.393Z" fill="#EE1D52" />
            <path id="four" d="M516.056 734.436C515.658 734.436 515.111 734.377 514.492 734.143H514.491C513.207 733.659 512.332 732.835 512.169 732.675L498.09 718.597H531.292C531.383 718.6 531.843 718.594 532.455 718.469L535.004 717.944L520.849 732.106C519.691 733.262 518.236 734.052 516.64 734.389C516.534 734.408 516.331 734.436 516.056 734.436ZM515.041 732.683C515.752 732.949 516.285 732.867 516.343 732.856C517.615 732.587 518.799 731.943 519.743 731L530.583 720.16H501.861L513.266 731.564C513.342 731.638 514.032 732.3 515.041 732.683Z" fill="#EE1D52" />
            <path id="three" d="M515.473 734.576H495.473C493.834 734.576 492.247 734.104 490.878 733.214L490.857 733.198C490.663 733.061 489.995 732.539 489.536 731.526C488.945 730.217 488.931 728.971 488.931 728.834V708.934L512.407 732.406C512.427 732.427 512.751 732.762 513.326 733.144L515.473 734.576ZM491.746 731.914C492.855 732.634 494.144 733.014 495.473 733.014H510.807L490.493 712.704V728.833C490.493 728.876 490.495 729.855 490.958 730.881C491.254 731.534 491.667 731.855 491.746 731.914Z" fill="#EE1D52" />
            <path id="two" d="M489.933 732.53L475.781 718.382C474.622 717.221 473.832 715.765 473.496 714.172C473.44 713.838 473.362 713.025 473.742 712.02C474.229 710.739 475.048 709.865 475.207 709.702L475.215 709.693L489.288 695.624V728.824C489.288 728.846 489.281 729.318 489.419 729.993L489.933 732.53ZM476.324 710.795L476.321 710.797C476.247 710.872 475.585 711.563 475.202 712.575C474.943 713.258 475.013 713.784 475.029 713.883C475.296 715.148 475.939 716.333 476.884 717.278L487.725 728.119V699.393L476.324 710.795Z" fill="#EE1D52" />
            <path id="one" d="M473.31 713.025V693.003C473.31 691.365 473.779 689.777 474.669 688.411L474.685 688.388C474.822 688.193 475.346 687.526 476.36 687.065C477.664 686.479 478.908 686.462 479.044 686.462H498.951L475.475 709.939C475.413 710 475.093 710.326 474.742 710.858L473.31 713.025ZM475.969 689.279C475.25 690.387 474.87 691.675 474.87 693.004V708.335L495.181 688.025H479.052C479.004 688.025 478.024 688.03 477.003 688.489C476.351 688.785 476.027 689.197 475.969 689.279Z" fill="#EE1D52" />
          </g>
        </g>
      </g>
    </g>
  </g>
  <defs>
    <pattern id="pattern0" patternContentUnits="objectBoundingBox" width="1" height="1">
      <use xlink:href="#image0_19_50" transform="translate(1.08759 1) scale(0.00335766 0.00285714) rotate(180)" />
    </pattern>
    <pattern id="pattern1" patternContentUnits="objectBoundingBox" width="1" height="1">
      <use xlink:href="#image1_19_50" transform="translate(1.09124 1) scale(0.00337852 0.00285714) rotate(180)" />
    </pattern>
    <pattern id="pattern2" patternContentUnits="objectBoundingBox" width="1" height="1">
      <use xlink:href="#image2_19_50" transform="translate(1.09124 1) scale(0.00337852 0.00285714) rotate(180)" />
    </pattern>
    <pattern id="pattern3" patternContentUnits="objectBoundingBox" width="1" height="1">
      <use xlink:href="#image3_19_50" transform="translate(1.56762 1.02703) scale(0.00613707 0.00285714) rotate(180)" />
    </pattern>
    <pattern id="pattern4" patternContentUnits="objectBoundingBox" width="1" height="1">
      <use xlink:href="#image4_19_50" transform="translate(-0.0875913) scale(0.00335766 0.00285714)" />
    </pattern>
    <pattern id="pattern5" patternContentUnits="objectBoundingBox" width="1" height="1">
      <use xlink:href="#image5_19_50" transform="translate(-0.0912409) scale(0.00337852 0.00285714)" />
    </pattern>
    <pattern id="pattern6" patternContentUnits="objectBoundingBox" width="1" height="1">
      <use xlink:href="#image6_19_50" transform="translate(-0.0875913) scale(0.00335766 0.00285714)" />
    </pattern>
    <pattern id="pattern7" patternContentUnits="objectBoundingBox" width="1" height="1">
      <use xlink:href="#image7_19_50" transform="translate(-0.0912409) scale(0.00337852 0.00285714)" />
    </pattern>
    <radialGradient id="paint0_radial_19_50" cx="0" cy="0" r="1" gradientUnits="userSpaceOnUse" gradientTransform="translate(499.238 714.547) rotate(90) scale(121.151)">
      <stop stop-color="#69C9D0" />
      <stop offset="1" stop-color="#69C9D0" stop-opacity="0" />
    </radialGradient>

    <image id="image0_19_50" data-name="h8.jpg" width="350" height="350" xlink:href="https://innovatik.shop/wp-content/uploads/2022/07/h1.jpg" />
    <image id="image1_19_50" data-name="h7.jpg" width="350" height="350" xlink:href="https://innovatik.shop/wp-content/uploads/2022/07/h2.jpg" />
    <image id="image2_19_50" data-name="h6.jpg" width="350" height="350" xlink:href="https://innovatik.shop/wp-content/uploads/2022/07/h3.jpeg" />
    <image id="image3_19_50" data-name="h5.jpg" width="350" height="350" xlink:href="https://innovatik.shop/wp-content/uploads/2022/07/h4.jpg" />
    <image id="image4_19_50" data-name="h4.jpg" width="350" height="350" xlink:href="https://innovatik.shop/wp-content/uploads/2022/07/h5.jpg" />
    <image id="image5_19_50" data-name="h3.jpg" width="350" height="350" xlink:href="https://innovatik.shop/wp-content/uploads/2022/07/h6.jpeg" />
    <image id="image6_19_50" data-name="h2.jpg" width="350" height="350" xlink:href="https://innovatik.shop/wp-content/uploads/2022/07/h7.jpeg" />
    <image id="image7_19_50" data-name="h1.jpg" width="350" height="350" xlink:href="https://innovatik.shop/wp-content/uploads/2022/07/h8.jpg" />

    <style>

      #text-sec {
        animation: bannerHeaderIn 6s ease-out infinite alternate;
      }

      @keyframes bannerHeaderIn {
        0% {
          opacity: 0;
          transform: translate(50px, 0px);
        }

        16% {
          transform: translate(0px, 0px);
          opacity: 1;
        }

        84% {
          transform: translate(0px, 0px);
          opacity: 1;
        }

        100% {
          opacity: 0;
          transform: translate(-50px, 0px);
        }
      }

      #btn {
        animation: btnIn 6s ease-out infinite alternate;
      }

      @keyframes btnIn {
        0% {
          opacity: 0;
          transform: translate(-50px, 0px);
        }

        16% {
          transform: translate(0px, 0px);
          opacity: 1;
        }

        84% {
          transform: translate(0px, 0px);
          opacity: 1;
        }

        100% {
          opacity: 0;
          transform: translate(50px, 0px);
        }
      }

      #s1,
      #s2,
      #s3,
      #s4,
      #s11,
      #s22,
      #s33,
      #s44 {
        transform-box: fill-box;
        transform-origin: center;
      }

      /* For 1 */

      #s1,
      #s11 {
        animation: oneOn 6s ease infinite alternate;
      }

      @keyframes oneOn {
        0% {
          transform: scale(1);
        }

        12.5% {
          transform: scale(1.1);
        }

        25% {
          transform: scale(1.1);
        }

        37.5% {
          transform: scale(1);
        }

        50% {
          transform: scale(1);
        }

        62.5% {
          transform: scale(1);
        }

        75% {
          transform: scale(1);
        }

        87.5% {
          transform: scale(1);
        }

        100% {
          transform: scale(1);
        }
      }

      /* For 2 */

      #s2,
      #s22 {
        animation: twoOn 6s ease infinite alternate;
      }

      @keyframes twoOn {
        0% {
          transform: scale(1);
        }

        12.5% {
          transform: scale(1);
        }

        25% {
          transform: scale(1);
        }

        37.5% {
          transform: scale(1.1);
        }

        50% {
          transform: scale(1.1);
        }

        62.5% {
          transform: scale(1);
        }

        75% {
          transform: scale(1);
        }

        87.5% {
          transform: scale(1);
        }

        100% {
          transform: scale(1);
        }
      }

      /* For 3 */

      #s3,
      #s33 {
        animation: threeOn 6s ease infinite alternate;
      }

      @keyframes threeOn {
        0% {
          transform: scale(1);
        }

        12.5% {
          transform: scale(1);
        }

        25% {
          transform: scale(1);
        }

        37.5% {
          transform: scale(1);
        }

        50% {
          transform: scale(1);
        }

        62.5% {
          transform: scale(1.1);
        }

        75% {
          transform: scale(1.1);
        }

        87.5% {
          transform: scale(1);
        }

        100% {
          transform: scale(1);
        }
      }

      /* For 4 */

      #s4,
      #s44 {
        animation: fourOn 6s ease infinite alternate;
      }

      @keyframes fourOn {
        0% {
          transform: scale(1);
        }

        12.5% {
          transform: scale(1);
        }

        25% {
          transform: scale(1);
        }

        37.5% {
          transform: scale(1);
        }

        50% {
          transform: scale(1);
        }

        62.5% {
          transform: scale(1);
        }

        75% {
          transform: scale(1);
        }

        87.5% {
          transform: scale(1.1);
        }

        100% {
          transform: scale(1.1);
        }
      }
    </style>
  </defs>


</svg>